<?xml version="1.0" encoding="utf-8"?>
<!-- Generator: Adobe Illustrator 22.0.1, SVG Export Plug-In . SVG Version: 6.00 Build 0)  -->
<svg version="1.1" id="Layer_1" xmlns="http://www.w3.org/2000/svg" xmlns:xlink="http://www.w3.org/1999/xlink" x="0px" y="0px"
	 viewBox="0 0 955.4 934.3" style="enable-background:new 0 0 955.4 934.3;" xml:space="preserve">
<style type="text/css">
	.st0{fill:none;}
	.st1{fill:#FFFFFF;}
	.st2{fill:none;stroke:#000000;stroke-width:5;stroke-linecap:square;stroke-miterlimit:10;}
	.st3{fill:none;stroke:#000000;stroke-width:2;stroke-miterlimit:10;}
	.st4{fill:#C9C9B3;}
	.st5{fill:#B6B8BA;stroke:#000000;stroke-width:1.343;stroke-miterlimit:10;}
	.st6{fill:#C59952;stroke:#000000;stroke-width:1.4068;stroke-miterlimit:10;}
	.st7{fill:#ECCE9D;stroke:#000000;stroke-width:1.4068;stroke-miterlimit:10;}
	.st8{fill:#C9CACC;stroke:#000000;stroke-width:1.343;stroke-miterlimit:10;}
	.st9{fill:url(#SVGID_2_);stroke:#000000;stroke-width:1.2616;stroke-miterlimit:10;}
	.st10{fill:#D5D7D8;stroke:#8F9194;stroke-width:2;stroke-miterlimit:10;}
	.st11{fill:#5A5B5D;}
	.st12{fill:#5B7A53;stroke:#000000;stroke-width:0.5;stroke-miterlimit:10;}
	.st13{fill:url(#SVGID_4_);stroke:#000000;stroke-width:1.2616;stroke-miterlimit:10;}
	.st14{fill:#C59952;stroke:#000000;stroke-miterlimit:10;}
	.st15{fill:#CC6829;}
	.st16{fill:#F04D23;}
	.st17{fill:none;stroke:#000000;stroke-width:2;stroke-miterlimit:10;stroke-dasharray:3.8146,3.8146;}
	.st18{stroke:#808285;stroke-width:7;stroke-miterlimit:10;}
	.st19{stroke:#CC6829;stroke-width:5;stroke-miterlimit:10;}
	.st20{font-family:'MyriadPro-Regular';}
	.st21{font-size:12px;}
	.st22{fill:none;stroke:#000000;stroke-miterlimit:10;}
	.st23{font-size:30px;}
	.st24{font-size:26px;}
</style>
<pattern  y="871.3" width="13" height="13" patternUnits="userSpaceOnUse" id="SVGID_1_" viewBox="16.5 -29.5 13 13" style="overflow:visible;">
	<g>
		<rect x="16.5" y="-29.5" class="st0" width="13" height="13"/>
		<g>
			<rect x="16.5" y="-29.5" class="st0" width="13" height="13"/>
			<g>
				
					<rect x="29.6" y="-42.6" transform="matrix(0.7071 -0.7071 0.7071 0.7071 36.0108 15.022)" class="st1" width="13" height="13.3"/>
				<line class="st2" x1="29.5" y1="-29.5" x2="42.5" y2="-42.5"/>
			</g>
			<g>
				
					<rect x="16.6" y="-42.6" transform="matrix(0.7071 -0.7071 0.7071 0.7071 32.2031 5.8297)" class="st1" width="13" height="13.3"/>
				<line class="st2" x1="16.5" y1="-29.5" x2="29.5" y2="-42.5"/>
			</g>
			<g>
				
					<rect x="3.6" y="-42.6" transform="matrix(0.7071 -0.7071 0.7071 0.7071 28.3955 -3.3626)" class="st1" width="13" height="13.3"/>
				<line class="st2" x1="3.5" y1="-29.5" x2="16.5" y2="-42.5"/>
			</g>
			<g>
				
					<rect x="29.6" y="-29.6" transform="matrix(0.7071 -0.7071 0.7071 0.7071 26.8185 18.8296)" class="st1" width="13" height="13.3"/>
				<line class="st2" x1="29.5" y1="-16.5" x2="42.5" y2="-29.5"/>
			</g>
			<g>
				
					<rect x="16.6" y="-29.6" transform="matrix(0.7071 -0.7071 0.7071 0.7071 23.0108 9.6373)" class="st1" width="13" height="13.3"/>
				<line class="st2" x1="16.5" y1="-16.5" x2="29.5" y2="-29.5"/>
			</g>
			<g>
				
					<rect x="3.6" y="-29.6" transform="matrix(0.7071 -0.7071 0.7071 0.7071 19.2031 0.445)" class="st1" width="13" height="13.3"/>
				<line class="st2" x1="3.5" y1="-16.5" x2="16.5" y2="-29.5"/>
			</g>
			<g>
				
					<rect x="29.6" y="-16.6" transform="matrix(0.7071 -0.7071 0.7071 0.7071 17.6262 22.6373)" class="st1" width="13" height="13.3"/>
				<line class="st2" x1="29.5" y1="-3.5" x2="42.5" y2="-16.5"/>
			</g>
			<g>
				
					<rect x="16.6" y="-16.6" transform="matrix(0.7071 -0.7071 0.7071 0.7071 13.8185 13.4449)" class="st1" width="13" height="13.3"/>
				<line class="st2" x1="16.5" y1="-3.5" x2="29.5" y2="-16.5"/>
			</g>
			<g>
				
					<rect x="3.6" y="-16.6" transform="matrix(0.7071 -0.7071 0.7071 0.7071 10.0109 4.2526)" class="st1" width="13" height="13.3"/>
				<line class="st2" x1="3.5" y1="-3.5" x2="16.5" y2="-16.5"/>
			</g>
		</g>
	</g>
</pattern>
<pattern  y="871.3" width="13" height="13" patternUnits="userSpaceOnUse" id="SVGID_3_" viewBox="16.5 -29.5 13 13" style="overflow:visible;">
	<g>
		<rect x="16.5" y="-29.5" class="st0" width="13" height="13"/>
		<g>
			<rect x="16.5" y="-29.5" class="st0" width="13" height="13"/>
			<g>
				
					<rect x="29.6" y="-42.6" transform="matrix(0.7071 -0.7071 0.7071 0.7071 36.0108 15.022)" class="st1" width="13" height="13.3"/>
				<line class="st2" x1="29.5" y1="-29.5" x2="42.5" y2="-42.5"/>
			</g>
			<g>
				
					<rect x="16.6" y="-42.6" transform="matrix(0.7071 -0.7071 0.7071 0.7071 32.2031 5.8297)" class="st1" width="13" height="13.3"/>
				<line class="st2" x1="16.5" y1="-29.5" x2="29.5" y2="-42.5"/>
			</g>
			<g>
				
					<rect x="3.6" y="-42.6" transform="matrix(0.7071 -0.7071 0.7071 0.7071 28.3955 -3.3626)" class="st1" width="13" height="13.3"/>
				<line class="st2" x1="3.5" y1="-29.5" x2="16.5" y2="-42.5"/>
			</g>
			<g>
				
					<rect x="29.6" y="-29.6" transform="matrix(0.7071 -0.7071 0.7071 0.7071 26.8185 18.8296)" class="st1" width="13" height="13.3"/>
				<line class="st2" x1="29.5" y1="-16.5" x2="42.5" y2="-29.5"/>
			</g>
			<g>
				
					<rect x="16.6" y="-29.6" transform="matrix(0.7071 -0.7071 0.7071 0.7071 23.0108 9.6373)" class="st1" width="13" height="13.3"/>
				<line class="st2" x1="16.5" y1="-16.5" x2="29.5" y2="-29.5"/>
			</g>
			<g>
				
					<rect x="3.6" y="-29.6" transform="matrix(0.7071 -0.7071 0.7071 0.7071 19.2031 0.445)" class="st1" width="13" height="13.3"/>
				<line class="st2" x1="3.5" y1="-16.5" x2="16.5" y2="-29.5"/>
			</g>
			<g>
				
					<rect x="29.6" y="-16.6" transform="matrix(0.7071 -0.7071 0.7071 0.7071 17.6262 22.6373)" class="st1" width="13" height="13.3"/>
				<line class="st2" x1="29.5" y1="-3.5" x2="42.5" y2="-16.5"/>
			</g>
			<g>
				
					<rect x="16.6" y="-16.6" transform="matrix(0.7071 -0.7071 0.7071 0.7071 13.8185 13.4449)" class="st1" width="13" height="13.3"/>
				<line class="st2" x1="16.5" y1="-3.5" x2="29.5" y2="-16.5"/>
			</g>
			<g>
				
					<rect x="3.6" y="-16.6" transform="matrix(0.7071 -0.7071 0.7071 0.7071 10.0109 4.2526)" class="st1" width="13" height="13.3"/>
				<line class="st2" x1="3.5" y1="-3.5" x2="16.5" y2="-16.5"/>
			</g>
		</g>
	</g>
</pattern>
<g>
	<g>
		<rect x="791.8" y="495.8" width="5.8" height="9.7"/>
	</g>
	<line class="st3" x1="794.7" y1="491.6" x2="794.7" y2="497.1"/>
</g>
<g>
	<g>
		<rect x="791.9" y="504.9" width="5.8" height="9.7"/>
	</g>
	<line class="st3" x1="794.7" y1="518.8" x2="794.7" y2="513.3"/>
</g>
<path class="st4" d="M430.3,845.7H64.7V358.3c0,0,25.4-22.6,0-43.6s0-39,0-39V25.6h365.6v245.6c0,0-22.5,22.5,0,40.5s0,52.5,0,52.5
	V845.7z M345.6,521h-226v306.1h225.9V521H345.6z"/>
<rect x="768.4" y="399.7" class="st5" width="6.2" height="328.8"/>
<rect x="758" y="509.1" class="st5" width="10.2" height="278.8"/>
<rect x="120.6" y="153.8" class="st6" width="225.9" height="50"/>
<rect x="308.4" y="153.8" class="st6" width="38.1" height="684"/>
<rect x="749.9" y="153.9" class="st6" width="12.1" height="684"/>
<rect x="119.6" y="153.8" class="st6" width="38.1" height="684"/>
<rect x="141.1" y="341.2" class="st7" width="183.9" height="311.7"/>
<rect x="207.3" y="71.6" class="st6" width="51.4" height="125.2"/>
<rect x="762.4" y="71.6" class="st6" width="25.8" height="125.2"/>
<rect x="775" y="341.2" class="st7" width="13.2" height="311.7"/>
<g>
	<rect x="307.5" y="652.9" class="st8" width="17.5" height="134.9"/>
	<rect x="312.2" y="655.2" class="st5" width="8.2" height="130.3"/>
	<rect x="307.5" y="652.9" class="st8" width="17.5" height="79.2"/>
	<rect x="312.2" y="654.3" class="st5" width="8.2" height="76.5"/>
	<rect x="141.1" y="652.9" class="st8" width="17.5" height="134.9"/>
	<rect x="145.8" y="655.2" class="st5" width="8.2" height="130.3"/>
	<rect x="141.1" y="652.9" class="st8" width="17.5" height="79.2"/>
	<rect x="145.8" y="654.3" class="st5" width="8.2" height="76.5"/>
</g>
<rect x="495.5" y="343.2" class="st7" width="183.9" height="13.2"/>
<pattern  id="SVGID_2_" xlink:href="#SVGID_1_" patternTransform="matrix(1 0 0 -1 -14.5049 -16466.5)">
</pattern>
<polygon class="st9" points="231.2,509.1 231.2,188.2 234.9,188.2 234.9,509.1 "/>
<path class="st10" d="M220.9,159.8V86.3c0-1.5,1.3-2.8,2.8-2.8h18.8c1.5,0,2.8,1.3,2.8,2.8v73.5H220.9z"/>
<rect x="229.9" y="153.8" class="st11" width="6.4" height="12.5"/>
<polygon class="st12" points="223,158.8 223,110.3 243.1,110.3 243.1,158.8 "/>
<path d="M222,176.1l-2.5-9c-0.8-2.9,1.4-5.8,4.4-5.8h18.3c3,0,5.2,2.9,4.4,5.8l-2.5,9c0,5.3-0.3,15.2-5.6,15.2h-10.9
	C222.3,191.3,222,181.4,222,176.1z"/>
<pattern  id="SVGID_4_" xlink:href="#SVGID_3_" patternTransform="matrix(1 0 0 -1 9.465 -16466.5)">
</pattern>
<polygon class="st13" points="800.1,509.1 800.1,188.2 803.8,188.2 803.8,509.1 "/>
<path class="st10" d="M789.7,159.8V86.3c0-1.5,1.3-2.8,2.8-2.8h18.8c1.5,0,2.8,1.3,2.8,2.8v73.5H789.7z"/>
<rect x="798.8" y="153.9" class="st11" width="6.4" height="12.5"/>
<polygon class="st12" points="791.9,158.8 791.9,110.3 812,110.3 812,158.8 "/>
<path d="M790.9,176.1l-2.5-9c-0.8-2.9,1.4-5.8,4.4-5.8h18.3c3,0,5.2,2.9,4.4,5.8l-2.5,9c0,5.3-0.3,15.2-5.6,15.2h-10.9
	C791.2,191.3,790.9,181.4,790.9,176.1z"/>
<rect x="120.6" y="196.9" class="st14" width="225" height="7"/>
<rect x="120.5" y="157.9" class="st6" width="7" height="38.8"/>
<rect x="338.5" y="157.9" class="st6" width="7" height="38.8"/>
<rect x="120.5" y="509.7" class="st6" width="7" height="38.8"/>
<rect x="338.5" y="509.7" class="st6" width="7" height="38.8"/>
<polygon class="st6" points="762.4,157.8 789.4,196.7 762.4,196.7 "/>
<polygon class="st6" points="762.4,509.7 789.4,509.7 762.4,548.5 "/>
<rect x="762.1" y="196.8" class="st6" width="58.6" height="7"/>
<rect x="762" y="502.1" class="st6" width="58.6" height="7"/>
<g>
	<rect x="153.9" y="495.8" width="17.9" height="9.7"/>
	<path class="st3" d="M157.7,497.1c0,0,0.2-4.8,5.1-5.5c4.9-0.7,23.2-1.3,23.2-1.3"/>
</g>
<g>
	<rect x="198.5" y="504.1" width="17.9" height="9.7"/>
	<path class="st3" d="M212.6,512.5c0,0-0.2,4.8-5.1,5.5c-4.9,0.7-23.2,1.3-23.2,1.3"/>
</g>
<rect x="120.5" y="502.1" class="st6" width="225" height="7"/>
<rect x="227.4" y="341.2" class="st5" width="12" height="17.1"/>
<rect x="795.9" y="341.2" class="st15" width="12" height="17.1"/>
<rect x="211.4" y="345.5" class="st6" width="45.3" height="8.7"/>
<rect x="564.9" y="308.1" class="st6" width="45.3" height="35"/>
<rect x="788.1" y="345.5" class="st6" width="32.5" height="8.7"/>
<rect x="731.6" y="25.6" class="st4" width="18.3" height="820.1"/>
<circle class="st16" cx="179.6" cy="364.7" r="2.4"/>
<circle class="st16" cx="189.6" cy="643.9" r="2.4"/>
<rect x="789" y="362.2" class="st16" width="10.1" height="4.1"/>
<rect x="789" y="641.8" class="st16" width="10.1" height="4.1"/>
<g>
	<g>
		<line class="st3" x1="288.2" y1="315.4" x2="288.2" y2="317.4"/>
		<line class="st17" x1="288.2" y1="321.2" x2="288.2" y2="380.3"/>
		<line class="st3" x1="288.2" y1="382.2" x2="288.2" y2="384.2"/>
		<g>
			<path d="M288.2,308.2c-1.3,3.4-3.4,7.6-5.7,10.3l5.7-2.1l5.7,2.1C291.6,315.8,289.5,311.6,288.2,308.2z"/>
		</g>
		<g>
			<path d="M288.2,391.5c-1.3-3.4-3.4-7.6-5.7-10.3l5.7,2.1l5.7-2.1C291.6,383.9,289.5,388.1,288.2,391.5z"/>
		</g>
	</g>
</g>
<g>
	<g>
		<rect x="661.9" y="537.4" class="st8" width="17.5" height="10.7"/>
		<rect x="666.6" y="537.6" class="st5" width="8.2" height="10.4"/>
		<rect x="661.9" y="537.4" class="st8" width="17.5" height="6.3"/>
		<rect x="666.6" y="537.5" class="st5" width="8.2" height="6.1"/>
		<rect x="495.5" y="537.4" class="st8" width="17.5" height="10.7"/>
		<rect x="500.2" y="537.6" class="st5" width="8.2" height="10.4"/>
		<rect x="495.5" y="537.4" class="st8" width="17.5" height="6.3"/>
		<rect x="500.2" y="537.5" class="st5" width="8.2" height="6.1"/>
	</g>
	<rect x="495.5" y="524.2" class="st7" width="183.9" height="13.2"/>
	<rect x="533.2" y="513.8" class="st16" width="4.1" height="10.1"/>
	<polygon class="st6" points="475,489.6 475,548.2 492.5,548.2 492.5,515.7 682.5,515.7 682.5,548.2 700,548.2 700,489.6 	"/>
	
		<ellipse transform="matrix(0.1602 -0.9871 0.9871 0.1602 -2.4738 1001.8679)" class="st18" cx="587.5" cy="502.4" rx="7.3" ry="7.3"/>
	<g>
		<g>
			<rect x="509.5" y="516" width="17.1" height="5.8"/>
		</g>
		<line class="st3" x1="541.7" y1="517.6" x2="525.4" y2="517.6"/>
	</g>
	<g>
		<g>
			<rect x="554.1" y="516" width="17.1" height="5.8"/>
		</g>
		<line class="st3" x1="555.9" y1="520.2" x2="539.5" y2="520.2"/>
	</g>
	<g>
		<rect x="475" y="509" class="st6" width="7" height="38.8"/>
		<rect x="693" y="509" class="st6" width="7" height="38.8"/>
	</g>
	<rect x="543.7" y="513.8" class="st16" width="4.1" height="10.1"/>
</g>
<polygon class="st19" points="591,316.4 583.9,316.4 580.4,322.4 583.9,328.5 591,328.5 594.5,322.4 "/>
<rect x="120.6" y="787.8" class="st6" width="225.9" height="50"/>
<rect x="763.2" y="787.8" class="st6" width="8.4" height="50"/>
<text transform="matrix(1 0 0 1 599.7278 289.0184)" class="st20 st21">Lead screw nut</text>
<g>
	<g>
		<path class="st22" d="M600.5,293c0.2,7.9-8.5,10.4-10.5,18.6"/>
		<g>
			<path d="M589.6,315.2c-0.4-1.8-1.2-4-2.2-5.5l2.7,1.4l3-0.7C591.8,311.7,590.4,313.6,589.6,315.2z"/>
		</g>
	</g>
</g>
<text transform="matrix(1 0 0 1 263.3818 108.5361)" class="st20 st21">Motor</text>
<g>
	<g>
		<path class="st22" d="M264.2,112.5c0.3,8.1-2.6,19.8-13.8,21.9"/>
		<g>
			<path d="M246.8,134.8c1.6-0.8,3.6-2.1,4.8-3.4l-0.7,2.9l1.3,2.7C250.8,136.1,248.5,135.2,246.8,134.8z"/>
		</g>
	</g>
</g>
<text transform="matrix(1 0 0 1 832.3029 108.5361)" class="st20 st21">Motor</text>
<g>
	<g>
		<path class="st22" d="M833.1,112.5c0.3,8.1-2.6,19.8-13.8,21.9"/>
		<g>
			<path d="M815.7,134.8c1.6-0.8,3.6-2.1,4.8-3.4l-0.7,2.9l1.3,2.7C819.7,136.1,817.5,135.2,815.7,134.8z"/>
		</g>
	</g>
</g>
<text transform="matrix(1 0 0 1 832.3029 59.776)" class="st20 st21">Housing</text>
<g>
	<g>
		<path class="st22" d="M833.1,63.8c0.3,8.1-2.6,19.8-13.8,21.9"/>
		<g>
			<path d="M815.7,86c1.6-0.8,3.6-2.1,4.8-3.4l-0.7,2.9l1.3,2.7C819.7,87.3,817.5,86.5,815.7,86z"/>
		</g>
	</g>
</g>
<text transform="matrix(1 0 0 1 262.5608 59.776)" class="st20 st21">Housing</text>
<g>
	<g>
		<path class="st22" d="M263.4,63.8c0.3,8.1-2.6,19.8-13.8,21.9"/>
		<g>
			<path d="M246,86c1.6-0.8,3.6-2.1,4.8-3.4l-0.7,2.9l1.3,2.7C249.9,87.3,247.7,86.5,246,86z"/>
		</g>
	</g>
</g>
<text transform="matrix(1 0 0 1 363.0497 157.7998)" class="st20 st21">Brace</text>
<g>
	<g>
		<path class="st22" d="M363.9,161.8c0.3,8.1-2.6,19.8-13.8,21.9"/>
		<g>
			<path d="M346.5,184c1.6-0.8,3.6-2.1,4.8-3.4l-0.7,2.9l1.3,2.7C350.4,185.3,348.2,184.5,346.5,184z"/>
		</g>
	</g>
</g>
<text transform="matrix(1 0 0 1 363.0497 502.9362)" class="st20 st21">Brace</text>
<g>
	<g>
		<path class="st22" d="M363.9,506.9c0.3,8.1-2.6,19.8-13.8,21.9"/>
		<g>
			<path d="M346.5,529.2c1.6-0.8,3.6-2.1,4.8-3.4l-0.7,2.9l1.3,2.7C350.4,530.5,348.2,529.6,346.5,529.2z"/>
		</g>
	</g>
</g>
<text transform="matrix(1 0 0 1 713.4282 157.7998)" class="st20 st21">Brace</text>
<g>
	<g>
		<path class="st22" d="M724,161.8c-0.7,8.6,8.1,21.4,43.9,22.2"/>
		<g>
			<path d="M771.6,184c-1.7,0.6-3.9,1.6-5.2,2.7l1.1-2.8l-1-2.9C767.8,182.2,769.9,183.4,771.6,184z"/>
		</g>
	</g>
</g>
<text transform="matrix(1 0 0 1 713.4282 492.9362)" class="st20 st21">Brace</text>
<g>
	<g>
		<path class="st22" d="M724,496.9c-0.7,8.6,8.1,21.4,43.9,22.2"/>
		<g>
			<path d="M771.6,519.2c-1.7,0.6-3.9,1.6-5.2,2.7l1.1-2.8l-1-2.9C767.8,517.4,769.9,518.5,771.6,519.2z"/>
		</g>
	</g>
</g>
<text transform="matrix(1 0 0 1 436.524 502.9362)" class="st20 st21">Brace</text>
<g>
	<g>
		<path class="st22" d="M447.1,506.9c-0.4,8.4,4.5,20.8,24.2,22.1"/>
		<g>
			<path d="M475,529.2c-1.7,0.6-3.9,1.6-5.2,2.7l1.1-2.8l-0.9-2.9C471.2,527.3,473.3,528.5,475,529.2z"/>
		</g>
	</g>
</g>
<text transform="matrix(1 0 0 1 832.3029 148.1862)" class="st20 st21">Chuck</text>
<g>
	<g>
		<path class="st22" d="M833.1,152.2c0.3,8.1-2.6,19.8-13.8,21.9"/>
		<g>
			<path d="M815.7,174.4c1.6-0.8,3.6-2.1,4.8-3.4l-0.7,2.9l1.3,2.7C819.7,175.7,817.5,174.9,815.7,174.4z"/>
		</g>
	</g>
</g>
<text transform="matrix(1 0 0 1 264.3818 148.1862)" class="st20 st21">Chuck</text>
<g>
	<g>
		<path class="st22" d="M265.2,152.2c0.3,8.1-2.6,19.8-13.8,21.9"/>
		<g>
			<path d="M247.8,174.4c1.6-0.8,3.6-2.1,4.8-3.4l-0.7,2.9l1.3,2.7C251.8,175.7,249.5,174.9,247.8,174.4z"/>
		</g>
	</g>
</g>
<text transform="matrix(1 0 0 1 823.5939 260.9762)" class="st20 st21">Lead screw</text>
<g>
	<g>
		<path class="st22" d="M824.4,265c0.3,8.1-2.6,19.8-13.8,21.9"/>
		<g>
			<path d="M807,287.2c1.6-0.8,3.6-2.1,4.8-3.4l-0.7,2.9l1.3,2.7C811,288.5,808.8,287.7,807,287.2z"/>
		</g>
	</g>
</g>
<text transform="matrix(1 0 0 1 254.6729 237.4103)" class="st20 st21">Lead screw</text>
<g>
	<g>
		<path class="st22" d="M255.5,241.4c0.3,8.1-2.6,19.8-13.8,21.9"/>
		<g>
			<path d="M238.1,263.6c1.6-0.8,3.6-2.1,4.8-3.4l-0.7,2.9l1.3,2.7C242.1,264.9,239.8,264.1,238.1,263.6z"/>
		</g>
	</g>
</g>
<text transform="matrix(1 0 0 1 354.3516 705.88)" class="st20 st21">Drawer slide</text>
<text transform="matrix(1 0 0 1 513.0015 581.2811)" class="st20 st21">Drawer slide</text>
<text transform="matrix(1 0 0 1 65.0015 899.2811)" class="st20 st23">Chook Robot</text>
<text transform="matrix(1 0 0 1 368.1094 899.2811)" class="st20 st24">http://blob.pureandapplied.com.au/chookrobot</text>
<g>
	<g>
		<path class="st22" d="M355.2,709.9c0.3,8.1-11.3,20-24.1,21.9"/>
		<g>
			<path d="M327.4,732.1c1.6-0.8,3.6-2.1,4.8-3.3l-0.8,2.9l1.3,2.7C331.4,733.5,329.2,732.6,327.4,732.1z"/>
		</g>
	</g>
</g>
<text transform="matrix(1 0 0 1 796.9131 705.88)" class="st20 st21">Drawer slide</text>
<g>
	<g>
		<path class="st22" d="M797.7,709.9c0.3,8.1-11.3,20-24.1,21.9"/>
		<g>
			<path d="M770,732.1c1.6-0.8,3.6-2.1,4.8-3.3l-0.8,2.9l1.3,2.7C773.9,733.5,771.7,732.6,770,732.1z"/>
		</g>
	</g>
</g>
<text transform="matrix(1 0 0 1 597.6764 471.4565)" class="st20 st21">Bearing</text>
<g>
	<g>
		<path class="st22" d="M598.5,475.5c0.2,7.9-8.5,10.4-10.5,18.6"/>
		<g>
			<path d="M587.5,497.7c-0.4-1.8-1.2-4-2.2-5.5l2.7,1.4l3-0.7C589.7,494.1,588.4,496.1,587.5,497.7z"/>
		</g>
	</g>
</g>
<text transform="matrix(1 0 0 1 488.3511 475.4604)" class="st20 st21">Switches</text>
<g>
	<g>
		<path class="st22" d="M495.5,479.5c-0.7,10.6,25.8,13.8,30.4,25.4"/>
		<g>
			<path d="M526.6,508.5c-1-1.5-2.5-3.4-3.8-4.4l3,0.4l2.6-1.6C527.5,504.4,526.9,506.7,526.6,508.5z"/>
		</g>
	</g>
</g>
<text transform="matrix(1 0 0 1 816.7028 474.8762)" class="st20 st21">Bearing</text>
<g>
	<g>
		<path class="st22" d="M817.5,478.9c0.2,7.9-8.5,10.4-10.5,18.6"/>
		<g>
			<path d="M806.6,501.1c-0.4-1.8-1.2-4-2.2-5.5l2.7,1.4l3-0.7C808.8,497.5,807.4,499.5,806.6,501.1z"/>
		</g>
	</g>
</g>
<text transform="matrix(1 0 0 1 199.7555 612.7841)" class="st20 st21">trigger for switch</text>
<text transform="matrix(1 0 0 1 177.2193 401.4998)"><tspan x="0" y="0" class="st20 st21">Trigger</tspan><tspan x="0" y="14.4" class="st20 st21">for switch</tspan></text>
<g>
	<g>
		<path class="st22" d="M200.6,616.8c0.2,7.9-8.5,10.4-10.5,18.6"/>
		<g>
			<path d="M189.6,639c-0.4-1.8-1.2-4-2.2-5.5l2.7,1.4l3-0.7C191.8,635.5,190.5,637.4,189.6,639z"/>
		</g>
	</g>
</g>
<text transform="matrix(1 0 0 1 803.8028 612.7841)" class="st20 st21">trigger for switch</text>
<g>
	<g>
		<path class="st22" d="M804.6,616.8c0.2,7.9-8.5,10.4-10.5,18.6"/>
		<g>
			<path d="M793.7,639c-0.4-1.8-1.2-4-2.2-5.5l2.7,1.4l3-0.7C795.9,635.5,794.5,637.4,793.7,639z"/>
		</g>
	</g>
</g>
<text transform="matrix(1 0 0 1 181.8818 461.7622)" class="st20 st21">Door down switch</text>
<g>
	<g>
		<path class="st22" d="M182.7,465.8c0.2,7.9-8.5,10.4-10.5,18.6"/>
		<g>
			<path d="M171.7,488c-0.4-1.8-1.2-4-2.2-5.5l2.7,1.4l3-0.7C173.9,484.4,172.6,486.4,171.7,488z"/>
		</g>
	</g>
</g>
<text transform="matrix(1 0 0 1 196.6818 550.986)" class="st20 st21">Door up switch</text>
<g>
	<g>
		<path class="st22" d="M204.3,541c0.3-6-8.4-8.1-11-14.2"/>
		<g>
			<path d="M192.6,523.2c1,1.5,2.5,3.3,3.9,4.4l-3-0.4l-2.6,1.6C191.8,527.3,192.4,525,192.6,523.2z"/>
		</g>
	</g>
</g>
<text transform="matrix(1 0 0 1 800.1528 548.1863)" class="st20 st21">Switches</text>
<g>
	<g>
		<path class="st22" d="M807.8,538.2c0.3-6-8.4-8.1-11-14.2"/>
		<g>
			<path d="M796.1,520.4c1,1.5,2.5,3.3,3.9,4.4l-3-0.4l-2.5,1.6C795.3,524.5,795.8,522.2,796.1,520.4z"/>
		</g>
	</g>
</g>
<g>
	<g>
		<path class="st22" d="M191.9,387.4c0.3-6-8.4-8.1-11-14.2"/>
		<g>
			<path d="M180.1,369.7c1,1.5,2.5,3.3,3.9,4.4l-3-0.4l-2.6,1.6C179.3,373.8,179.9,371.5,180.1,369.7z"/>
		</g>
	</g>
</g>
<text transform="matrix(1 0 0 1 595.8889 561.6935)" class="st20 st21">Door</text>
<g>
	<g>
		<path class="st22" d="M603.5,551.7c0.3-6-8.4-8.1-11-14.2"/>
		<g>
			<path d="M591.8,534c1,1.5,2.5,3.3,3.9,4.4l-3-0.4l-2.6,1.6C591,538.1,591.6,535.8,591.8,534z"/>
		</g>
	</g>
</g>
<g>
	<g>
		<path class="st22" d="M517.2,570.5c0.3-6-8.4-8.1-11-14.2"/>
		<g>
			<path d="M505.4,552.8c1,1.5,2.5,3.3,3.9,4.4l-3-0.4l-2.6,1.6C504.6,556.9,505.2,554.6,505.4,552.8z"/>
		</g>
	</g>
</g>
<text transform="matrix(1 0 0 1 823.5941 231.6694)" class="st20 st21">Bearing</text>
<g>
	<g>
		<path class="st22" d="M820.7,231.7c-8.8,0-13.3-14.5-14.3-24.1"/>
		<g>
			<path d="M806.2,203.9c0.7,1.7,1.9,3.7,3.2,4.9l-2.9-0.9l-2.8,1.2C804.7,207.8,805.6,205.7,806.2,203.9z"/>
		</g>
	</g>
</g>
<text transform="matrix(1 0 0 1 595.8889 378.5704)" class="st20 st21">Door</text>
<g>
	<g>
		<path class="st22" d="M603.5,368.5c0.3-6-8.4-8.1-11-14.2"/>
		<g>
			<path d="M591.8,350.8c1,1.5,2.5,3.3,3.9,4.4l-3-0.4l-2.6,1.6C591,354.9,591.6,352.6,591.8,350.8z"/>
		</g>
	</g>
</g>
<text transform="matrix(1 0 0 1 786.3195 680.5662)" class="st20 st21">Door</text>
<g>
	<g>
		<path class="st22" d="M794,670.5c0.3-6-8.4-8.1-11-14.2"/>
		<g>
			<path d="M782.2,652.8c1,1.5,2.5,3.3,3.9,4.4l-3-0.4l-2.6,1.6C781.4,656.9,782,654.6,782.2,652.8z"/>
		</g>
	</g>
</g>
<text transform="matrix(1 0 0 1 230.8318 680.5662)" class="st20 st21">Door</text>
<g>
	<g>
		<path class="st22" d="M238.5,670.5c0.3-6-8.4-8.1-11-14.2"/>
		<g>
			<path d="M226.7,652.8c1,1.5,2.5,3.3,3.9,4.4l-3-0.4l-2.6,1.6C225.9,656.9,226.5,654.6,226.7,652.8z"/>
		</g>
	</g>
</g>
<text transform="matrix(1 0 0 1 818.8027 312.507)" class="st20 st21">Lead screw nut</text>
<g>
	<g>
		<path class="st22" d="M819.6,316.5c0.2,7.9-8.5,10.4-10.5,18.6"/>
		<g>
			<path d="M808.7,338.7c-0.4-1.8-1.2-4-2.2-5.5l2.7,1.4l3-0.7C810.9,335.2,809.5,337.1,808.7,338.7z"/>
		</g>
	</g>
</g>
</svg>
