<?xml version="1.0" encoding="utf-8"?>
<!-- Generator: Adobe Illustrator 22.0.1, SVG Export Plug-In . SVG Version: 6.00 Build 0)  -->
<svg version="1.1" id="Layer_1" xmlns="http://www.w3.org/2000/svg" xmlns:xlink="http://www.w3.org/1999/xlink" x="0px" y="0px"
	 viewBox="0 0 841.9 841.3" style="enable-background:new 0 0 841.9 841.3;" xml:space="preserve">
<style type="text/css">
	.st0{fill:none;}
	.st1{fill:#FFFFFF;}
	.st2{fill:none;stroke:#000000;stroke-width:5;stroke-linecap:square;stroke-miterlimit:10;}
	.st3{fill:none;stroke:#000000;stroke-width:2;stroke-miterlimit:10;}
	.st4{fill:#C9C9B3;}
	.st5{fill:#B6B8BA;stroke:#000000;stroke-width:1.343;stroke-miterlimit:10;}
	.st6{fill:#C59952;stroke:#000000;stroke-width:1.4068;stroke-miterlimit:10;}
	.st7{fill:#C9CACC;stroke:#000000;stroke-width:1.343;stroke-miterlimit:10;}
	.st8{fill:#ECCE9D;stroke:#000000;stroke-width:1.4068;stroke-miterlimit:10;}
	.st9{fill:url(#SVGID_1_);stroke:#000000;stroke-width:1.2616;stroke-miterlimit:10;}
	.st10{fill:#D5D7D8;stroke:#8F9194;stroke-width:2;stroke-miterlimit:10;}
	.st11{fill:#5A5B5D;}
	.st12{fill:url(#SVGID_2_);stroke:#000000;stroke-width:0.5;stroke-miterlimit:10;}
	.st13{fill:url(#SVGID_3_);stroke:#000000;stroke-width:1.2616;stroke-miterlimit:10;}
	.st14{fill:url(#SVGID_4_);stroke:#000000;stroke-width:0.5;stroke-miterlimit:10;}
	.st15{fill:#C59952;stroke:#000000;stroke-miterlimit:10;}
	.st16{fill:#CC6829;}
	.st17{fill:#F04D23;}
	.st18{fill:#FFFFFF;stroke:#000000;stroke-miterlimit:10;}
	.st19{fill:none;stroke:#000000;stroke-width:2;stroke-miterlimit:10;stroke-dasharray:3.8146,3.8146;}
	.st20{stroke:#808285;stroke-width:7;stroke-miterlimit:10;}
	.st21{stroke:#CC6829;stroke-width:5;stroke-miterlimit:10;}
</style>
<pattern  y="123" width="13" height="13" patternUnits="userSpaceOnUse" id="diagonal_stripe" viewBox="16.5 -29.5 13 13" style="overflow:visible;">
	<g>
		<rect x="16.5" y="-29.5" class="st0" width="13" height="13"/>
		<g>
			
				<rect x="29.6" y="-16.7" transform="matrix(0.7071 -0.7071 0.7071 0.7071 17.683 22.555)" class="st1" width="13" height="13.3"/>
			<line class="st2" x1="29.5" y1="-16.5" x2="42.5" y2="-3.5"/>
		</g>
		<g>
			
				<rect x="16.6" y="-16.7" transform="matrix(0.7071 -0.7071 0.7071 0.7071 13.8754 13.3626)" class="st1" width="13" height="13.3"/>
			<line class="st2" x1="16.5" y1="-16.5" x2="29.5" y2="-3.5"/>
		</g>
		<g>
			
				<rect x="3.6" y="-16.7" transform="matrix(0.7071 -0.7071 0.7071 0.7071 10.0678 4.1702)" class="st1" width="13" height="13.3"/>
			<line class="st2" x1="3.5" y1="-16.5" x2="16.5" y2="-3.5"/>
		</g>
		<g>
			
				<rect x="29.6" y="-29.7" transform="matrix(0.7071 -0.7071 0.7071 0.7071 26.8754 18.7474)" class="st1" width="13" height="13.3"/>
			<line class="st2" x1="29.5" y1="-29.5" x2="42.5" y2="-16.5"/>
		</g>
		<g>
			
				<rect x="16.6" y="-29.7" transform="matrix(0.7071 -0.7071 0.7071 0.7071 23.0678 9.555)" class="st1" width="13" height="13.3"/>
			<line class="st2" x1="16.5" y1="-29.5" x2="29.5" y2="-16.5"/>
		</g>
		<g>
			
				<rect x="3.6" y="-29.7" transform="matrix(0.7071 -0.7071 0.7071 0.7071 19.2601 0.3626)" class="st1" width="13" height="13.3"/>
			<line class="st2" x1="3.5" y1="-29.5" x2="16.5" y2="-16.5"/>
		</g>
		<g>
			
				<rect x="29.6" y="-42.7" transform="matrix(0.7071 -0.7071 0.7071 0.7071 36.0678 14.9398)" class="st1" width="13" height="13.3"/>
			<line class="st2" x1="29.5" y1="-42.5" x2="42.5" y2="-29.5"/>
		</g>
		<g>
			
				<rect x="16.6" y="-42.7" transform="matrix(0.7071 -0.7071 0.7071 0.7071 32.2601 5.7474)" class="st1" width="13" height="13.3"/>
			<line class="st2" x1="16.5" y1="-42.5" x2="29.5" y2="-29.5"/>
		</g>
		<g>
			
				<rect x="3.6" y="-42.7" transform="matrix(0.7071 -0.7071 0.7071 0.7071 28.4525 -3.445)" class="st1" width="13" height="13.3"/>
			<line class="st2" x1="3.5" y1="-42.5" x2="16.5" y2="-29.5"/>
		</g>
	</g>
</pattern>
<g>
	<g>
		<rect x="716.2" y="470.2" width="5.8" height="9.7"/>
	</g>
	<line class="st3" x1="719.1" y1="466" x2="719.1" y2="471.5"/>
</g>
<g>
	<g>
		<rect x="716.2" y="479.2" transform="matrix(-1 -1.224647e-16 1.224647e-16 -1 1438.283 968.2156)" width="5.8" height="9.7"/>
	</g>
	<line class="st3" x1="719.1" y1="493.2" x2="719.1" y2="487.7"/>
</g>
<path class="st4" d="M464.6,820.1H49V332.7c0,0,25.4-22.6,0-43.6s0-39,0-39V0h415.6v245.6c0,0-22.5,22.5,0,40.5
	c22.5,18,0,52.5,0,52.5V820.1z M359.9,495.4H133.9v306.1h225.9V495.4z"/>
<rect x="692.8" y="374.1" class="st5" width="6.2" height="328.8"/>
<rect x="682.4" y="483.5" class="st5" width="10.2" height="278.8"/>
<rect x="222.8" y="40.3" transform="matrix(-1.836970e-16 1 -1 -1.836970e-16 401.0366 -94.5876)" class="st6" width="50" height="225.9"/>
<rect x="-0.3" y="451.2" transform="matrix(-1.836970e-16 1 -1 -1.836970e-16 811.9444 128.5046)" class="st6" width="684" height="38.1"/>
<rect x="338.4" y="464.2" transform="matrix(-1.836970e-16 1 -1 -1.836970e-16 1150.5918 -210.1428)" class="st6" width="684" height="12.1"/>
<rect x="-189" y="451.2" transform="matrix(-1.836970e-16 1 -1 -1.836970e-16 623.2094 317.2396)" class="st6" width="684" height="38.1"/>
<g>
	
		<rect x="589.7" y="438.7" transform="matrix(-1.836970e-16 1 -1 -1.836970e-16 1042.4647 -147.6519)" class="st7" width="10.7" height="17.5"/>
	
		<rect x="589.9" y="443.3" transform="matrix(-1.836970e-16 1 -1 -1.836970e-16 1042.4647 -147.6519)" class="st5" width="10.4" height="8.2"/>
	
		<rect x="591.9" y="436.5" transform="matrix(-1.836970e-16 1 -1 -1.836970e-16 1040.2532 -149.8634)" class="st7" width="6.3" height="17.5"/>
	
		<rect x="592" y="441.1" transform="matrix(-1.836970e-16 1 -1 -1.836970e-16 1040.2532 -149.8634)" class="st5" width="6.1" height="8.2"/>
	
		<rect x="423.3" y="438.7" transform="matrix(-1.836970e-16 1 -1 -1.836970e-16 876.0612 18.7517)" class="st7" width="10.7" height="17.5"/>
	
		<rect x="423.5" y="443.3" transform="matrix(-1.836970e-16 1 -1 -1.836970e-16 876.0612 18.7517)" class="st5" width="10.4" height="8.2"/>
	
		<rect x="425.5" y="436.5" transform="matrix(-1.836970e-16 1 -1 -1.836970e-16 873.8497 16.5401)" class="st7" width="6.3" height="17.5"/>
	
		<rect x="425.6" y="441.1" transform="matrix(-1.836970e-16 1 -1 -1.836970e-16 873.8497 16.5401)" class="st5" width="6.1" height="8.2"/>
</g>
<rect x="91.5" y="379.5" transform="matrix(-1.836970e-16 1 -1 -1.836970e-16 718.8223 224.1175)" class="st8" width="311.7" height="183.9"/>
<rect x="221.6" y="46" class="st6" width="51.4" height="125.2"/>
<rect x="686.8" y="46" class="st6" width="25.8" height="125.2"/>
<rect x="550" y="464.8" transform="matrix(-1.836970e-16 1 -1 -1.836970e-16 1177.349 -234.4091)" class="st8" width="311.7" height="13.2"/>
<rect x="419.9" y="428.8" class="st8" width="183.9" height="13.2"/>
<g>
	
		<rect x="263.1" y="686.1" transform="matrix(-1.836970e-16 1 -1 -1.836970e-16 1025.3384 364.2326)" class="st7" width="134.9" height="17.5"/>
	
		<rect x="265.4" y="690.7" transform="matrix(-1.836970e-16 1 -1 -1.836970e-16 1025.3384 364.2326)" class="st5" width="130.3" height="8.2"/>
	
		<rect x="290.9" y="658.2" transform="matrix(-1.836970e-16 1 -1 -1.836970e-16 997.5136 336.4079)" class="st7" width="79.2" height="17.5"/>
	
		<rect x="292.3" y="662.8" transform="matrix(-1.836970e-16 1 -1 -1.836970e-16 997.5136 336.4079)" class="st5" width="76.5" height="8.2"/>
	
		<rect x="96.7" y="686.1" transform="matrix(-1.836970e-16 1 -1 -1.836970e-16 858.9349 530.6361)" class="st7" width="134.9" height="17.5"/>
	
		<rect x="99" y="690.7" transform="matrix(-1.836970e-16 1 -1 -1.836970e-16 858.9349 530.6361)" class="st5" width="130.3" height="8.2"/>
	
		<rect x="124.5" y="658.2" transform="matrix(-1.836970e-16 1 -1 -1.836970e-16 831.1101 502.8114)" class="st7" width="79.2" height="17.5"/>
	
		<rect x="125.9" y="662.8" transform="matrix(-1.836970e-16 1 -1 -1.836970e-16 831.1101 502.8114)" class="st5" width="76.5" height="8.2"/>
</g>
<rect x="419.9" y="317.6" class="st8" width="183.9" height="13.2"/>
<pattern  id="SVGID_1_" xlink:href="#diagonal_stripe" patternTransform="matrix(1 0 0 1 7.9951 0)">
</pattern>
<polygon class="st9" points="245.5,483.5 245.5,162.6 249.2,162.6 249.2,483.5 "/>
<path class="st10" d="M235.2,134.2V60.7c0-1.5,1.3-2.8,2.8-2.8h18.8c1.5,0,2.8,1.3,2.8,2.8v73.5H235.2z"/>
<rect x="241.1" y="131.3" transform="matrix(-1.836970e-16 1 -1 -1.836970e-16 381.8446 -112.8602)" class="st11" width="12.5" height="6.4"/>
<linearGradient id="SVGID_2_" gradientUnits="userSpaceOnUse" x1="237.2872" y1="108.9178" x2="257.4175" y2="108.9178">
	<stop  offset="0" style="stop-color:#FFFFFF"/>
	<stop  offset="1" style="stop-color:#000000"/>
</linearGradient>
<polygon class="st12" points="237.3,133.2 237.3,84.7 257.4,84.7 257.4,133.2 "/>
<path d="M236.3,150.5l-2.5-9c-0.8-2.9,1.4-5.8,4.4-5.8h18.3c3,0,5.2,2.9,4.4,5.8l-2.5,9c0,5.3-0.3,15.2-5.6,15.2h-10.9
	C236.6,165.7,236.3,155.8,236.3,150.5z"/>
<pattern  id="SVGID_3_" xlink:href="#diagonal_stripe" patternTransform="matrix(1 0 0 1 31.965 0)">
</pattern>
<polygon class="st13" points="724.5,483.5 724.5,162.6 728.2,162.6 728.2,483.5 "/>
<path class="st10" d="M714.1,134.2V60.7c0-1.5,1.3-2.8,2.8-2.8h18.8c1.5,0,2.8,1.3,2.8,2.8v73.5H714.1z"/>
<rect x="720.1" y="131.3" transform="matrix(-1.836970e-16 1 -1 -1.836970e-16 860.8146 -591.8302)" class="st11" width="12.5" height="6.4"/>
<linearGradient id="SVGID_4_" gradientUnits="userSpaceOnUse" x1="716.2573" y1="108.9178" x2="736.3875" y2="108.9178">
	<stop  offset="0" style="stop-color:#FFFFFF"/>
	<stop  offset="1" style="stop-color:#000000"/>
</linearGradient>
<polygon class="st14" points="716.3,133.2 716.3,84.7 736.4,84.7 736.4,133.2 "/>
<path d="M715.3,150.5l-2.5-9c-0.8-2.9,1.4-5.8,4.4-5.8h18.3c3,0,5.2,2.9,4.4,5.8l-2.5,9c0,5.3-0.3,15.2-5.6,15.2h-10.9
	C715.6,165.7,715.3,155.8,715.3,150.5z"/>
<rect x="243.9" y="62.2" transform="matrix(-1.836970e-16 1 -1 -1.836970e-16 422.0741 -72.6307)" class="st15" width="7" height="225"/>
<rect x="134.9" y="132.2" transform="matrix(-1 -1.224647e-16 1.224647e-16 -1 276.7048 303.3063)" class="st6" width="7" height="38.8"/>
<rect x="352.9" y="132.2" transform="matrix(-1 -1.224647e-16 1.224647e-16 -1 712.7048 303.3063)" class="st6" width="7" height="38.8"/>
<rect x="134.9" y="484.1" transform="matrix(-1 -1.224647e-16 1.224647e-16 -1 276.7048 1007.0282)" class="st6" width="7" height="38.8"/>
<rect x="352.9" y="484.1" transform="matrix(-1 -1.224647e-16 1.224647e-16 -1 712.7048 1007.0282)" class="st6" width="7" height="38.8"/>
<polygon class="st6" points="686.8,132.2 713.8,171.1 686.8,171.1 "/>
<polygon class="st6" points="686.8,484.1 713.8,484.1 686.8,522.9 "/>
<rect x="712.2" y="145.4" transform="matrix(-1.836970e-16 1 -1 -1.836970e-16 890.4292 -540.9857)" class="st6" width="7" height="58.6"/>
<rect x="712.2" y="450.7" transform="matrix(-1.836970e-16 1 -1 -1.836970e-16 1195.6775 -235.7374)" class="st6" width="7" height="58.6"/>
<g>
	<rect x="168.2" y="470.2" width="17.9" height="9.7"/>
	<path class="st3" d="M172,471.5c0,0,0.2-4.8,5.1-5.5c4.9-0.7,23.2-1.3,23.2-1.3"/>
</g>
<g>
	<rect x="212.8" y="478.4" transform="matrix(-1 -1.224647e-16 1.224647e-16 -1 443.5211 966.5698)" width="17.9" height="9.7"/>
	<path class="st3" d="M226.9,486.9c0,0-0.2,4.8-5.1,5.5s-23.2,1.3-23.2,1.3"/>
</g>
<rect x="243.9" y="367.5" transform="matrix(-1.836970e-16 1 -1 -1.836970e-16 727.3223 232.6175)" class="st6" width="7" height="225"/>
<rect x="241.7" y="315.6" class="st5" width="12" height="17.1"/>
<rect x="720.3" y="315.6" class="st16" width="12" height="17.1"/>
<rect x="244" y="301.6" transform="matrix(-1.836970e-16 1 -1 -1.836970e-16 572.5741 75.8693)" class="st6" width="8.7" height="45.3"/>
<rect x="494.3" y="277.4" transform="matrix(-1.836970e-16 1 -1 -1.836970e-16 811.934 -211.7791)" class="st6" width="35" height="45.3"/>
<rect x="724.4" y="308" transform="matrix(-1.836970e-16 1 -1 -1.836970e-16 1052.9667 -404.5233)" class="st6" width="8.7" height="32.5"/>
<rect x="656" class="st4" width="18.3" height="820.1"/>
<circle class="st17" cx="193.9" cy="339.1" r="2.4"/>
<circle class="st17" cx="203.9" cy="618.3" r="2.4"/>
<rect x="713.4" y="336.6" class="st18" width="10.1" height="4.1"/>
<rect x="713.4" y="616.2" class="st17" width="10.1" height="4.1"/>
<g>
	<g>
		<line class="st3" x1="280" y1="289.8" x2="280" y2="291.8"/>
		<line class="st19" x1="280" y1="295.6" x2="280" y2="354.7"/>
		<line class="st3" x1="280" y1="356.6" x2="280" y2="358.6"/>
		<g>
			<path d="M280,282.6c-1.3,3.4-3.4,7.6-5.7,10.3l5.7-2.1l5.7,2.1C283.4,290.2,281.3,286,280,282.6z"/>
		</g>
		<g>
			<path d="M280,365.9c-1.3-3.4-3.4-7.6-5.7-10.3l5.7,2.1l5.7-2.1C283.4,358.3,281.3,362.5,280,365.9z"/>
		</g>
	</g>
</g>
<rect x="454.5" y="421.4" transform="matrix(-1.836970e-16 1 -1 -1.836970e-16 883.0184 -36.0484)" class="st17" width="10.1" height="4.1"/>
<polygon class="st6" points="399.4,394.2 399.4,452.8 416.9,452.8 416.9,420.3 606.9,420.3 606.9,452.8 624.4,452.8 624.4,394.2 "/>
<circle class="st20" cx="511.9" cy="407" r="7.3"/>
<g>
	<g>
		<rect x="439.6" y="415" transform="matrix(-1.836970e-16 1 -1 -1.836970e-16 865.9716 -19.0015)" width="5.8" height="17.1"/>
	</g>
	<line class="st3" x1="466.1" y1="422.2" x2="449.8" y2="422.2"/>
</g>
<g>
	<g>
		<rect x="484.2" y="415" transform="matrix(-1.836970e-16 1 -1 -1.836970e-16 910.5981 -63.6281)" width="5.8" height="17.1"/>
	</g>
	<line class="st3" x1="480.3" y1="424.8" x2="463.9" y2="424.8"/>
</g>
<g>
	
		<rect x="399.4" y="413.6" transform="matrix(-1 -1.224647e-16 1.224647e-16 -1 805.7131 866.0355)" class="st6" width="7" height="38.8"/>
	
		<rect x="617.4" y="413.6" transform="matrix(-1 -1.224647e-16 1.224647e-16 -1 1241.713 866.0355)" class="st6" width="7" height="38.8"/>
</g>
<rect x="465" y="421.4" transform="matrix(-1.836970e-16 1 -1 -1.836970e-16 893.5184 -46.5484)" class="st17" width="10.1" height="4.1"/>
<polygon class="st21" points="515.4,290.8 508.3,290.8 504.8,296.8 508.3,302.9 515.4,302.9 518.9,296.8 "/>
<rect x="222.8" y="674.3" transform="matrix(-1.836970e-16 1 -1 -1.836970e-16 1035.0366 539.4124)" class="st6" width="50" height="225.9"/>
<rect x="666.7" y="783" transform="matrix(-1.836970e-16 1 -1 -1.836970e-16 1478.9296 95.5195)" class="st6" width="50" height="8.4"/>
</svg>
