<?xml version="1.0" encoding="utf-8"?>
<!-- Generator: Adobe Illustrator 22.0.1, SVG Export Plug-In . SVG Version: 6.00 Build 0)  -->
<svg version="1.1" xmlns="http://www.w3.org/2000/svg" xmlns:xlink="http://www.w3.org/1999/xlink" x="0px" y="0px"
	 viewBox="0 0 942.7 525.8" style="enable-background:new 0 0 942.7 525.8;" xml:space="preserve">
<style type="text/css">
	.st0{fill:none;stroke:#000000;stroke-miterlimit:10;}
	.st1{fill:none;stroke:#000000;stroke-width:0.75;stroke-miterlimit:10;}
	.st2{fill:none;stroke:#000000;stroke-width:0.7507;stroke-linecap:square;stroke-miterlimit:10;}
	.st3{fill:#F0F5FF;}
	.st4{fill:#C9C9C9;}
	.st5{fill:none;stroke:#000000;stroke-width:1.1261;stroke-linecap:round;stroke-miterlimit:10;}
	.st6{fill:none;stroke:#000000;stroke-width:0.75;stroke-linecap:round;stroke-miterlimit:10;}
	.st7{stroke:#000000;stroke-miterlimit:10;}
	.st8{fill:#FFFFFF;stroke:#000000;stroke-miterlimit:10;}
	.st9{fill:none;stroke:#000000;stroke-width:1.7867;stroke-linecap:round;stroke-linejoin:round;stroke-miterlimit:10;}
	.st10{fill:#FFFFFF;}
	.st11{fill:none;stroke:#000000;stroke-width:0.75;stroke-linecap:round;stroke-linejoin:round;stroke-miterlimit:10;}
	.st12{fill:none;stroke:#000000;stroke-width:1.6441;stroke-linecap:round;stroke-linejoin:round;stroke-miterlimit:10;}
	.st13{fill:none;stroke:#000000;stroke-width:0.75;stroke-linecap:square;stroke-miterlimit:10;}
	.st14{font-family:'ArialMT';}
	.st15{font-size:9.0086px;}
	.st16{font-size:10.51px;}
	.st17{fill:none;stroke:#000000;stroke-width:0.7507;stroke-linecap:round;stroke-miterlimit:10;}
	.st18{fill:none;stroke:#000000;stroke-width:0.563;stroke-linecap:round;stroke-linejoin:round;stroke-miterlimit:10;}
	.st19{fill:none;stroke:#000000;stroke-width:0.3754;stroke-miterlimit:10;}
	.st20{fill:none;stroke:#000000;stroke-width:0.9985;stroke-miterlimit:10;}
	.st21{fill:none;stroke:#000000;stroke-width:0.7507;stroke-linecap:square;stroke-miterlimit:10;stroke-dasharray:2,2;}
	.st22{fill:none;stroke:#000000;stroke-width:0.6756;stroke-linejoin:round;stroke-miterlimit:10;}
	.st23{fill:none;stroke:#000000;stroke-width:0.6756;stroke-linecap:square;stroke-linejoin:round;stroke-miterlimit:10;}
	.st24{opacity:0;fill:#DAE2F2;}
	.st25{fill:#F0F5FF;stroke:#000000;stroke-miterlimit:10;}
	.st26{fill:none;stroke:#000000;stroke-width:0.75;stroke-linecap:square;stroke-linejoin:round;stroke-miterlimit:10;}
	.st27{fill:none;stroke:#000000;stroke-width:0.563;stroke-linecap:round;stroke-miterlimit:10;}
	.st28{fill:none;stroke:#000000;stroke-width:0.7507;stroke-linecap:square;stroke-linejoin:round;stroke-miterlimit:10;}
	.st29{stroke:#000000;stroke-width:0.75;stroke-miterlimit:10;}
	.st30{fill:#65676B;}
</style>
<g id="Layer_1">
	<g>
		<g>
			<line class="st0" x1="842.5" y1="240.9" x2="846" y2="237.4"/>
			<g>
				<polygon points="846.8,239 847.7,235.7 844.5,236.6 				"/>
			</g>
		</g>
	</g>
	<g>
		<g>
			<line class="st0" x1="844.9" y1="243.3" x2="848.4" y2="239.8"/>
			<g>
				<polygon points="849.2,241.4 850.1,238.1 846.8,239 				"/>
			</g>
		</g>
	</g>
	<circle class="st0" cx="835.5" cy="250.8" r="9.8"/>
	<path class="st0" d="M918.8,158"/>
	<polyline class="st0" points="782.2,250.8 863.7,250.8 865.4,253.4 868.4,248.3 871.4,253.4 874.4,248.3 877.4,253.4 880.4,248.3 
		883.4,253.4 886.4,248.3 889.4,253.4 891.7,250.8 918.8,250.8 	"/>
	<line class="st1" x1="839.6" y1="245.6" x2="839.6" y2="256.1"/>
	<polygon points="840.6,250.8 831.5,245.6 831.5,256.1 	"/>
	<line class="st1" x1="727.4" y1="356.3" x2="727.4" y2="441.3"/>
	<path class="st2" d="M283.2,292.8"/>
	<polygon class="st3" points="551.7,422.5 391.8,423.1 391.8,218.9 551.7,218.3 	"/>
	<rect x="391.8" y="66.9" class="st3" width="159.9" height="140"/>
	<rect x="156.1" y="338.4" class="st4" width="63" height="51.3"/>
	<line class="st1" x1="214.6" y1="287.6" x2="214.6" y2="298.1"/>
	<rect x="186.9" y="339.7" width="1.5" height="1.5"/>
	<path class="st5" d="M174.5,347.6c7.5,0,7.5,0,7.5,0"/>
	<path class="st5" d="M178.3,343.8c0,7.5,0,7.5,0,7.5"/>
	<path class="st6" d="M174.1,354.3c27,0,27,0,27,0"/>
	<path class="st6" d="M180.9,359.9c13.5,0,13.5,0,13.5,0"/>
	<path class="st6" d="M174.1,366.3c27,0,27,0,27,0"/>
	<path class="st6" d="M180.9,371.9c13.5,0,13.5,0,13.5,0"/>
	<polygon points="215.6,292.8 206.5,287.6 206.5,298.1 	"/>
	<rect x="31.6" y="123.9" class="st4" width="63" height="51.3"/>
	<line class="st1" x1="90.1" y1="82.1" x2="90.1" y2="92.7"/>
	<circle class="st1" cx="126.9" cy="87.4" r="1.5"/>
	<circle class="st1" cx="126.9" cy="189.7" r="1.5"/>
	<circle class="st1" cx="409.7" cy="292.8" r="1.5"/>
	<circle class="st7" cx="370.8" cy="292.8" r="1.5"/>
	<circle class="st7" cx="727.4" cy="441.3" r="1.5"/>
	<circle class="st7" cx="283.2" cy="292.8" r="1.5"/>
	<g>
		<g>
			<g>
				<path class="st8" d="M473.8,231.1h56.8c3,0,5.4,2.4,5.4,5.4v122.9c0,3-2.4,5.4-5.4,5.4h-56.8c-3,0-5.4-2.4-5.4-5.4V236.5
					C468.4,233.5,470.8,231.1,473.8,231.1z"/>
				<path class="st8" d="M451,80.9h79.8c2.8,0,5.1,2.3,5.1,3.1v86.8c0,4.8-2.3,7.1-5.1,7.1H451c-2.8,0-5.1-2.3-5.1-5.1V86.1
					C445.9,83.2,448.2,80.9,451,80.9z"/>
				<rect x="443.1" y="326.8" width="1.5" height="1.5"/>
				<rect x="443.1" y="349.3" width="1.5" height="1.5"/>
				<path class="st9" d="M417.6,350.1c-0.8,0-1.5-1-1.5-2.2c0-1.2,0.7-2.3,1.5-2.3h0"/>
				<path class="st9" d="M417.6,341.1c-0.8,0-1.5-1-1.5-2.2c0-1.2,0.7-2.3,1.5-2.3h0"/>
				<path class="st9" d="M417.6,332.1c-0.8,0-1.5-1-1.5-2.2c0-1.2,0.7-2.3,1.5-2.3h0"/>
				<path class="st9" d="M427.4,336.6c0.8,0,1.5-1,1.5-2.2c0-1.2-0.7-2.3-1.5-2.3h0"/>
				<path class="st9" d="M427.4,345.6c0.8,0,1.5-1,1.5-2.2c0-1.2-0.7-2.3-1.5-2.3h0"/>
				<rect x="418.4" y="324.6" class="st10" width="8.3" height="29.3"/>
				<rect x="418.4" y="324.6" class="st11" width="8.3" height="29.3"/>
				<line class="st12" x1="427.4" y1="345.6" x2="417.6" y2="345.6"/>
				<line class="st12" x1="427.4" y1="336.6" x2="417.6" y2="336.6"/>
				<line class="st12" x1="427.4" y1="327.6" x2="417.6" y2="327.6"/>
				<line class="st13" x1="443.1" y1="327.6" x2="428.1" y2="327.6"/>
				<line class="st13" x1="443.1" y1="350.1" x2="428.1" y2="350.1"/>
				<text transform="matrix(-1 0 0 -1 442.7539 352.9099)" class="st14 st15">+</text>
				<text transform="matrix(-1 0 0 -1 442.3667 331.3386)" class="st14 st16">-</text>
				<path class="st17" d="M437.7,341.8c-8.1,0-5.9,0-5.9,0"/>
				<path d="M434.8,341.7c0,0,0,0,2.9-5.7c-5.8,0-5.8,0-5.8,0L434.8,341.7z"/>
				<path class="st18" d="M434.8,341.7c0,0,0,0,2.9-5.7c-5.8,0-5.8,0-5.8,0L434.8,341.7z"/>
				<rect x="434.5" y="327.4" width="0.5" height="22.8"/>
				<rect x="434.5" y="327.4" class="st19" width="0.5" height="22.8"/>
				<path class="st20" d="M433.9,327.6c0-0.6,0.4-1,1-1c0.6,0,1,0.4,1,1s-0.4,1-1,1C434.3,328.6,433.9,328.1,433.9,327.6z"/>
				<path class="st20" d="M433.9,350.1c0-0.6,0.4-1,1-1c0.6,0,1,0.4,1,1c0,0.6-0.4,1-1,1C434.3,351.1,433.9,350.6,433.9,350.1z"/>
				<rect x="435.6" y="326.8" width="1.5" height="1.5"/>
				<line class="st13" x1="437.1" y1="327.6" x2="467.6" y2="327.6"/>
				<rect x="435.6" y="349.3" width="1.5" height="1.5"/>
				<line class="st13" x1="437.1" y1="350.1" x2="467.6" y2="350.1"/>
				<line class="st21" x1="422.7" y1="354.3" x2="422.7" y2="376.7"/>
				<rect x="443.1" y="253.5" width="1.5" height="1.5"/>
				<rect x="443.1" y="276" width="1.5" height="1.5"/>
				<path d="M417.5,302.4c-0.1,0.1-1.5,1-3.1,2c-1.6,1-2.9,1.9-2.9,1.9c0,0,1.6,0,3.5-0.1c1.9,0,3.6-0.1,3.7-0.1l0.2,0l-0.6-1.9
					l-0.6-1.9L417.5,302.4z"/>
				<path class="st22" d="M417.5,302.4c-0.1,0.1-1.5,1-3.1,2c-1.6,1-2.9,1.9-2.9,1.9c0,0,1.6,0,3.5-0.1c1.9,0,3.6-0.1,3.7-0.1l0.2,0
					l-0.6-1.9l-0.6-1.9L417.5,302.4z"/>
				<circle class="st1" cx="434.5" cy="299.3" r="1.5"/>
				<circle class="st1" cx="409.7" cy="306.8" r="1.5"/>
				<polyline class="st13" points="407.5,306.8 344.3,306.8 344.3,379.7 				"/>
				<path d="M417.5,376.9c-0.1,0.1-1.5,1-3.1,2c-1.6,1-2.9,1.9-2.9,1.9c0,0,1.6,0,3.5-0.1c1.9,0,3.6-0.1,3.7-0.1l0.2,0l-0.6-1.9
					l-0.6-1.9L417.5,376.9z"/>
				<path class="st23" d="M417.5,376.9c-0.1,0.1-1.5,1-3.1,2c-1.6,1-2.9,1.9-2.9,1.9c0,0,1.6,0,3.5-0.1c1.9,0,3.6-0.1,3.7-0.1l0.2,0
					l-0.6-1.9l-0.6-1.9L417.5,376.9z"/>
				<circle class="st1" cx="434.5" cy="373.7" r="1.5"/>
				<circle class="st1" cx="409.7" cy="381.2" r="1.5"/>
				<path class="st1" d="M408.2,366.2c0-0.8,0.7-1.5,1.5-1.5c0.8,0,1.5,0.7,1.5,1.5c0,0.8-0.7,1.5-1.5,1.5
					C408.9,367.7,408.2,367,408.2,366.2z"/>
				<path class="st2" d="M422.1,375.9"/>
				<path class="st9" d="M417.6,276.7c-0.8,0-1.5-1-1.5-2.2c0-1.2,0.7-2.3,1.5-2.3h0"/>
				<path class="st9" d="M417.6,267.7c-0.8,0-1.5-1-1.5-2.2c0-1.2,0.7-2.3,1.5-2.3h0"/>
				<path class="st9" d="M417.6,258.7c-0.8,0-1.5-1-1.5-2.2c0-1.2,0.7-2.3,1.5-2.3h0"/>
				<path class="st9" d="M427.4,263.2c0.8,0,1.5-1,1.5-2.2c0-1.2-0.7-2.3-1.5-2.3h0"/>
				<path class="st9" d="M427.4,272.2c0.8,0,1.5-1,1.5-2.2c0-1.2-0.7-2.3-1.5-2.3h0"/>
				<rect x="418.4" y="251.2" class="st10" width="8.3" height="29.3"/>
				<rect x="418.4" y="251.2" class="st11" width="8.3" height="29.3"/>
				<line class="st12" x1="427.4" y1="272.2" x2="417.6" y2="272.2"/>
				<line class="st12" x1="427.4" y1="263.2" x2="417.6" y2="263.2"/>
				<line class="st12" x1="427.4" y1="254.2" x2="417.6" y2="254.2"/>
				<line class="st13" x1="443.1" y1="254.2" x2="428.1" y2="254.2"/>
				<line class="st13" x1="443.1" y1="276.7" x2="428.1" y2="276.7"/>
				<text transform="matrix(-1 0 0 -1 442.7539 279.5704)" class="st14 st15">+</text>
				<text transform="matrix(-1 0 0 -1 442.3667 257.9991)" class="st14 st16">-</text>
				<path class="st17" d="M437.7,268.5c-8.1,0-5.9,0-5.9,0"/>
				<path d="M434.8,268.3c0,0,0,0,2.9-5.7c-5.8,0-5.8,0-5.8,0L434.8,268.3z"/>
				<path class="st18" d="M434.8,268.3c0,0,0,0,2.9-5.7c-5.8,0-5.8,0-5.8,0L434.8,268.3z"/>
				<rect x="434.5" y="254.1" width="0.5" height="22.8"/>
				<rect x="434.5" y="254.1" class="st19" width="0.5" height="22.8"/>
				<path class="st20" d="M433.9,254.2c0-0.6,0.4-1,1-1c0.6,0,1,0.4,1,1s-0.4,1-1,1C434.3,255.2,433.9,254.8,433.9,254.2z"/>
				<path class="st20" d="M433.9,276.7c0-0.6,0.4-1,1-1c0.6,0,1,0.4,1,1s-0.4,1-1,1C434.3,277.7,433.9,277.3,433.9,276.7z"/>
				<line class="st6" x1="433.2" y1="374.3" x2="417.3" y2="379"/>
				<line class="st6" x1="433.1" y1="299.7" x2="417.5" y2="304.5"/>
				<rect x="435.6" y="253.5" width="1.5" height="1.5"/>
				<line class="st13" x1="437.1" y1="254.2" x2="467.6" y2="254.2"/>
				<rect x="435.6" y="276" width="1.5" height="1.5"/>
				<line class="st13" x1="437.1" y1="276.7" x2="467.6" y2="276.7"/>
				<line x1="536.7" y1="313.6" x2="550.2" y2="313.6"/>
				<line class="st13" x1="536.7" y1="313.6" x2="550.2" y2="313.6"/>
				<line x1="536.7" y1="246.1" x2="550.2" y2="246.1"/>
				<line class="st13" x1="536.7" y1="246.1" x2="671.1" y2="246.1"/>
				<path class="st1" d="M436.4,294.2"/>
				<path class="st1" d="M443.9,316.7"/>
				<rect x="415.1" y="95.2" width="1.5" height="1.5"/>
				<rect x="415.1" y="140.2" width="1.5" height="1.5"/>
				<circle class="st10" cx="415.8" cy="118.5" r="14.3"/>
				<circle class="st1" cx="415.8" cy="118.5" r="14.3"/>
				<line class="st13" x1="415.8" y1="96.7" x2="415.8" y2="103.4"/>
				<line class="st13" x1="415.8" y1="133.5" x2="415.8" y2="140.2"/>
				<polyline class="st13" points="415.8,104.4 415.8,106.6 420.3,108.9 412.1,112.7 420.3,116.4 412.1,120.2 420.3,123.9 
					412.1,127.7 415.8,129.9 415.8,133.7 				"/>
				<line class="st13" x1="438.8" y1="96.1" x2="430.9" y2="105.1"/>
				<polygon points="428.9,107.4 432,106.1 429.7,104.2 				"/>
				<polygon class="st2" points="428.9,107.4 432,106.1 429.7,104.2 				"/>
				<line class="st13" x1="408.3" y1="126.4" x2="422.9" y2="111.5"/>
				<polygon points="424.4,110 419.8,111.5 422.8,114.6 				"/>
				<polygon class="st2" points="424.4,110 419.8,111.5 422.8,114.6 				"/>
				<line class="st13" x1="441.8" y1="100.6" x2="433.9" y2="109.7"/>
				<polygon points="431.9,111.9 435,110.6 432.7,108.7 				"/>
				<polygon class="st2" points="431.9,111.9 435,110.6 432.7,108.7 				"/>
				<rect x="391.8" y="95.9" class="st24" width="9" height="9.8"/>
				<rect x="430.1" y="87.7" width="1.5" height="1.5"/>
				<line x1="431.6" y1="88.4" x2="445.1" y2="88.4"/>
				<line class="st13" x1="431.6" y1="88.4" x2="445.1" y2="88.4"/>
				<rect x="430.1" y="140.2" width="1.5" height="1.5"/>
				<line x1="431.6" y1="141" x2="445.1" y2="141"/>
				<line class="st13" x1="431.6" y1="141" x2="445.1" y2="141"/>
				<line x1="536.7" y1="95.9" x2="550.2" y2="95.9"/>
				<line class="st13" x1="536.7" y1="95.9" x2="671.1" y2="95.9"/>
				<line x1="536.7" y1="118.5" x2="550.2" y2="118.5"/>
				<line class="st13" x1="536.7" y1="118.5" x2="671.1" y2="118.5"/>
				<line x1="536.7" y1="141" x2="550.2" y2="141"/>
				<line class="st13" x1="536.7" y1="141" x2="550.2" y2="141"/>
				<line x1="536.7" y1="161.5" x2="550.2" y2="161.5"/>
				<line class="st13" x1="536.7" y1="161.5" x2="550.2" y2="161.5"/>
				<line class="st1" x1="415.8" y1="141" x2="430.9" y2="141"/>
				<polyline class="st1" points="415.8,95.9 415.8,88.4 430.9,88.4 				"/>
				<path class="st25" d="M676.2,58.4h102.4c2.8,0,5.1,2.3,5.1,5.1V351c0,2.8-2.3,5.1-5.1,5.1H676.2c-2.8,0-5.1-2.3-5.1-5.1V63.5
					C671.1,60.7,673.4,58.4,676.2,58.4z"/>
				<rect x="798" y="192.3" width="1.5" height="1.5"/>
				<line x1="784.4" y1="193.1" x2="798" y2="193.1"/>
				<line class="st13" x1="784.4" y1="193.1" x2="798" y2="193.1"/>
				<rect x="798" y="157.3" width="1.5" height="1.5"/>
				<line x1="784.4" y1="158" x2="798" y2="158"/>
				<line class="st13" x1="784.4" y1="158" x2="798" y2="158"/>
				
					<ellipse transform="matrix(0.5257 -0.8507 0.8507 0.5257 -36.2953 693.2952)" class="st10" cx="603.6" cy="379.2" rx="15" ry="15"/>
				
					<ellipse transform="matrix(0.9871 -0.1602 0.1602 0.9871 -52.9465 101.5823)" class="st1" cx="603.6" cy="379.2" rx="15" ry="15"/>
				<text transform="matrix(0 1 -1 0 602.0996 375.0331)" class="st14 st16">M</text>
				
					<ellipse transform="matrix(0.5257 -0.8507 0.8507 0.5257 -36.2953 693.2952)" class="st10" cx="603.6" cy="379.2" rx="15" ry="15"/>
				
					<ellipse transform="matrix(0.9871 -0.1602 0.1602 0.9871 -52.9465 101.5823)" class="st1" cx="603.6" cy="379.2" rx="15" ry="15"/>
				<text transform="matrix(0 1 -1 0 602.0996 375.0331)" class="st14 st16">M</text>
				<line class="st10" x1="603.6" y1="349.9" x2="603.6" y2="355.9"/>
				<polyline class="st13" points="436,299.3 458.1,299.3 458.1,388 570.3,388 570.3,349.9 603.6,349.9 603.6,355.9 				"/>
				<path class="st26" d="M611.1,366.4c0-11.3,0-9.8,0-9.8h-15v9.8"/>
				<path class="st10" d="M611.1,392c0,11.3,0-3.2,0-3.2h-15v3.2"/>
				<path class="st26" d="M611.1,392c0,11.3,0,9.8,0,9.8h-15V392"/>
				
					<ellipse transform="matrix(0.5257 -0.8507 0.8507 0.5257 -36.2953 693.2952)" class="st10" cx="603.6" cy="379.2" rx="15" ry="15"/>
				
					<ellipse transform="matrix(0.9871 -0.1602 0.1602 0.9871 -52.9465 101.5823)" class="st1" cx="603.6" cy="379.2" rx="15" ry="15"/>
				<path class="st27" d="M603.6,358.6c0,3.8,0,3.8,0,3.8"/>
				<path class="st27" d="M605.5,360.4c-3.8,0-3.8,0-3.8,0"/>
				<path class="st27" d="M603.6,396.1c0,3.8,0,3.8,0,3.8"/>
				<rect x="282.4" y="295.4" width="1.5" height="1.5"/>
				<path class="st5" d="M270.1,343.3c7.5,0,7.5,0,7.5,0"/>
				<path class="st5" d="M273.8,339.6c0,7.5,0,7.5,0,7.5"/>
				<path class="st6" d="M269.7,350.1c27,0,27,0,27,0"/>
				<path class="st6" d="M276.4,355.7c13.5,0,13.5,0,13.5,0"/>
				<path class="st6" d="M269.7,362.1c27,0,27,0,27,0"/>
				<path class="st6" d="M276.4,367.7c13.5,0,13.5,0,13.5,0"/>
				<line class="st26" x1="283.2" y1="296.9" x2="283.2" y2="349.7"/>
				<path class="st26" d="M283.2,367.7"/>
				<polyline class="st1" points="187.7,353.9 187.7,292.8 283.2,292.8 283.2,296.2 				"/>
				<circle class="st7" cx="344.3" cy="381.2" r="1.5"/>
				<rect x="880.5" y="157.3" width="1.5" height="1.5"/>
				<rect x="835.5" y="157.3" width="1.5" height="1.5"/>
				<path class="st1" d="M873.4,158c0,0.8-0.7,1.5-1.5,1.5c-0.8,0-1.5-0.7-1.5-1.5s0.7-1.5,1.5-1.5
					C872.7,156.5,873.4,157.2,873.4,158z"/>
				<circle class="st1" cx="845.6" cy="158" r="1.5"/>
				<line class="st13" x1="874.1" y1="158" x2="880.5" y2="158"/>
				<line class="st13" x1="837" y1="158" x2="843.4" y2="158"/>
				<line class="st13" x1="846.9" y1="157.2" x2="862.1" y2="151.3"/>
				<polygon points="860.1,149.7 868.6,148.9 861.7,153.9 				"/>
				<polygon class="st28" points="860.1,149.7 868.6,148.9 861.7,153.9 				"/>
				<rect x="880.5" y="192.3" width="1.5" height="1.5"/>
				<rect x="835.5" y="192.3" width="1.5" height="1.5"/>
				<path class="st1" d="M873.4,193.1c0,0.8-0.7,1.5-1.5,1.5c-0.8,0-1.5-0.7-1.5-1.5c0-0.8,0.7-1.5,1.5-1.5
					C872.7,191.6,873.4,192.2,873.4,193.1z"/>
				
					<ellipse transform="matrix(0.9951 -9.853708e-02 9.853708e-02 0.9951 -14.9077 84.2646)" class="st1" cx="845.6" cy="193.1" rx="1.5" ry="1.5"/>
				<line class="st13" x1="874.1" y1="193.1" x2="880.5" y2="193.1"/>
				<line class="st13" x1="837" y1="193.1" x2="843.4" y2="193.1"/>
				<line class="st13" x1="846.9" y1="192.3" x2="862.1" y2="186.3"/>
				<polygon points="860.1,184.7 868.6,183.9 861.7,188.9 				"/>
				<polygon class="st28" points="860.1,184.7 868.6,183.9 861.7,188.9 				"/>
				<rect x="126.1" y="125.2" width="1.5" height="1.5"/>
				<rect x="126.1" y="170.3" width="1.5" height="1.5"/>
				<path class="st5" d="M113.7,133.1c7.5,0,7.5,0,7.5,0"/>
				<path class="st5" d="M117.5,129.4c0,7.5,0,7.5,0,7.5"/>
				<path class="st6" d="M113.4,139.9c27,0,27,0,27,0"/>
				<path class="st6" d="M120.1,145.5c13.5,0,13.5,0,13.5,0"/>
				<path class="st6" d="M113.4,151.9c27,0,27,0,27,0"/>
				<path class="st6" d="M120.1,157.5c13.5,0,13.5,0,13.5,0"/>
				<line class="st26" x1="126.9" y1="126.7" x2="126.9" y2="139.5"/>
				<line class="st26" x1="126.9" y1="157.5" x2="126.9" y2="170.3"/>
				<rect x="62.4" y="125.2" width="1.5" height="1.5"/>
				<rect x="62.4" y="170.3" width="1.5" height="1.5"/>
				<path class="st5" d="M50,133.1c7.5,0,7.5,0,7.5,0"/>
				<path class="st5" d="M53.8,129.4c0,7.5,0,7.5,0,7.5"/>
				<path class="st6" d="M49.6,139.9c27,0,27,0,27,0"/>
				<path class="st6" d="M56.4,145.5c13.5,0,13.5,0,13.5,0"/>
				<path class="st6" d="M49.6,151.9c27,0,27,0,27,0"/>
				<path class="st6" d="M56.4,157.5c13.5,0,13.5,0,13.5,0"/>
				<polyline class="st26" points="63.1,139.5 63.1,87.4 126.9,87.4 				"/>
				<polyline class="st26" points="63.1,157.5 63.1,189.7 126.1,189.7 				"/>
				<polyline class="st1" points="126.9,126 126.9,28.4 723.6,28.4 723.6,58.4 				"/>
				<polyline class="st1" points="126.9,171 126.9,441.3 640.5,441.3 640.5,313.6 551,313.6 				"/>
				<polyline class="st1" points="551,161.5 640.5,161.5 640.5,312.1 				"/>
				<circle cx="640.5" cy="313.6" r="1.5"/>
				<path class="st1" d="M642,313.6c0,0.8-0.7,1.5-1.5,1.5s-1.5-0.7-1.5-1.5c0-0.8,0.7-1.5,1.5-1.5S642,312.8,642,313.6z"/>
				<line class="st1" x1="536" y1="268.6" x2="671.1" y2="268.6"/>
				<line class="st1" x1="536" y1="291.1" x2="671.1" y2="291.1"/>
				<line class="st1" x1="798.7" y1="158" x2="836.2" y2="158"/>
				<line class="st1" x1="798.7" y1="193.1" x2="836.2" y2="193.1"/>
				<polyline class="st1" points="881.3,158 918.8,158 918.8,441.3 642,441.3 				"/>
				<circle cx="640.5" cy="441.3" r="1.5"/>
				<circle class="st1" cx="640.5" cy="441.3" r="1.5"/>
				<line class="st1" x1="881.3" y1="193.1" x2="917.3" y2="193.1"/>
				<path d="M920.3,193.1c0,0.8-0.7,1.5-1.5,1.5s-1.5-0.7-1.5-1.5s0.7-1.5,1.5-1.5S920.3,192.2,920.3,193.1z"/>
				<path class="st29" d="M920.3,251c0,0.8-0.7,1.5-1.5,1.5c-0.8,0-1.5-0.7-1.5-1.5c0-0.8,0.7-1.5,1.5-1.5
					C919.6,249.5,920.3,250.2,920.3,251z"/>
				<path class="st1" d="M920.3,193.1c0,0.8-0.7,1.5-1.5,1.5c-0.8,0-1.5-0.7-1.5-1.5c0-0.8,0.7-1.5,1.5-1.5
					C919.6,191.6,920.3,192.2,920.3,193.1z"/>
				<circle class="st7" cx="283.2" cy="411.2" r="1.5"/>
			</g>
		</g>
	</g>
	<polygon points="91.1,87.4 81.9,82.1 81.9,92.7 	"/>
	<line class="st13" x1="283.2" y1="292.8" x2="408.2" y2="292.8"/>
	<line class="st21" x1="422.7" y1="280.9" x2="422.7" y2="303.4"/>
	<polyline class="st1" points="436,373.7 445.8,373.7 445.8,406.9 603.6,406.9 603.6,401.8 	"/>
	<polyline class="st13" points="408.2,381.2 344.3,381.2 344.3,411.2 283.2,411.2 	"/>
	<polyline class="st0" points="370.8,294.3 370.8,366.2 408.2,366.2 	"/>
	<polyline class="st0" points="187.6,372.2 186.1,411.2 283.2,411.2 283.2,367.7 	"/>
</g>
<g id="text">
	<g>
		<g>
			<path d="M23.5,482.3h0.7v3.3l0,1.7c0.8-0.8,1.6-1.4,2.7-1.4c1.6,0,2.3,1,2.3,2.9v4.9h-0.7V489c0-1.6-0.5-2.4-1.8-2.4
				c-0.9,0-1.6,0.5-2.5,1.4v5.8h-0.7V482.3z"/>
			<path d="M32.1,491.7v-4.9h-1.2v-0.6l1.2-0.1l0.1-2.2h0.6v2.2H35v0.6h-2.2v5c0,1,0.2,1.6,1.3,1.6c0.3,0,0.7-0.1,1-0.2l0.2,0.6
				c-0.4,0.2-0.9,0.3-1.3,0.3C32.5,494,32.1,493.1,32.1,491.7z"/>
			<path d="M37.1,491.7v-4.9h-1.2v-0.6l1.2-0.1l0.1-2.2h0.6v2.2H40v0.6h-2.2v5c0,1,0.2,1.6,1.3,1.6c0.3,0,0.7-0.1,1-0.2l0.2,0.6
				c-0.4,0.2-0.9,0.3-1.3,0.3C37.5,494,37.1,493.1,37.1,491.7z"/>
			<path d="M41.9,486.1h0.6l0.1,1h0c0.8-0.6,1.7-1.2,2.6-1.2c2.1,0,3.1,1.5,3.1,3.9c0,2.6-1.6,4.1-3.4,4.1c-0.7,0-1.5-0.3-2.3-0.9
				l0,1.4v2.8h-0.7V486.1z M47.6,489.9c0-1.9-0.7-3.3-2.4-3.3c-0.8,0-1.6,0.4-2.5,1.3v4.6c0.9,0.7,1.7,1,2.3,1
				C46.4,493.4,47.6,491.9,47.6,489.9z"/>
			<path d="M50.2,487.2c0-0.5,0.3-0.7,0.7-0.7s0.7,0.3,0.7,0.7c0,0.4-0.3,0.7-0.7,0.7S50.2,487.6,50.2,487.2z M50.2,493.3
				c0-0.5,0.3-0.7,0.7-0.7s0.7,0.3,0.7,0.7c0,0.4-0.3,0.7-0.7,0.7S50.2,493.7,50.2,493.3z"/>
			<path d="M57.7,482.4h0.6l-4.9,13.9h-0.6L57.7,482.4z"/>
			<path d="M63.4,482.4H64l-4.9,13.9h-0.6L63.4,482.4z"/>
			<path d="M66.3,493L66.3,493l-0.1,0.8h-0.6v-11.5h0.7v3.3l0,1.5c0.8-0.7,1.7-1.2,2.6-1.2c2.1,0,3.1,1.5,3.1,3.9
				c0,2.6-1.6,4.2-3.4,4.2C67.8,494,67,493.6,66.3,493z M71.2,489.9c0-1.9-0.7-3.3-2.4-3.3c-0.8,0-1.6,0.4-2.5,1.3v4.6
				c0.8,0.7,1.7,1,2.3,1C70.1,493.4,71.2,491.9,71.2,489.9z"/>
			<path d="M74.2,492.8v-10.5h0.7v10.6c0,0.3,0.1,0.5,0.3,0.5c0.1,0,0.1,0,0.3,0l0.1,0.6c-0.1,0-0.3,0.1-0.5,0.1
				C74.5,494,74.2,493.6,74.2,492.8z"/>
			<path d="M77.4,490c0-2.6,1.6-4,3.5-4s3.5,1.5,3.5,4c0,2.5-1.6,4-3.5,4S77.4,492.5,77.4,490z M83.5,490c0-2-1.2-3.4-2.7-3.4
				s-2.7,1.4-2.7,3.4c0,2,1.2,3.4,2.7,3.4S83.5,492,83.5,490z"/>
			<path d="M87.3,493L87.3,493l-0.1,0.8h-0.6v-11.5h0.7v3.3l0,1.5c0.8-0.7,1.7-1.2,2.6-1.2c2.1,0,3.1,1.5,3.1,3.9
				c0,2.6-1.6,4.2-3.4,4.2C88.8,494,88,493.6,87.3,493z M92.2,489.9c0-1.9-0.7-3.3-2.4-3.3c-0.8,0-1.6,0.4-2.5,1.3v4.6
				c0.8,0.7,1.7,1,2.3,1C91.1,493.4,92.2,491.9,92.2,489.9z"/>
			<path d="M94.8,493.3c0-0.5,0.3-0.7,0.7-0.7s0.7,0.3,0.7,0.7c0,0.4-0.3,0.7-0.7,0.7S94.8,493.7,94.8,493.3z"/>
			<path d="M98.8,486.1h0.6l0.1,1h0c0.8-0.6,1.7-1.2,2.6-1.2c2.1,0,3.1,1.5,3.1,3.9c0,2.6-1.6,4.1-3.4,4.1c-0.7,0-1.5-0.3-2.3-0.9
				l0,1.4v2.8h-0.7V486.1z M104.4,489.9c0-1.9-0.7-3.3-2.4-3.3c-0.8,0-1.6,0.4-2.5,1.3v4.6c0.9,0.7,1.7,1,2.3,1
				C103.3,493.4,104.4,491.9,104.4,489.9z"/>
			<path d="M107.3,491v-4.9h0.7v4.8c0,1.6,0.5,2.4,1.8,2.4c0.9,0,1.6-0.5,2.5-1.6v-5.7h0.7v7.7h-0.6l-0.1-1.3h0
				c-0.8,0.9-1.5,1.5-2.6,1.5C108.1,494,107.3,493,107.3,491z"/>
			<path d="M115.9,486.1h0.6l0.1,1.4h0c0.5-0.9,1.3-1.6,2.2-1.6c0.3,0,0.5,0,0.8,0.2l-0.2,0.6c-0.3-0.1-0.4-0.1-0.7-0.1
				c-0.7,0-1.5,0.5-2.1,2v5.2h-0.7V486.1z"/>
			<path d="M120.4,490c0-2.5,1.6-4,3.4-4c1.8,0,2.9,1.3,2.9,3.6c0,0.2,0,0.4,0,0.6h-5.5c0,1.9,1.2,3.3,2.9,3.3
				c0.8,0,1.5-0.3,2.1-0.7l0.3,0.5c-0.6,0.4-1.3,0.8-2.4,0.8C121.9,494,120.4,492.5,120.4,490z M126,489.5c0-2-0.9-2.9-2.3-2.9
				c-1.3,0-2.5,1.1-2.6,2.9H126z"/>
			<path d="M128.2,491.9c0-1.7,1.5-2.5,5-2.9c0-1.2-0.3-2.4-1.8-2.4c-1,0-1.9,0.5-2.4,0.9l-0.3-0.5c0.5-0.4,1.6-1,2.9-1
				c1.8,0,2.4,1.3,2.4,3v4.9h-0.6l-0.1-1h0c-0.8,0.6-1.7,1.2-2.7,1.2C129.2,494,128.2,493.3,128.2,491.9z M133.1,492.1v-2.6
				c-3.2,0.4-4.2,1.1-4.2,2.3c0,1.1,0.7,1.5,1.6,1.5C131.4,493.4,132.2,493,133.1,492.1z"/>
			<path d="M136.6,486.1h0.6l0.1,1.2h0c0.8-0.8,1.6-1.4,2.6-1.4c1.6,0,2.3,1,2.3,2.9v4.9h-0.7V489c0-1.6-0.5-2.4-1.8-2.4
				c-0.9,0-1.6,0.5-2.5,1.4v5.8h-0.7V486.1z"/>
			<path d="M144.4,490c0-2.5,1.6-4,3.4-4c0.9,0,1.5,0.3,2.3,0.9l0-1.4v-3.2h0.7v11.5h-0.6l-0.1-1h0c-0.6,0.6-1.5,1.2-2.5,1.2
				C145.7,494,144.4,492.6,144.4,490z M150.1,492.1v-4.6c-0.8-0.7-1.5-1-2.2-1c-1.5,0-2.7,1.5-2.7,3.4c0,2,0.9,3.4,2.5,3.4
				C148.6,493.4,149.3,492.9,150.1,492.1z"/>
			<path d="M153.2,491.9c0-1.7,1.5-2.5,5-2.9c0-1.2-0.3-2.4-1.8-2.4c-1,0-1.9,0.5-2.4,0.9l-0.3-0.5c0.5-0.4,1.6-1,2.9-1
				c1.8,0,2.4,1.3,2.4,3v4.9h-0.6l-0.1-1h0c-0.8,0.6-1.7,1.2-2.7,1.2C154.3,494,153.2,493.3,153.2,491.9z M158.2,492.1v-2.6
				c-3.2,0.4-4.2,1.1-4.2,2.3c0,1.1,0.7,1.5,1.6,1.5C156.5,493.4,157.2,493,158.2,492.1z"/>
			<path d="M161.6,486.1h0.6l0.1,1h0c0.8-0.6,1.7-1.2,2.6-1.2c2.1,0,3.1,1.5,3.1,3.9c0,2.6-1.6,4.1-3.4,4.1c-0.7,0-1.5-0.3-2.3-0.9
				l0,1.4v2.8h-0.7V486.1z M167.3,489.9c0-1.9-0.7-3.3-2.4-3.3c-0.8,0-1.6,0.4-2.5,1.3v4.6c0.9,0.7,1.7,1,2.3,1
				C166.2,493.4,167.3,491.9,167.3,489.9z"/>
			<path d="M170.3,486.1h0.6l0.1,1h0c0.8-0.6,1.7-1.2,2.6-1.2c2.1,0,3.1,1.5,3.1,3.9c0,2.6-1.6,4.1-3.4,4.1c-0.7,0-1.5-0.3-2.3-0.9
				l0,1.4v2.8h-0.7V486.1z M176,489.9c0-1.9-0.7-3.3-2.4-3.3c-0.8,0-1.6,0.4-2.5,1.3v4.6c0.9,0.7,1.7,1,2.3,1
				C174.9,493.4,176,491.9,176,489.9z"/>
			<path d="M179.1,492.8v-10.5h0.7v10.6c0,0.3,0.1,0.5,0.3,0.5c0.1,0,0.1,0,0.3,0l0.1,0.6c-0.1,0-0.3,0.1-0.5,0.1
				C179.4,494,179.1,493.6,179.1,492.8z"/>
			<path d="M182.6,483.6c0-0.4,0.3-0.6,0.6-0.6c0.3,0,0.6,0.2,0.6,0.6c0,0.4-0.3,0.6-0.6,0.6C182.9,484.3,182.6,484,182.6,483.6z
				 M182.8,486.1h0.7v7.7h-0.7V486.1z"/>
			<path d="M185.9,490c0-2.5,1.6-4,3.4-4c1.8,0,2.9,1.3,2.9,3.6c0,0.2,0,0.4,0,0.6h-5.5c0,1.9,1.2,3.3,2.9,3.3
				c0.8,0,1.5-0.3,2.1-0.7l0.3,0.5c-0.6,0.4-1.3,0.8-2.4,0.8C187.4,494,185.9,492.5,185.9,490z M191.5,489.5c0-2-0.9-2.9-2.3-2.9
				c-1.3,0-2.5,1.1-2.6,2.9H191.5z"/>
			<path d="M193.6,490c0-2.5,1.6-4,3.4-4c0.9,0,1.5,0.3,2.3,0.9l0-1.4v-3.2h0.7v11.5h-0.6l-0.1-1h0c-0.6,0.6-1.5,1.2-2.5,1.2
				C194.8,494,193.6,492.6,193.6,490z M199.3,492.1v-4.6c-0.8-0.7-1.5-1-2.2-1c-1.5,0-2.7,1.5-2.7,3.4c0,2,0.9,3.4,2.5,3.4
				C197.7,493.4,198.5,492.9,199.3,492.1z"/>
			<path d="M202.5,493.3c0-0.5,0.3-0.7,0.7-0.7s0.7,0.3,0.7,0.7c0,0.4-0.3,0.7-0.7,0.7S202.5,493.7,202.5,493.3z"/>
			<path d="M205.8,490c0-2.6,1.6-4,3.5-4c1,0,1.7,0.5,2.3,0.9l-0.4,0.5c-0.5-0.5-1.1-0.8-1.8-0.8c-1.6,0-2.8,1.4-2.8,3.4
				c0,2,1.1,3.4,2.8,3.4c0.8,0,1.5-0.4,2.1-0.9l0.4,0.5c-0.7,0.6-1.5,1-2.5,1C207.3,494,205.8,492.5,205.8,490z"/>
			<path d="M213,490c0-2.6,1.6-4,3.5-4s3.5,1.5,3.5,4c0,2.5-1.6,4-3.5,4S213,492.5,213,490z M219.1,490c0-2-1.2-3.4-2.7-3.4
				s-2.7,1.4-2.7,3.4c0,2,1.2,3.4,2.7,3.4S219.1,492,219.1,490z"/>
			<path d="M222.2,486.1h0.6l0.1,1.2h0c0.7-0.8,1.6-1.4,2.4-1.4c1.2,0,1.8,0.6,2.1,1.6c0.9-1,1.7-1.6,2.6-1.6c1.5,0,2.3,1,2.3,2.9
				v4.9h-0.7V489c0-1.6-0.5-2.4-1.7-2.4c-0.7,0-1.5,0.5-2.3,1.4v5.8h-0.7V489c0-1.6-0.5-2.4-1.7-2.4c-0.7,0-1.5,0.5-2.3,1.4v5.8
				h-0.7V486.1z"/>
			<path d="M234.8,493.3c0-0.5,0.3-0.7,0.7-0.7s0.7,0.3,0.7,0.7c0,0.4-0.3,0.7-0.7,0.7S234.8,493.7,234.8,493.3z"/>
			<path d="M238.1,491.9c0-1.7,1.5-2.5,5-2.9c0-1.2-0.3-2.4-1.8-2.4c-1,0-1.9,0.5-2.4,0.9l-0.3-0.5c0.5-0.4,1.6-1,2.9-1
				c1.8,0,2.4,1.3,2.4,3v4.9h-0.6l-0.1-1h0c-0.8,0.6-1.7,1.2-2.7,1.2C239.1,494,238.1,493.3,238.1,491.9z M243.1,492.1v-2.6
				c-3.2,0.4-4.2,1.1-4.2,2.3c0,1.1,0.7,1.5,1.6,1.5C241.4,493.4,242.1,493,243.1,492.1z"/>
			<path d="M246.4,491v-4.9h0.7v4.8c0,1.6,0.5,2.4,1.8,2.4c0.9,0,1.6-0.5,2.5-1.6v-5.7h0.7v7.7h-0.6l-0.1-1.3h0
				c-0.8,0.9-1.5,1.5-2.6,1.5C247.1,494,246.4,493,246.4,491z"/>
			<path d="M258.6,482.4h0.6l-4.9,13.9h-0.6L258.6,482.4z"/>
			<path d="M260.1,490c0-2.6,1.6-4,3.5-4c1,0,1.7,0.5,2.3,0.9l-0.4,0.5c-0.5-0.5-1.1-0.8-1.8-0.8c-1.6,0-2.8,1.4-2.8,3.4
				c0,2,1.1,3.4,2.8,3.4c0.8,0,1.5-0.4,2.1-0.9l0.4,0.5c-0.7,0.6-1.5,1-2.5,1C261.6,494,260.1,492.5,260.1,490z"/>
			<path d="M267.9,482.3h0.7v3.3l0,1.7c0.8-0.8,1.6-1.4,2.7-1.4c1.6,0,2.3,1,2.3,2.9v4.9h-0.7V489c0-1.6-0.5-2.4-1.8-2.4
				c-0.9,0-1.6,0.5-2.5,1.4v5.8h-0.7V482.3z"/>
			<path d="M275.7,490c0-2.6,1.6-4,3.5-4s3.5,1.5,3.5,4c0,2.5-1.6,4-3.5,4S275.7,492.5,275.7,490z M281.9,490c0-2-1.2-3.4-2.7-3.4
				s-2.7,1.4-2.7,3.4c0,2,1.2,3.4,2.7,3.4S281.9,492,281.9,490z"/>
			<path d="M284.3,490c0-2.6,1.6-4,3.5-4s3.5,1.5,3.5,4c0,2.5-1.6,4-3.5,4S284.3,492.5,284.3,490z M290.4,490c0-2-1.2-3.4-2.7-3.4
				S285,488,285,490c0,2,1.2,3.4,2.7,3.4S290.4,492,290.4,490z"/>
			<path d="M293.5,482.3h0.7v8.5h0l3.8-4.7h0.8l-2.5,3l2.9,4.6h-0.8l-2.6-4.1l-1.7,2v2.1h-0.7V482.3z"/>
			<path d="M300.9,486.1h0.6l0.1,1.4h0c0.5-0.9,1.3-1.6,2.2-1.6c0.3,0,0.5,0,0.8,0.2l-0.2,0.6c-0.3-0.1-0.4-0.1-0.7-0.1
				c-0.7,0-1.5,0.5-2.1,2v5.2h-0.7V486.1z"/>
			<path d="M305.3,490c0-2.6,1.6-4,3.5-4s3.5,1.5,3.5,4c0,2.5-1.6,4-3.5,4S305.3,492.5,305.3,490z M311.5,490c0-2-1.2-3.4-2.7-3.4
				S306,488,306,490c0,2,1.2,3.4,2.7,3.4S311.5,492,311.5,490z"/>
			<path d="M315.2,493L315.2,493l-0.1,0.8h-0.6v-11.5h0.7v3.3l0,1.5c0.8-0.7,1.7-1.2,2.6-1.2c2.1,0,3.1,1.5,3.1,3.9
				c0,2.6-1.6,4.2-3.4,4.2C316.8,494,315.9,493.6,315.2,493z M320.2,489.9c0-1.9-0.7-3.3-2.4-3.3c-0.8,0-1.6,0.4-2.5,1.3v4.6
				c0.8,0.7,1.7,1,2.3,1C319,493.4,320.2,491.9,320.2,489.9z"/>
			<path d="M322.5,490c0-2.6,1.6-4,3.5-4s3.5,1.5,3.5,4c0,2.5-1.6,4-3.5,4S322.5,492.5,322.5,490z M328.7,490c0-2-1.2-3.4-2.7-3.4
				s-2.7,1.4-2.7,3.4c0,2,1.2,3.4,2.7,3.4S328.7,492,328.7,490z"/>
			<path d="M331.9,491.7v-4.9h-1.2v-0.6l1.2-0.1l0.1-2.2h0.6v2.2h2.2v0.6h-2.2v5c0,1,0.2,1.6,1.3,1.6c0.3,0,0.7-0.1,1-0.2l0.2,0.6
				c-0.4,0.2-0.9,0.3-1.3,0.3C332.3,494,331.9,493.1,331.9,491.7z"/>
			<path d="M340.3,482.4h0.6l-4.9,13.9h-0.6L340.3,482.4z"/>
		</g>
	</g>
	<g>
		<g>
			<path d="M730.1,482.7c0-5.4,3-8.8,7.3-8.8c2,0,3.5,1,4.5,2l-0.7,0.8c-0.9-1.1-2.2-1.8-3.7-1.8c-3.8,0-6.1,3-6.1,7.7
				c0,4.8,2.3,7.8,6,7.8c1.8,0,3.1-0.7,4.3-2.1l0.7,0.7c-1.3,1.5-2.9,2.4-5.1,2.4C733.1,491.6,730.1,488.1,730.1,482.7z"/>
			<path d="M745.8,472.6h1.1v5.4l0,2.8c1.3-1.3,2.6-2.3,4.3-2.3c2.6,0,3.8,1.6,3.8,4.8v8h-1.1v-7.9c0-2.6-0.8-3.9-2.8-3.9
				c-1.5,0-2.6,0.8-4.1,2.3v9.4h-1.1V472.6z"/>
			<path d="M758.5,485.1c0-4.2,2.6-6.6,5.6-6.6c3,0,5.6,2.4,5.6,6.6c0,4.1-2.6,6.5-5.6,6.5C761.1,491.6,758.5,489.2,758.5,485.1z
				 M768.5,485.1c0-3.3-1.9-5.6-4.4-5.6c-2.5,0-4.4,2.3-4.4,5.6c0,3.3,1.9,5.5,4.4,5.5C766.6,490.6,768.5,488.4,768.5,485.1z"/>
			<path d="M772.4,485.1c0-4.2,2.6-6.6,5.6-6.6c3,0,5.6,2.4,5.6,6.6c0,4.1-2.6,6.5-5.6,6.5C775,491.6,772.4,489.2,772.4,485.1z
				 M782.4,485.1c0-3.3-1.9-5.6-4.4-5.6c-2.5,0-4.4,2.3-4.4,5.6c0,3.3,1.9,5.5,4.4,5.5C780.5,490.6,782.4,488.4,782.4,485.1z"/>
			<path d="M787.3,472.6h1.1v13.8h0.1l6.2-7.6h1.3l-4.1,4.9l4.7,7.5h-1.3l-4.1-6.7l-2.8,3.3v3.4h-1.1V472.6z"/>
			<path d="M804.7,474.2h4.9c3.4,0,5.6,1.2,5.6,4.5c0,3.1-2.2,4.7-5.6,4.7h-3.7v7.9h-1.2V474.2z M809.3,482.4c3,0,4.7-1.2,4.7-3.7
				c0-2.6-1.7-3.5-4.7-3.5h-3.4v7.2H809.3z M809.3,483.1l1.1-0.3l5.1,8.6h-1.4L809.3,483.1z"/>
			<path d="M817.7,485.1c0-4.2,2.6-6.6,5.6-6.6c3,0,5.6,2.4,5.6,6.6c0,4.1-2.6,6.5-5.6,6.5C820.3,491.6,817.7,489.2,817.7,485.1z
				 M827.7,485.1c0-3.3-1.9-5.6-4.4-5.6c-2.5,0-4.4,2.3-4.4,5.6c0,3.3,1.9,5.5,4.4,5.5C825.8,490.6,827.7,488.4,827.7,485.1z"/>
			<path d="M833.8,490L833.8,490l-0.2,1.3h-1v-18.7h1.1v5.4l-0.1,2.4c1.3-1.1,2.8-2,4.3-2c3.3,0,5,2.5,5,6.4c0,4.2-2.6,6.7-5.5,6.7
				C836.3,491.6,834.9,491,833.8,490z M841.8,484.9c0-3.1-1.1-5.4-4-5.4c-1.2,0-2.6,0.7-4.1,2.1v7.4c1.4,1.2,2.7,1.6,3.7,1.6
				C840,490.6,841.8,488.3,841.8,484.9z"/>
			<path d="M845.7,485.1c0-4.2,2.6-6.6,5.6-6.6c3,0,5.6,2.4,5.6,6.6c0,4.1-2.6,6.5-5.6,6.5C848.3,491.6,845.7,489.2,845.7,485.1z
				 M855.7,485.1c0-3.3-1.9-5.6-4.4-5.6c-2.5,0-4.4,2.3-4.4,5.6c0,3.3,1.9,5.5,4.4,5.5C853.8,490.6,855.7,488.4,855.7,485.1z"/>
			<path d="M860.9,487.9v-8h-2v-0.9l2-0.1l0.1-3.6h1v3.6h3.6v1h-3.6v8.1c0,1.6,0.4,2.7,2.1,2.7c0.5,0,1.1-0.2,1.6-0.4l0.3,0.9
				c-0.7,0.3-1.5,0.5-2,0.5C861.6,491.6,860.9,490.1,860.9,487.9z"/>
			<path d="M871.6,474.2h1.3l3.2,10c0.7,2.1,1.1,3.7,1.8,5.8h0.1c0.7-2.1,1.2-3.7,1.8-5.8l3.2-10h1.2l-5.6,17.1h-1.3L871.6,474.2z"
				/>
			<path d="M886.5,490.3h3.9v-13.8h-3v-0.8c1.4-0.2,2.4-0.6,3.2-1.1h0.9v15.6h3.6v1h-8.7V490.3z"/>
			<path d="M898.5,490.5c0-0.8,0.5-1.2,1.1-1.2s1.1,0.4,1.1,1.2c0,0.7-0.5,1.2-1.1,1.2S898.5,491.2,898.5,490.5z"/>
			<path d="M903.2,489.3l0.7-0.8c1,1.1,2.3,2.1,4.6,2.1c2.3,0,3.9-1.5,3.9-3.7c0-2.3-1.7-3.8-5.8-3.8v-1c3.8,0,5.2-1.6,5.2-3.6
				c0-1.9-1.3-3.1-3.4-3.1c-1.5,0-2.9,0.8-3.8,1.8l-0.7-0.8c1.1-1.1,2.6-2,4.5-2c2.6,0,4.5,1.5,4.5,4c0,2.2-1.4,3.5-3.2,4.1v0.1
				c2.1,0.4,3.8,2,3.8,4.3c0,2.9-2.2,4.7-5.1,4.7C905.8,491.6,904.3,490.4,903.2,489.3z"/>
		</g>
	</g>
	<g>
		<g>
			<path d="M133.9,128.9h-2.7v-0.3h3.1v0.2c-1.2,1.6-1.5,2.9-1.6,4.9h-0.4C132.5,131.6,132.9,130.3,133.9,128.9z"/>
			<path d="M135.2,133.4c0-0.2,0.2-0.4,0.3-0.4c0.2,0,0.3,0.1,0.3,0.4c0,0.2-0.2,0.4-0.3,0.4C135.4,133.8,135.2,133.6,135.2,133.4z"
				/>
			<path d="M136.8,133.5c1.7-1.7,2.5-2.7,2.5-3.5c0-0.6-0.3-1.1-1.1-1.1c-0.5,0-0.9,0.3-1.2,0.7l-0.2-0.2c0.4-0.4,0.8-0.8,1.5-0.8
				c0.9,0,1.4,0.6,1.4,1.4c0,1-0.9,2-2.3,3.5c0.3,0,0.6,0,0.9,0h1.7v0.3h-3.1V133.5z"/>
			<path d="M140.4,129.8h0.4l0.9,2.4c0.1,0.4,0.3,0.8,0.4,1.1h0c0.1-0.3,0.3-0.7,0.4-1.1l0.9-2.4h0.4l-1.4,3.8h-0.4L140.4,129.8z"/>
		</g>
	</g>
	<g>
		<g>
			<path d="M291,345.3h1.2V341h-0.9v-0.2c0.4-0.1,0.7-0.2,1-0.3h0.3v4.8h1.1v0.3H291V345.3z"/>
			<path d="M294.5,345.4c1.7-1.7,2.5-2.7,2.5-3.5c0-0.6-0.3-1.1-1.1-1.1c-0.5,0-0.9,0.3-1.2,0.7l-0.2-0.2c0.4-0.4,0.8-0.8,1.5-0.8
				c0.9,0,1.4,0.6,1.4,1.4c0,1-0.9,2-2.3,3.5c0.3,0,0.6,0,0.9,0h1.7v0.3h-3.1V345.4z"/>
			<path d="M298.1,341.7h0.4l0.9,2.4c0.1,0.4,0.3,0.8,0.4,1.1h0c0.1-0.3,0.3-0.7,0.4-1.1l0.9-2.4h0.4l-1.4,3.8h-0.4L298.1,341.7z"/>
		</g>
	</g>
	<g>
		<g>
			<path d="M787.5,149.1h1.2c1.6,0,2.4,1,2.4,2.6s-0.8,2.7-2.4,2.7h-1.2V149.1z M788.7,154.1c1.4,0,2-1,2-2.3s-0.6-2.3-2-2.3h-0.8
				v4.6H788.7z"/>
			<path d="M791.8,153.8l0.2-0.2c0.3,0.3,0.7,0.6,1.4,0.6c0.7,0,1.3-0.6,1.3-1.4c0-0.8-0.5-1.3-1.2-1.3c-0.4,0-0.6,0.1-0.9,0.3
				l-0.2-0.2l0.2-2.4h2.4v0.3h-2l-0.2,1.8c0.3-0.2,0.5-0.3,0.9-0.3c0.9,0,1.6,0.5,1.6,1.6c0,1.1-0.8,1.7-1.6,1.7
				C792.6,154.5,792.1,154.1,791.8,153.8z"/>
		</g>
	</g>
	<g>
		<g>
			<path d="M787.5,184h1.2c1.6,0,2.4,1,2.4,2.6s-0.8,2.7-2.4,2.7h-1.2V184z M788.7,189c1.4,0,2-1,2-2.3s-0.6-2.3-2-2.3h-0.8v4.6
				H788.7z"/>
			<path d="M794,185.6c0-0.2,0-0.6,0-0.9h0c-0.1,0.2-0.3,0.4-0.4,0.6l-1.5,2.1h3v0.3h-3.4v-0.2l2.4-3.4h0.3v5.1H794V185.6z"/>
		</g>
	</g>
	<g>
		<g>
			<path d="M787.5,241.9h1.2c1.6,0,2.4,1,2.4,2.6c0,1.6-0.8,2.7-2.4,2.7h-1.2V241.9z M788.7,246.9c1.4,0,2-1,2-2.3
				c0-1.4-0.6-2.3-2-2.3h-0.8v4.6H788.7z"/>
			<path d="M791.9,245.9c0-0.7,0.5-1.2,1-1.4v0c-0.4-0.2-0.7-0.6-0.7-1.2c0-0.7,0.6-1.3,1.3-1.3c0.9,0,1.4,0.6,1.4,1.3
				c0,0.6-0.4,1.1-0.7,1.3v0c0.4,0.3,0.9,0.6,0.9,1.3c0,0.7-0.6,1.3-1.6,1.3C792.6,247.3,791.9,246.7,791.9,245.9z M794.7,246
				c0-0.8-0.8-1.1-1.6-1.4c-0.5,0.3-0.9,0.7-0.9,1.3c0,0.6,0.5,1.1,1.3,1.1C794.2,247,794.7,246.5,794.7,246z M794.5,243.3
				c0-0.6-0.4-1-1-1c-0.6,0-1,0.4-1,1c0,0.7,0.7,1,1.4,1.3C794.3,244.2,794.5,243.8,794.5,243.3z"/>
		</g>
	</g>
	<g>
		<g>
			<path d="M656.5,283.2h1.2c1.6,0,2.4,1,2.4,2.6c0,1.6-0.8,2.7-2.4,2.7h-1.2V283.2z M657.7,288.1c1.4,0,2-1,2-2.3
				c0-1.4-0.6-2.3-2-2.3h-0.8v4.6H657.7z"/>
			<path d="M661.2,288.1h1.2v-4.2h-0.9v-0.2c0.4-0.1,0.7-0.2,1-0.3h0.3v4.8h1.1v0.3h-2.7V288.1z"/>
			<path d="M664.8,285.9c0-1.7,0.6-2.6,1.5-2.6s1.5,0.9,1.5,2.6c0,1.7-0.6,2.7-1.5,2.7S664.8,287.6,664.8,285.9z M667.5,285.9
				c0-1.6-0.5-2.3-1.2-2.3c-0.7,0-1.2,0.8-1.2,2.3s0.5,2.4,1.2,2.4C667,288.2,667.5,287.4,667.5,285.9z"/>
		</g>
	</g>
	<g>
		<g>
			<path d="M660.7,242.7l0.2-0.2c0.3,0.3,0.7,0.6,1.4,0.6c0.7,0,1.3-0.6,1.3-1.4c0-0.8-0.5-1.3-1.2-1.3c-0.4,0-0.6,0.1-0.9,0.3
				l-0.2-0.2l0.2-2.4h2.4v0.3h-2l-0.2,1.8c0.3-0.2,0.5-0.3,0.9-0.3c0.9,0,1.6,0.5,1.6,1.6c0,1.1-0.8,1.7-1.6,1.7
				C661.5,243.4,661,243.1,660.7,242.7z"/>
			<path d="M664.3,238.1h0.4l1,3.1c0.2,0.6,0.3,1.1,0.6,1.8h0c0.2-0.6,0.4-1.1,0.6-1.8l1-3.1h0.4l-1.7,5.3h-0.4L664.3,238.1z"/>
		</g>
	</g>
	<g>
		<g>
			<path d="M660.3,260.2h1.2c1.6,0,2.4,1,2.4,2.6c0,1.6-0.8,2.7-2.4,2.7h-1.2V260.2z M661.5,265.1c1.4,0,2-1,2-2.3
				c0-1.4-0.6-2.3-2-2.3h-0.8v4.6H661.5z"/>
			<path d="M664.8,265l0.2-0.2c0.2,0.3,0.5,0.4,0.9,0.4c0.8,0,1.5-0.7,1.5-2.6c0-1.2-0.4-2.1-1.3-2.1c-0.6,0-1,0.6-1,1.3
				c0,0.7,0.3,1.3,1.1,1.3c0.4,0,0.9-0.2,1.3-0.8l0,0.4c-0.4,0.5-0.8,0.7-1.3,0.7c-0.9,0-1.4-0.6-1.4-1.6c0-0.9,0.6-1.6,1.4-1.6
				c1,0,1.7,0.9,1.7,2.4c0,2.1-0.9,2.9-1.9,2.9C665.4,265.5,665.1,265.3,664.8,265z"/>
		</g>
	</g>
	<g>
		<g>
			<path d="M868.8,263c1.7-1.7,2.5-2.7,2.5-3.5c0-0.6-0.3-1.1-1.1-1.1c-0.5,0-0.9,0.3-1.2,0.7l-0.2-0.2c0.4-0.4,0.8-0.8,1.5-0.8
				c0.9,0,1.4,0.6,1.4,1.4c0,1-0.9,2-2.3,3.5c0.3,0,0.6,0,0.9,0h1.7v0.3h-3.1V263z"/>
			<path d="M872.7,263c1.7-1.7,2.5-2.7,2.5-3.5c0-0.6-0.3-1.1-1.1-1.1c-0.5,0-0.9,0.3-1.2,0.7l-0.2-0.2c0.4-0.4,0.8-0.8,1.5-0.8
				c0.9,0,1.4,0.6,1.4,1.4c0,1-0.9,2-2.3,3.5c0.3,0,0.6,0,0.9,0h1.7v0.3h-3.1V263z"/>
			<path d="M876.6,260.7c0-1.7,0.6-2.6,1.5-2.6s1.5,0.9,1.5,2.6c0,1.7-0.6,2.7-1.5,2.7S876.6,262.4,876.6,260.7z M879.3,260.7
				c0-1.6-0.5-2.3-1.2-2.3c-0.7,0-1.2,0.8-1.2,2.3c0,1.6,0.5,2.4,1.2,2.4C878.8,263,879.3,262.2,879.3,260.7z"/>
			<path d="M880.4,262.9h1.1v0c-0.5-0.5-1-1.3-1-2.4c0-1.5,0.8-2.6,2.2-2.6c1.3,0,2.2,1.1,2.2,2.6c0,1.2-0.5,1.9-1,2.4v0h1.1v0.3
				h-1.7V263c0.6-0.5,1.2-1.2,1.2-2.5c0-1.3-0.7-2.3-1.8-2.3c-1.1,0-1.8,1-1.8,2.3c0,1.3,0.6,2.1,1.2,2.5v0.3h-1.7V262.9z"/>
		</g>
	</g>
	<g>
		<g>
			<path d="M556.7,139.2h0.4l2.2,3.7l0.6,1.1h0c0-0.5,0-1,0-1.5v-3.2h0.3v5.3h-0.4l-2.2-3.7l-0.6-1.1h0c0,0.5,0,1,0,1.5v3.3h-0.3
				V139.2z"/>
			<path d="M561.5,141.8c0-1.7,0.9-2.7,2.3-2.7c0.6,0,1.1,0.3,1.4,0.6l-0.2,0.2c-0.3-0.3-0.7-0.5-1.2-0.5c-1.2,0-1.9,0.9-1.9,2.4
				c0,1.5,0.7,2.4,1.8,2.4c0.5,0,1-0.2,1.3-0.6l0.2,0.2c-0.4,0.5-0.9,0.8-1.6,0.8C562.4,144.6,561.5,143.5,561.5,141.8z"/>
		</g>
	</g>
	<g>
		<g>
			<path d="M660.3,110.7h1.2c1.6,0,2.4,1,2.4,2.6s-0.8,2.7-2.4,2.7h-1.2V110.7z M661.5,115.6c1.4,0,2-1,2-2.3s-0.6-2.3-2-2.3h-0.8
				v4.6H661.5z"/>
			<path d="M664.8,113.6c0-2.1,0.9-2.9,1.9-2.9c0.5,0,0.8,0.2,1.1,0.5l-0.2,0.2c-0.2-0.3-0.5-0.4-0.9-0.4c-0.8,0-1.5,0.7-1.5,2.6
				c0,1.2,0.4,2.1,1.3,2.1c0.6,0,1-0.6,1-1.3c0-0.7-0.3-1.3-1.1-1.3c-0.4,0-0.9,0.2-1.3,0.8l0-0.4c0.4-0.5,0.8-0.7,1.3-0.7
				c0.9,0,1.4,0.6,1.4,1.6c0,0.9-0.6,1.6-1.4,1.6C665.5,116,664.8,115.2,664.8,113.6z"/>
		</g>
	</g>
	<g>
		<g>
			<path d="M731.8,361.7c0-1.7,0.9-2.7,2.3-2.7c0.7,0,1.2,0.3,1.4,0.6l-0.2,0.2c-0.3-0.3-0.6-0.5-1.2-0.5c-1.2,0-2,0.9-2,2.4
				c0,1.5,0.7,2.4,1.9,2.4c0.5,0,0.9-0.1,1.2-0.4v-1.6H734v-0.3h1.6v2.1c-0.3,0.4-0.9,0.6-1.6,0.6
				C732.7,364.4,731.8,363.4,731.8,361.7z"/>
			<path d="M737,360.5h0.3l0,0.6h0c0.4-0.4,0.8-0.7,1.3-0.7c0.8,0,1.2,0.5,1.2,1.5v2.5h-0.4v-2.4c0-0.8-0.3-1.2-0.9-1.2
				c-0.5,0-0.8,0.2-1.3,0.7v2.9H737V360.5z"/>
			<path d="M740.9,362.4c0-1.2,0.8-2,1.7-2c0.5,0,0.8,0.2,1.2,0.5l0-0.7v-1.6h0.4v5.8h-0.3l0-0.5h0c-0.3,0.3-0.7,0.6-1.3,0.6
				C741.5,364.4,740.9,363.7,740.9,362.4z M743.7,363.5v-2.3c-0.4-0.4-0.7-0.5-1.1-0.5c-0.8,0-1.4,0.7-1.4,1.7c0,1,0.5,1.7,1.3,1.7
				C743,364.1,743.3,363.9,743.7,363.5z"/>
		</g>
	</g>
	<g>
		<g>
			<path d="M727.4,49.4h0.4l1,3.1c0.2,0.6,0.3,1.1,0.6,1.8h0c0.2-0.6,0.4-1.1,0.6-1.8l1-3.1h0.4l-1.7,5.3h-0.4L727.4,49.4z"/>
			<path d="M731.9,49.6c0-0.2,0.1-0.3,0.3-0.3c0.2,0,0.3,0.1,0.3,0.3c0,0.2-0.1,0.3-0.3,0.3C732.1,49.9,731.9,49.8,731.9,49.6z
				 M732,50.8h0.4v3.8H732V50.8z"/>
			<path d="M733.9,50.8h0.3l0,0.6h0c0.4-0.4,0.8-0.7,1.3-0.7c0.8,0,1.2,0.5,1.2,1.5v2.5h-0.4v-2.4c0-0.8-0.3-1.2-0.9-1.2
				c-0.5,0-0.8,0.2-1.3,0.7v2.9h-0.4V50.8z"/>
		</g>
	</g>
	<g>
		<g>
			<path d="M660.3,87.4h1.2c1.6,0,2.4,1,2.4,2.6s-0.8,2.7-2.4,2.7h-1.2V87.4z M661.5,92.4c1.4,0,2-1,2-2.3s-0.6-2.3-2-2.3h-0.8v4.6
				H661.5z"/>
			<path d="M667.4,87.9h-2.7v-0.3h3.1v0.2c-1.2,1.6-1.5,2.9-1.6,4.9h-0.4C666,90.6,666.4,89.3,667.4,87.9z"/>
		</g>
	</g>
	<g>
		<g>
			<path d="M291.4,310.6h0.8l1.7,4.6c0.2,0.6,0.4,1.2,0.6,1.8h0c0.2-0.6,0.4-1.2,0.6-1.8l1.6-4.6h0.8v7.9H297v-5.2
				c0-0.6,0-1.5,0.1-2.1h0l-0.6,1.8l-1.7,4.7h-0.5l-1.7-4.7l-0.6-1.8h0c0,0.7,0.1,1.5,0.1,2.1v5.2h-0.5V310.6z"/>
			<path d="M299.4,315.7c0-1.9,1.2-3,2.6-3s2.6,1.1,2.6,3c0,1.9-1.2,3-2.6,3S299.4,317.6,299.4,315.7z M304,315.7
				c0-1.5-0.9-2.6-2-2.6s-2,1.1-2,2.6c0,1.5,0.9,2.5,2,2.5S304,317.2,304,315.7z"/>
			<path d="M306.4,317v-3.7h-0.9v-0.4l0.9,0l0.1-1.7h0.5v1.7h1.7v0.5h-1.7v3.7c0,0.7,0.2,1.2,1,1.2c0.2,0,0.5-0.1,0.7-0.2l0.1,0.4
				c-0.3,0.1-0.7,0.2-0.9,0.2C306.7,318.7,306.4,318,306.4,317z"/>
			<path d="M309.5,315.7c0-1.9,1.2-3,2.6-3s2.6,1.1,2.6,3c0,1.9-1.2,3-2.6,3S309.5,317.6,309.5,315.7z M314.1,315.7
				c0-1.5-0.9-2.6-2-2.6s-2,1.1-2,2.6c0,1.5,0.9,2.5,2,2.5S314.1,317.2,314.1,315.7z"/>
			<path d="M316.4,312.8h0.4l0.1,1.1h0c0.4-0.7,1-1.2,1.6-1.2c0.2,0,0.4,0,0.6,0.1l-0.1,0.5c-0.2-0.1-0.3-0.1-0.5-0.1
				c-0.5,0-1.1,0.4-1.6,1.5v3.9h-0.5V312.8z"/>
			<path d="M291.9,332.4L291.9,332.4l-0.1,0.6h-0.4v-8.6h0.5v2.5l0,1.1c0.6-0.5,1.3-0.9,2-0.9c1.5,0,2.3,1.2,2.3,2.9
				c0,2-1.2,3.1-2.5,3.1C293.1,333.1,292.5,332.8,291.9,332.4z M295.6,330c0-1.4-0.5-2.5-1.8-2.5c-0.6,0-1.2,0.3-1.9,1v3.4
				c0.6,0.5,1.3,0.7,1.7,0.7C294.8,332.6,295.6,331.5,295.6,330z"/>
			<path d="M297.5,331.5c0-1.3,1.2-1.9,3.7-2.2c0-0.9-0.2-1.8-1.4-1.8c-0.8,0-1.4,0.4-1.8,0.7l-0.2-0.4c0.4-0.3,1.2-0.7,2.1-0.7
				c1.4,0,1.8,1,1.8,2.2v3.7h-0.4l-0.1-0.7h0c-0.6,0.5-1.3,0.9-2,0.9C298.2,333.1,297.5,332.6,297.5,331.5z M301.2,331.7v-2
				c-2.4,0.3-3.2,0.8-3.2,1.7c0,0.8,0.6,1.1,1.2,1.1C299.9,332.6,300.5,332.3,301.2,331.7z"/>
			<path d="M303.9,331.4v-3.7H303v-0.4l0.9,0l0.1-1.7h0.5v1.7h1.7v0.5h-1.7v3.7c0,0.7,0.2,1.2,1,1.2c0.2,0,0.5-0.1,0.7-0.2l0.1,0.4
				c-0.3,0.1-0.7,0.2-0.9,0.2C304.2,333.1,303.9,332.4,303.9,331.4z"/>
			<path d="M307.7,331.4v-3.7h-0.9v-0.4l0.9,0l0.1-1.7h0.5v1.7h1.7v0.5h-1.7v3.7c0,0.7,0.2,1.2,1,1.2c0.2,0,0.5-0.1,0.7-0.2l0.1,0.4
				c-0.3,0.1-0.7,0.2-0.9,0.2C308,333.1,307.7,332.4,307.7,331.4z"/>
			<path d="M310.8,330.1c0-1.9,1.2-3,2.5-3c1.4,0,2.2,1,2.2,2.7c0,0.1,0,0.3,0,0.4h-4.1c0,1.5,0.9,2.5,2.2,2.5
				c0.6,0,1.1-0.2,1.5-0.5l0.2,0.4c-0.5,0.3-1,0.6-1.8,0.6C312,333.1,310.8,332,310.8,330.1z M315,329.7c0-1.5-0.7-2.2-1.7-2.2
				c-1,0-1.9,0.8-2,2.2H315z"/>
			<path d="M317.1,327.2h0.4l0.1,1.1h0c0.4-0.7,1-1.2,1.6-1.2c0.2,0,0.4,0,0.6,0.1l-0.1,0.5c-0.2-0.1-0.3-0.1-0.5-0.1
				c-0.5,0-1.1,0.4-1.6,1.5v3.9h-0.5V327.2z"/>
			<path d="M320,335.4l0.1-0.5c0.1,0,0.3,0.1,0.5,0.1c0.7,0,1.2-0.6,1.5-1.5l0.2-0.5l-2.4-5.9h0.6l1.4,3.6c0.2,0.5,0.4,1.1,0.6,1.6
				h0c0.2-0.5,0.4-1.1,0.5-1.6l1.2-3.6h0.5l-2.3,6.5c-0.3,1-0.9,1.9-1.9,1.9C320.4,335.6,320.2,335.5,320,335.4z"/>
		</g>
	</g>
	<g>
		<g>
			<path d="M149.2,135.3h0.6v7.4h3.6v0.5h-4.2V135.3z"/>
			<path d="M154.3,140.4c0-1.9,1.2-3,2.6-3s2.6,1.1,2.6,3c0,1.9-1.2,3-2.6,3S154.3,142.3,154.3,140.4z M158.9,140.4
				c0-1.5-0.9-2.6-2-2.6s-2,1.1-2,2.6c0,1.5,0.9,2.5,2,2.5S158.9,141.9,158.9,140.4z"/>
			<path d="M160.7,144.4c0-0.5,0.3-1,0.9-1.4v0c-0.3-0.2-0.5-0.5-0.5-0.9c0-0.5,0.4-0.9,0.6-1.1v0c-0.4-0.3-0.7-0.9-0.7-1.6
				c0-1.2,0.9-2,2-2c0.3,0,0.6,0.1,0.8,0.1h2v0.5h-1.3c0.4,0.3,0.6,0.8,0.6,1.4c0,1.2-0.9,2-2,2c-0.3,0-0.7-0.1-1-0.2
				c-0.2,0.2-0.5,0.4-0.5,0.8c0,0.4,0.2,0.7,1.1,0.7h1.2c1.3,0,1.9,0.4,1.9,1.3c0,1-1.1,1.9-2.7,1.9
				C161.6,146,160.7,145.4,160.7,144.4z M165.2,144.1c0-0.6-0.5-0.9-1.3-0.9h-1.2c-0.1,0-0.4,0-0.7-0.1c-0.5,0.4-0.8,0.8-0.8,1.2
				c0,0.7,0.7,1.2,1.9,1.2C164.4,145.6,165.2,144.8,165.2,144.1z M164.4,139.3c0-1-0.7-1.6-1.5-1.6c-0.8,0-1.5,0.6-1.5,1.6
				c0,1,0.7,1.6,1.5,1.6S164.4,140.3,164.4,139.3z"/>
			<path d="M166.8,135.6c0-0.3,0.2-0.5,0.5-0.5c0.3,0,0.5,0.2,0.5,0.5c0,0.3-0.2,0.5-0.5,0.5C167,136.1,166.8,135.9,166.8,135.6z
				 M167,137.5h0.5v5.8H167V137.5z"/>
			<path d="M169.3,140.4c0-1.9,1.2-3,2.6-3c0.8,0,1.3,0.3,1.7,0.7l-0.3,0.4c-0.4-0.3-0.8-0.6-1.4-0.6c-1.2,0-2.1,1.1-2.1,2.6
				c0,1.5,0.8,2.5,2.1,2.5c0.6,0,1.1-0.3,1.5-0.7l0.3,0.4c-0.5,0.4-1.1,0.8-1.8,0.8C170.4,143.4,169.3,142.3,169.3,140.4z"/>
			<path d="M149.7,157L149.7,157l-0.1,0.6h-0.4V149h0.5v2.5l0,1.1c0.6-0.5,1.3-0.9,2-0.9c1.5,0,2.3,1.2,2.3,2.9c0,2-1.2,3.1-2.5,3.1
				C150.8,157.8,150.2,157.5,149.7,157z M153.4,154.7c0-1.4-0.5-2.5-1.8-2.5c-0.6,0-1.2,0.3-1.9,1v3.4c0.6,0.5,1.3,0.7,1.7,0.7
				C152.5,157.3,153.4,156.2,153.4,154.7z"/>
			<path d="M155.2,156.2c0-1.3,1.2-1.9,3.7-2.2c0-0.9-0.2-1.8-1.4-1.8c-0.8,0-1.4,0.4-1.8,0.7l-0.2-0.4c0.4-0.3,1.2-0.7,2.1-0.7
				c1.4,0,1.8,1,1.8,2.2v3.7H159l-0.1-0.7h0c-0.6,0.5-1.3,0.9-2,0.9C156,157.8,155.2,157.3,155.2,156.2z M159,156.4v-2
				c-2.4,0.3-3.2,0.8-3.2,1.7c0,0.8,0.6,1.1,1.2,1.1C157.7,157.3,158.2,157,159,156.4z"/>
			<path d="M161.7,156v-3.7h-0.9v-0.4l0.9-0.1l0.1-1.7h0.5v1.7h1.7v0.5h-1.7v3.7c0,0.7,0.2,1.2,1,1.2c0.2,0,0.5-0.1,0.7-0.2l0.1,0.4
				c-0.3,0.1-0.7,0.2-0.9,0.2C162,157.8,161.7,157.1,161.7,156z"/>
			<path d="M165.4,156v-3.7h-0.9v-0.4l0.9-0.1l0.1-1.7h0.5v1.7h1.7v0.5h-1.7v3.7c0,0.7,0.2,1.2,1,1.2c0.2,0,0.5-0.1,0.7-0.2l0.1,0.4
				c-0.3,0.1-0.7,0.2-0.9,0.2C165.7,157.8,165.4,157.1,165.4,156z"/>
			<path d="M168.5,154.8c0-1.9,1.2-3,2.5-3c1.4,0,2.2,1,2.2,2.7c0,0.1,0,0.3,0,0.4h-4.1c0,1.5,0.9,2.5,2.2,2.5
				c0.6,0,1.1-0.2,1.5-0.5l0.2,0.4c-0.5,0.3-1,0.6-1.8,0.6C169.7,157.8,168.5,156.6,168.5,154.8z M172.8,154.4
				c0-1.5-0.7-2.2-1.7-2.2c-1,0-1.9,0.8-2,2.2H172.8z"/>
			<path d="M174.8,151.9h0.4l0.1,1.1h0c0.4-0.7,1-1.2,1.6-1.2c0.2,0,0.4,0,0.6,0.1l-0.1,0.5c-0.2-0.1-0.3-0.1-0.5-0.1
				c-0.5,0-1.1,0.4-1.6,1.5v3.9h-0.5V151.9z"/>
			<path d="M177.8,160.1l0.1-0.5c0.1,0,0.3,0.1,0.5,0.1c0.7,0,1.2-0.6,1.5-1.5l0.2-0.5l-2.4-5.9h0.6l1.4,3.6
				c0.2,0.5,0.4,1.1,0.6,1.6h0c0.2-0.5,0.4-1.1,0.5-1.6l1.2-3.6h0.5l-2.3,6.5c-0.3,1-0.9,1.9-1.9,1.9
				C178.2,160.2,178,160.2,177.8,160.1z"/>
		</g>
	</g>
	<g>
		<g>
			<path d="M33.4,102.2l0.4-0.4c0.6,0.6,1.4,1.1,2.3,1.1c1.2,0,2-0.6,2-1.6c0-1-0.6-1.3-1.4-1.7l-1.2-0.5c-0.7-0.3-1.6-0.8-1.6-2
				c0-1.1,1-1.9,2.3-1.9c1,0,1.7,0.4,2.2,0.9L38,96.5c-0.5-0.5-1.1-0.8-1.9-0.8c-1,0-1.7,0.6-1.7,1.4c0,0.9,0.8,1.3,1.4,1.5l1.2,0.5
				c0.9,0.4,1.7,0.9,1.7,2.1c0,1.2-1,2.1-2.5,2.1C34.9,103.4,34,102.9,33.4,102.2z"/>
			<path d="M39.7,100.4c0-1.9,1.2-3,2.6-3s2.6,1.1,2.6,3c0,1.9-1.2,3-2.6,3S39.7,102.3,39.7,100.4z M44.3,100.4c0-1.5-0.9-2.6-2-2.6
				s-2,1.1-2,2.6c0,1.5,0.9,2.5,2,2.5S44.3,101.9,44.3,100.4z"/>
			<path d="M46.6,102.5v-7.9h0.5v7.9c0,0.3,0.1,0.4,0.2,0.4c0.1,0,0.1,0,0.2,0l0.1,0.4c-0.1,0-0.2,0.1-0.4,0.1
				C46.9,103.4,46.6,103.1,46.6,102.5z"/>
			<path d="M49.1,101.8c0-1.3,1.2-1.9,3.7-2.2c0-0.9-0.2-1.8-1.4-1.8c-0.8,0-1.4,0.4-1.8,0.7l-0.2-0.4c0.4-0.3,1.2-0.7,2.1-0.7
				c1.4,0,1.8,1,1.8,2.2v3.7h-0.4l-0.1-0.7h0c-0.6,0.5-1.3,0.9-2,0.9C49.8,103.4,49.1,102.9,49.1,101.8z M52.8,102v-2
				c-2.4,0.3-3.2,0.8-3.2,1.7c0,0.8,0.6,1.1,1.2,1.1C51.5,102.9,52.1,102.6,52.8,102z"/>
			<path d="M55.4,97.5h0.4l0.1,1.1h0c0.4-0.7,1-1.2,1.6-1.2c0.2,0,0.4,0,0.6,0.1L58,97.9c-0.2-0.1-0.3-0.1-0.5-0.1
				c-0.5,0-1.1,0.4-1.6,1.5v3.9h-0.5V97.5z"/>
			<path d="M23.6,109.7h2c1.8,0,2.9,0.6,2.9,2.2c0,1.6-1.1,2.3-2.8,2.3h-1.5v3.4h-0.6V109.7z M25.5,113.8c1.6,0,2.4-0.5,2.4-1.8
				c0-1.3-0.8-1.7-2.4-1.7h-1.3v3.6H25.5z"/>
			<path d="M29.7,116.2c0-1.3,1.2-1.9,3.7-2.2c0-0.9-0.2-1.8-1.4-1.8c-0.8,0-1.4,0.4-1.8,0.7l-0.2-0.4c0.4-0.3,1.2-0.7,2.1-0.7
				c1.4,0,1.8,1,1.8,2.2v3.7h-0.4l-0.1-0.7h0c-0.6,0.5-1.3,0.9-2,0.9C30.5,117.8,29.7,117.3,29.7,116.2z M33.4,116.4v-2
				c-2.4,0.3-3.2,0.8-3.2,1.7c0,0.8,0.6,1.1,1.2,1.1C32.1,117.3,32.7,117,33.4,116.4z"/>
			<path d="M36,111.9h0.4l0.1,0.9h0c0.6-0.6,1.2-1,2-1c1.2,0,1.7,0.7,1.7,2.2v3.7h-0.5V114c0-1.2-0.4-1.8-1.3-1.8
				c-0.7,0-1.2,0.4-1.9,1.1v4.3H36V111.9z"/>
			<path d="M41.9,114.8c0-1.9,1.2-3,2.5-3c1.4,0,2.2,1,2.2,2.7c0,0.1,0,0.3,0,0.4h-4.1c0,1.5,0.9,2.5,2.2,2.5c0.6,0,1.1-0.2,1.5-0.5
				l0.2,0.4c-0.5,0.3-1,0.6-1.8,0.6C43.1,117.8,41.9,116.6,41.9,114.8z M46.1,114.4c0-1.5-0.7-2.2-1.7-2.2c-1,0-1.9,0.8-2,2.2H46.1z
				"/>
			<path d="M48.2,116.9V109h0.5v7.9c0,0.3,0.1,0.4,0.2,0.4c0.1,0,0.1,0,0.2,0l0.1,0.4c-0.1,0-0.2,0.1-0.4,0.1
				C48.4,117.8,48.2,117.5,48.2,116.9z"/>
			<path d="M53.3,117.2h1.8v-6.4h-1.4v-0.4c0.6-0.1,1.1-0.3,1.5-0.5h0.4v7.2h1.7v0.5h-4V117.2z"/>
		</g>
	</g>
	<g>
		<g>
			<path d="M157.7,318l0.4-0.4c0.6,0.6,1.4,1.1,2.3,1.1c1.2,0,2-0.6,2-1.6c0-1-0.6-1.3-1.4-1.7l-1.2-0.5c-0.7-0.3-1.6-0.8-1.6-2
				c0-1.1,1-1.9,2.3-1.9c1,0,1.7,0.4,2.2,0.9l-0.3,0.4c-0.5-0.5-1.1-0.8-1.9-0.8c-1,0-1.7,0.6-1.7,1.4c0,0.9,0.8,1.3,1.4,1.5
				l1.2,0.5c0.9,0.4,1.7,0.9,1.7,2.1c0,1.2-1,2.1-2.5,2.1C159.2,319.2,158.3,318.7,157.7,318z"/>
			<path d="M164,316.2c0-1.9,1.2-3,2.6-3s2.6,1.1,2.6,3c0,1.9-1.2,3-2.6,3S164,318.1,164,316.2z M168.6,316.2c0-1.5-0.9-2.6-2-2.6
				s-2,1.1-2,2.6c0,1.5,0.9,2.5,2,2.5S168.6,317.7,168.6,316.2z"/>
			<path d="M170.9,318.3v-7.9h0.5v7.9c0,0.3,0.1,0.4,0.2,0.4c0.1,0,0.1,0,0.2,0l0.1,0.4c-0.1,0-0.2,0.1-0.4,0.1
				C171.2,319.2,170.9,318.9,170.9,318.3z"/>
			<path d="M173.4,317.6c0-1.3,1.2-1.9,3.7-2.2c0-0.9-0.2-1.8-1.4-1.8c-0.8,0-1.4,0.4-1.8,0.7l-0.2-0.4c0.4-0.3,1.2-0.7,2.1-0.7
				c1.4,0,1.8,1,1.8,2.2v3.7h-0.4l-0.1-0.7h0c-0.6,0.5-1.3,0.9-2,0.9C174.1,319.2,173.4,318.7,173.4,317.6z M177.1,317.8v-2
				c-2.4,0.3-3.2,0.8-3.2,1.7c0,0.8,0.6,1.1,1.2,1.1C175.8,318.7,176.4,318.4,177.1,317.8z"/>
			<path d="M179.7,313.3h0.4l0.1,1.1h0c0.4-0.7,1-1.2,1.6-1.2c0.2,0,0.4,0,0.6,0.1l-0.1,0.5c-0.2-0.1-0.3-0.1-0.5-0.1
				c-0.5,0-1.1,0.4-1.6,1.5v3.9h-0.5V313.3z"/>
			<path d="M147.9,325.5h2c1.8,0,2.9,0.6,2.9,2.2c0,1.6-1.1,2.3-2.8,2.3h-1.5v3.4h-0.6V325.5z M149.8,329.6c1.6,0,2.4-0.5,2.4-1.8
				c0-1.3-0.8-1.7-2.4-1.7h-1.3v3.6H149.8z"/>
			<path d="M154,332c0-1.3,1.2-1.9,3.7-2.2c0-0.9-0.2-1.8-1.4-1.8c-0.8,0-1.4,0.4-1.8,0.7l-0.2-0.4c0.4-0.3,1.2-0.7,2.1-0.7
				c1.4,0,1.8,1,1.8,2.2v3.7h-0.4l-0.1-0.7h0c-0.6,0.5-1.3,0.9-2,0.9C154.8,333.6,154,333.1,154,332z M157.7,332.2v-2
				c-2.4,0.3-3.2,0.8-3.2,1.7c0,0.8,0.6,1.1,1.2,1.1C156.4,333.1,157,332.8,157.7,332.2z"/>
			<path d="M160.3,327.7h0.4l0.1,0.9h0c0.6-0.6,1.2-1,2-1c1.2,0,1.7,0.7,1.7,2.2v3.7H164v-3.6c0-1.2-0.4-1.8-1.3-1.8
				c-0.7,0-1.2,0.4-1.9,1.1v4.3h-0.5V327.7z"/>
			<path d="M166.2,330.6c0-1.9,1.2-3,2.5-3c1.4,0,2.2,1,2.2,2.7c0,0.1,0,0.3,0,0.4h-4.1c0,1.5,0.9,2.5,2.2,2.5
				c0.6,0,1.1-0.2,1.5-0.5l0.2,0.4c-0.5,0.3-1,0.6-1.8,0.6C167.4,333.6,166.2,332.5,166.2,330.6z M170.4,330.2
				c0-1.5-0.7-2.2-1.7-2.2c-1,0-1.9,0.8-2,2.2H170.4z"/>
			<path d="M172.5,332.7v-7.9h0.5v7.9c0,0.3,0.1,0.4,0.2,0.4c0.1,0,0.1,0,0.2,0l0.1,0.4c-0.1,0-0.2,0.1-0.4,0.1
				C172.7,333.6,172.5,333.3,172.5,332.7z"/>
			<path d="M177.1,333.1c2.5-2.6,3.8-4,3.8-5.3c0-1-0.5-1.7-1.7-1.7c-0.7,0-1.3,0.4-1.8,1l-0.3-0.3c0.6-0.6,1.3-1.1,2.2-1.1
				c1.4,0,2.2,0.9,2.2,2.1c0,1.5-1.4,3-3.5,5.2c0.4,0,0.9-0.1,1.3-0.1h2.6v0.5h-4.7V333.1z"/>
		</g>
	</g>
	<g>
		<g>
			<path d="M472,370.9h2.3c1.6,0,2.6,0.6,2.6,2.1c0,1.4-1,2.2-2.6,2.2h-1.7v3.6H472V370.9z M474.2,374.7c1.4,0,2.2-0.6,2.2-1.7
				c0-1.2-0.8-1.6-2.2-1.6h-1.6v3.3H474.2z M474.2,375l0.5-0.2l2.3,3.9h-0.6L474.2,375z"/>
			<path d="M478,375.9c0-1.9,1.2-3,2.5-3c1.4,0,2.2,1,2.2,2.7c0,0.1,0,0.3,0,0.4h-4.1c0,1.5,0.9,2.5,2.2,2.5c0.6,0,1.1-0.2,1.5-0.5
				l0.2,0.4c-0.5,0.3-1,0.6-1.8,0.6C479.2,378.9,478,377.8,478,375.9z M482.2,375.5c0-1.5-0.7-2.2-1.7-2.2c-1,0-1.9,0.8-2,2.2H482.2
				z"/>
			<path d="M484.3,378v-7.9h0.5v7.9c0,0.3,0.1,0.4,0.2,0.4c0.1,0,0.1,0,0.2,0l0.1,0.4c-0.1,0-0.2,0.1-0.4,0.1
				C484.5,378.9,484.3,378.6,484.3,378z"/>
			<path d="M486.7,377.3c0-1.3,1.2-1.9,3.7-2.2c0-0.9-0.2-1.8-1.4-1.8c-0.8,0-1.4,0.4-1.8,0.7l-0.2-0.4c0.4-0.3,1.2-0.7,2.1-0.7
				c1.4,0,1.8,1,1.8,2.2v3.7h-0.4l-0.1-0.7h0c-0.6,0.5-1.3,0.9-2,0.9C487.5,378.9,486.7,378.4,486.7,377.3z M490.4,377.5v-2
				c-2.4,0.3-3.2,0.8-3.2,1.7c0,0.8,0.6,1.1,1.2,1.1C489.1,378.5,489.7,378.1,490.4,377.5z"/>
			<path d="M492.2,381.3l0.1-0.5c0.1,0,0.3,0.1,0.5,0.1c0.7,0,1.2-0.6,1.5-1.5l0.2-0.5l-2.4-5.9h0.6l1.4,3.6
				c0.2,0.5,0.4,1.1,0.6,1.6h0c0.2-0.5,0.4-1.1,0.5-1.6l1.2-3.6h0.5l-2.3,6.5c-0.3,1-0.9,1.9-1.9,1.9
				C492.6,381.4,492.4,381.3,492.2,381.3z"/>
			<path d="M500.7,370.9h0.8l1.7,4.6c0.2,0.6,0.4,1.2,0.6,1.8h0c0.2-0.6,0.4-1.2,0.6-1.8l1.6-4.6h0.8v7.9h-0.5v-5.2
				c0-0.6,0-1.5,0.1-2.1h0l-0.6,1.8l-1.7,4.7h-0.5l-1.7-4.7l-0.6-1.8h0c0,0.7,0.1,1.5,0.1,2.1v5.2h-0.5V370.9z"/>
			<path d="M508.6,375.9c0-1.9,1.2-3,2.6-3s2.6,1.1,2.6,3c0,1.9-1.2,3-2.6,3S508.6,377.8,508.6,375.9z M513.3,375.9
				c0-1.5-0.9-2.6-2-2.6c-1.2,0-2,1.1-2,2.6s0.9,2.5,2,2.5C512.4,378.5,513.3,377.4,513.3,375.9z"/>
			<path d="M515.1,375.9c0-1.9,1.2-3,2.6-3c0.7,0,1.2,0.3,1.7,0.7l0-1.1v-2.4h0.5v8.6h-0.4l-0.1-0.7h0c-0.5,0.5-1.1,0.9-1.9,0.9
				C516,378.9,515.1,377.8,515.1,375.9z M519.3,377.5v-3.4c-0.6-0.5-1.1-0.7-1.7-0.7c-1.1,0-2,1.1-2,2.6c0,1.5,0.7,2.5,1.9,2.5
				C518.2,378.4,518.7,378.1,519.3,377.5z"/>
			<path d="M522,376.7V373h0.5v3.6c0,1.2,0.4,1.8,1.3,1.8c0.7,0,1.2-0.4,1.9-1.2V373h0.5v5.8h-0.4l-0.1-1h0c-0.6,0.7-1.2,1.1-2,1.1
				C522.5,378.9,522,378.2,522,376.7z"/>
			<path d="M528.4,378v-7.9h0.5v7.9c0,0.3,0.1,0.4,0.2,0.4c0,0,0.1,0,0.2,0l0.1,0.4c-0.1,0-0.2,0.1-0.4,0.1
				C528.7,378.9,528.4,378.6,528.4,378z"/>
			<path d="M530.8,375.9c0-1.9,1.2-3,2.5-3c1.4,0,2.2,1,2.2,2.7c0,0.1,0,0.3,0,0.4h-4.1c0,1.5,0.9,2.5,2.2,2.5
				c0.6,0,1.1-0.2,1.5-0.5l0.2,0.4c-0.5,0.3-1,0.6-1.8,0.6C532,378.9,530.8,377.8,530.8,375.9z M535,375.5c0-1.5-0.7-2.2-1.7-2.2
				c-1,0-1.9,0.8-2,2.2H535z"/>
		</g>
	</g>
	<g>
		<g>
			<path d="M441.5,183.3h0.6v7.4h3.6v0.5h-4.2V183.3z"/>
			<path d="M446.8,183.6c0-0.3,0.2-0.5,0.5-0.5c0.3,0,0.5,0.2,0.5,0.5c0,0.3-0.2,0.5-0.5,0.5C447.1,184,446.8,183.8,446.8,183.6z
				 M447,185.4h0.5v5.8H447V185.4z"/>
			<path d="M449.3,192.4c0-0.5,0.3-1,0.9-1.4v0c-0.3-0.2-0.5-0.5-0.5-0.9c0-0.5,0.4-0.9,0.6-1.1v0c-0.4-0.3-0.7-0.9-0.7-1.6
				c0-1.2,0.9-2,2-2c0.3,0,0.6,0.1,0.8,0.1h2v0.5h-1.3c0.4,0.3,0.6,0.8,0.6,1.4c0,1.2-0.9,2-2,2c-0.3,0-0.7-0.1-1-0.2
				c-0.2,0.2-0.5,0.4-0.5,0.8c0,0.4,0.2,0.7,1.1,0.7h1.2c1.3,0,1.9,0.4,1.9,1.3c0,1-1.1,1.9-2.7,1.9
				C450.2,194,449.3,193.3,449.3,192.4z M453.8,192.1c0-0.6-0.5-0.9-1.3-0.9h-1.2c-0.1,0-0.4,0-0.7-0.1c-0.5,0.4-0.8,0.8-0.8,1.2
				c0,0.7,0.7,1.2,1.9,1.2C453,193.5,453.8,192.8,453.8,192.1z M453.1,187.3c0-1-0.7-1.6-1.5-1.6c-0.8,0-1.5,0.6-1.5,1.6
				c0,1,0.7,1.6,1.5,1.6S453.1,188.3,453.1,187.3z"/>
			<path d="M455.6,182.6h0.5v2.5l0,1.3c0.6-0.6,1.2-1,2-1c1.2,0,1.7,0.7,1.7,2.2v3.7h-0.5v-3.6c0-1.2-0.4-1.8-1.3-1.8
				c-0.7,0-1.2,0.4-1.9,1.1v4.3h-0.5V182.6z"/>
			<path d="M462.1,189.6v-3.7h-0.9v-0.4l0.9-0.1l0.1-1.7h0.5v1.7h1.7v0.5h-1.7v3.7c0,0.7,0.2,1.2,1,1.2c0.2,0,0.5-0.1,0.7-0.2
				l0.1,0.4c-0.3,0.1-0.7,0.2-0.9,0.2C462.4,191.3,462.1,190.6,462.1,189.6z"/>
			<path d="M468.1,185.4h0.4l0.1,0.9h0c0.5-0.6,1.2-1,1.8-1c0.9,0,1.4,0.5,1.6,1.2c0.7-0.7,1.3-1.2,2-1.2c1.1,0,1.7,0.7,1.7,2.2v3.7
				h-0.5v-3.6c0-1.2-0.4-1.8-1.3-1.8c-0.5,0-1.1,0.4-1.7,1.1v4.3h-0.5v-3.6c0-1.2-0.4-1.8-1.3-1.8c-0.5,0-1.1,0.4-1.7,1.1v4.3h-0.5
				V185.4z"/>
			<path d="M477.4,188.3c0-1.9,1.2-3,2.5-3c1.4,0,2.2,1,2.2,2.7c0,0.1,0,0.3,0,0.4h-4.1c0,1.5,0.9,2.5,2.2,2.5
				c0.6,0,1.1-0.2,1.5-0.5l0.2,0.4c-0.5,0.3-1,0.6-1.8,0.6C478.6,191.3,477.4,190.2,477.4,188.3z M481.6,187.9
				c0-1.5-0.7-2.2-1.7-2.2c-1,0-1.9,0.8-2,2.2H481.6z"/>
			<path d="M483.8,189.6v-3.7h-0.9v-0.4l0.9-0.1l0.1-1.7h0.5v1.7h1.7v0.5h-1.7v3.7c0,0.7,0.2,1.2,1,1.2c0.2,0,0.5-0.1,0.7-0.2
				l0.1,0.4c-0.3,0.1-0.7,0.2-0.9,0.2C484.1,191.3,483.8,190.6,483.8,189.6z"/>
			<path d="M486.9,188.3c0-1.9,1.2-3,2.5-3c1.4,0,2.2,1,2.2,2.7c0,0.1,0,0.3,0,0.4h-4.1c0,1.5,0.9,2.5,2.2,2.5
				c0.6,0,1.1-0.2,1.5-0.5l0.2,0.4c-0.5,0.3-1,0.6-1.8,0.6C488.1,191.3,486.9,190.2,486.9,188.3z M491.1,187.9
				c0-1.5-0.7-2.2-1.7-2.2c-1,0-1.9,0.8-2,2.2H491.1z"/>
			<path d="M493.2,185.4h0.4l0.1,1.1h0c0.4-0.7,1-1.2,1.6-1.2c0.2,0,0.4,0,0.6,0.1l-0.1,0.5c-0.2-0.1-0.3-0.1-0.5-0.1
				c-0.5,0-1.1,0.4-1.6,1.5v3.9h-0.5V185.4z"/>
			<path d="M499.4,185.4h0.4l0.1,0.9h0c0.5-0.6,1.2-1,1.8-1c0.9,0,1.4,0.5,1.6,1.2c0.7-0.7,1.3-1.2,2-1.2c1.1,0,1.7,0.7,1.7,2.2v3.7
				h-0.5v-3.6c0-1.2-0.4-1.8-1.3-1.8c-0.5,0-1.1,0.4-1.7,1.1v4.3h-0.5v-3.6c0-1.2-0.4-1.8-1.3-1.8c-0.5,0-1.1,0.4-1.7,1.1v4.3h-0.5
				V185.4z"/>
			<path d="M508.6,188.3c0-1.9,1.2-3,2.6-3s2.6,1.1,2.6,3c0,1.9-1.2,3-2.6,3S508.6,190.2,508.6,188.3z M513.3,188.3
				c0-1.5-0.9-2.6-2-2.6s-2,1.1-2,2.6c0,1.5,0.9,2.5,2,2.5S513.3,189.8,513.3,188.3z"/>
			<path d="M515.1,188.3c0-1.9,1.2-3,2.6-3c0.7,0,1.2,0.3,1.7,0.7l0-1.1v-2.4h0.5v8.6h-0.4l-0.1-0.7h0c-0.5,0.5-1.1,0.9-1.9,0.9
				C516,191.3,515.1,190.3,515.1,188.3z M519.3,189.9v-3.4c-0.6-0.5-1.1-0.7-1.7-0.7c-1.1,0-2,1.1-2,2.6c0,1.5,0.7,2.5,1.9,2.5
				C518.2,190.9,518.7,190.5,519.3,189.9z"/>
			<path d="M522,189.1v-3.7h0.5v3.6c0,1.2,0.4,1.8,1.3,1.8c0.7,0,1.2-0.4,1.9-1.2v-4.3h0.5v5.8h-0.4l-0.1-1h0
				c-0.6,0.7-1.2,1.1-2,1.1C522.5,191.3,522,190.6,522,189.1z"/>
			<path d="M528.4,190.4v-7.9h0.5v7.9c0,0.3,0.1,0.4,0.2,0.4c0.1,0,0.1,0,0.2,0l0.1,0.4c-0.1,0-0.2,0.1-0.4,0.1
				C528.7,191.3,528.4,191,528.4,190.4z"/>
			<path d="M530.8,188.3c0-1.9,1.2-3,2.5-3c1.4,0,2.2,1,2.2,2.7c0,0.1,0,0.3,0,0.4h-4.1c0,1.5,0.9,2.5,2.2,2.5
				c0.6,0,1.1-0.2,1.5-0.5l0.2,0.4c-0.5,0.3-1,0.6-1.8,0.6C532,191.3,530.8,190.2,530.8,188.3z M535,187.9c0-1.5-0.7-2.2-1.7-2.2
				c-1,0-1.9,0.8-2,2.2H535z"/>
		</g>
	</g>
	<g>
		<g>
			<path d="M607,376.1v0.7l-4.1,1.4c-0.5,0.2-1,0.4-1.5,0.5v0c0.5,0.2,1,0.3,1.5,0.5l4.1,1.4v0.7h-6.9V381h4.6c0.6,0,1.3,0,1.9,0.1
				v0l-1.5-0.5l-4.1-1.5v-0.4l4.1-1.5l1.5-0.5v0c-0.6,0-1.3,0.1-1.9,0.1h-4.6v-0.4H607z"/>
		</g>
	</g>
	<g>
		<g>
			<path d="M510.2,158c0-2.5,1.4-4.1,3.5-4.1c1.1,0,1.7,0.5,2.2,0.9l-0.3,0.4c-0.4-0.4-1-0.8-1.8-0.8c-1.8,0-2.9,1.4-2.9,3.6
				c0,2.2,1.1,3.6,2.9,3.6c0.7,0,1.4-0.2,1.8-0.6v-2.5h-1.9v-0.5h2.4v3.1c-0.5,0.5-1.3,0.9-2.3,0.9
				C511.6,162.1,510.2,160.5,510.2,158z"/>
			<path d="M518,156.2h0.4l0.1,0.9h0c0.6-0.6,1.2-1,2-1c1.2,0,1.7,0.7,1.7,2.2v3.7h-0.5v-3.6c0-1.2-0.4-1.8-1.3-1.8
				c-0.7,0-1.2,0.4-1.9,1.1v4.3H518V156.2z"/>
			<path d="M523.9,159.1c0-1.9,1.2-3,2.6-3c0.7,0,1.2,0.3,1.7,0.7l0-1.1v-2.4h0.5v8.6h-0.4l-0.1-0.7h0c-0.5,0.5-1.1,0.9-1.9,0.9
				C524.8,162.1,523.9,161.1,523.9,159.1z M528.1,160.7v-3.4c-0.6-0.5-1.1-0.7-1.7-0.7c-1.1,0-2,1.1-2,2.6c0,1.5,0.7,2.5,1.9,2.5
				C526.9,161.7,527.5,161.3,528.1,160.7z"/>
		</g>
	</g>
	<g>
		<g>
			<path d="M506,132.3h0.6l2.8,7.9h-0.6l-1.6-4.7c-0.3-0.9-0.6-1.8-0.9-2.7h0c-0.3,1-0.6,1.8-0.9,2.7l-1.6,4.7h-0.6L506,132.3z
				 M504.5,137.1h3.5v0.5h-3.5V137.1z"/>
			<path d="M512.5,136.3c0-2.5,1.4-4.1,3.3-4.1c1.9,0,3.3,1.6,3.3,4.1c0,2.5-1.4,4.1-3.3,4.1C513.8,140.4,512.5,138.8,512.5,136.3z
				 M518.4,136.3c0-2.2-1.1-3.6-2.7-3.6c-1.6,0-2.7,1.4-2.7,3.6s1.1,3.6,2.7,3.6C517.3,139.9,518.4,138.4,518.4,136.3z"/>
			<path d="M520.7,138.2v-3.7h0.5v3.6c0,1.2,0.4,1.8,1.3,1.8c0.7,0,1.2-0.4,1.9-1.2v-4.3h0.5v5.8h-0.4l-0.1-1h0
				c-0.6,0.7-1.2,1.1-2,1.1C521.2,140.4,520.7,139.7,520.7,138.2z"/>
			<path d="M527.3,138.6v-3.7h-0.9v-0.4l0.9-0.1l0.1-1.7h0.5v1.7h1.7v0.5h-1.7v3.7c0,0.7,0.2,1.2,1,1.2c0.2,0,0.5-0.1,0.7-0.2
				l0.1,0.4c-0.3,0.1-0.7,0.2-0.9,0.2C527.6,140.4,527.3,139.7,527.3,138.6z"/>
		</g>
	</g>
	<g>
		<g>
			<path class="st30" d="M676.2,99.3v-7.9h0.5v7.9c0,0.3,0.1,0.4,0.2,0.4c0,0,0.1,0,0.2,0l0.1,0.4c-0.1,0-0.2,0.1-0.4,0.1
				C676.4,100.2,676.2,100,676.2,99.3z"/>
			<path class="st30" d="M678.8,92.5c0-0.3,0.2-0.5,0.5-0.5c0.3,0,0.5,0.2,0.5,0.5c0,0.3-0.2,0.5-0.5,0.5
				C679.1,92.9,678.8,92.7,678.8,92.5z M679,94.3h0.5v5.8H679V94.3z"/>
			<path class="st30" d="M681.3,101.3c0-0.5,0.3-1,0.9-1.4v0c-0.3-0.2-0.5-0.5-0.5-0.9c0-0.5,0.4-0.9,0.6-1.1v0
				c-0.4-0.3-0.7-0.9-0.7-1.6c0-1.2,0.9-2,2-2c0.3,0,0.6,0.1,0.8,0.1h2v0.5H685c0.4,0.3,0.6,0.8,0.6,1.4c0,1.2-0.9,2-2,2
				c-0.3,0-0.7-0.1-1-0.2c-0.2,0.2-0.5,0.4-0.5,0.8c0,0.4,0.2,0.7,1.1,0.7h1.2c1.3,0,1.9,0.4,1.9,1.3c0,1-1.1,1.9-2.7,1.9
				C682.2,102.9,681.3,102.2,681.3,101.3z M685.8,101c0-0.6-0.5-0.9-1.3-0.9h-1.2c-0.1,0-0.4,0-0.7-0.1c-0.5,0.4-0.8,0.8-0.8,1.2
				c0,0.7,0.7,1.2,1.9,1.2C685,102.4,685.8,101.7,685.8,101z M685.1,96.2c0-1-0.7-1.6-1.5-1.6s-1.5,0.6-1.5,1.6c0,1,0.7,1.6,1.5,1.6
				S685.1,97.2,685.1,96.2z"/>
			<path class="st30" d="M687.6,91.5h0.5V94l0,1.3c0.6-0.6,1.2-1,2-1c1.2,0,1.7,0.7,1.7,2.2v3.7h-0.5v-3.6c0-1.2-0.4-1.8-1.3-1.8
				c-0.7,0-1.2,0.4-1.9,1.1v4.3h-0.5V91.5z"/>
			<path class="st30" d="M694.1,98.5v-3.7h-0.9v-0.4l0.9-0.1l0.1-1.7h0.5v1.7h1.7v0.5h-1.7v3.7c0,0.7,0.2,1.2,1,1.2
				c0.2,0,0.5-0.1,0.7-0.2l0.1,0.4c-0.3,0.1-0.7,0.2-0.9,0.2C694.4,100.2,694.1,99.5,694.1,98.5z"/>
			<path class="st30" d="M697.8,92.2h0.8l1.7,4.6c0.2,0.6,0.4,1.2,0.6,1.8h0c0.2-0.6,0.4-1.2,0.6-1.8l1.6-4.6h0.8v7.9h-0.5v-5.2
				c0-0.6,0-1.5,0.1-2.1h0l-0.6,1.8l-1.7,4.7h-0.5l-1.7-4.7l-0.6-1.8h0c0,0.7,0.1,1.5,0.1,2.1v5.2h-0.5V92.2z"/>
			<path class="st30" d="M705.7,97.2c0-1.9,1.2-3,2.5-3c1.4,0,2.2,1,2.2,2.7c0,0.1,0,0.3,0,0.4h-4.1c0,1.5,0.9,2.5,2.2,2.5
				c0.6,0,1.1-0.2,1.5-0.5l0.2,0.4c-0.5,0.3-1,0.6-1.8,0.6C706.9,100.2,705.7,99.1,705.7,97.2z M709.9,96.9c0-1.5-0.7-2.2-1.7-2.2
				c-1,0-1.9,0.8-2,2.2H709.9z"/>
			<path class="st30" d="M712.1,98.5v-3.7h-0.9v-0.4l0.9-0.1l0.1-1.7h0.5v1.7h1.7v0.5h-1.7v3.7c0,0.7,0.2,1.2,1,1.2
				c0.2,0,0.5-0.1,0.7-0.2l0.1,0.4c-0.3,0.1-0.7,0.2-0.9,0.2C712.4,100.2,712.1,99.5,712.1,98.5z"/>
			<path class="st30" d="M715.2,97.2c0-1.9,1.2-3,2.5-3c1.4,0,2.2,1,2.2,2.7c0,0.1,0,0.3,0,0.4h-4.1c0,1.5,0.9,2.5,2.2,2.5
				c0.6,0,1.1-0.2,1.5-0.5l0.2,0.4c-0.5,0.3-1,0.6-1.8,0.6C716.4,100.2,715.2,99.1,715.2,97.2z M719.4,96.9c0-1.5-0.7-2.2-1.7-2.2
				c-1,0-1.9,0.8-2,2.2H719.4z"/>
			<path class="st30" d="M721.5,94.3h0.4l0.1,1.1h0c0.4-0.7,1-1.2,1.6-1.2c0.2,0,0.4,0,0.6,0.1l-0.1,0.5c-0.2-0.1-0.3-0.1-0.5-0.1
				c-0.5,0-1.1,0.4-1.6,1.5v3.9h-0.5V94.3z"/>
			<path class="st30" d="M725.4,92.2h2c1.8,0,2.9,0.6,2.9,2.2c0,1.6-1.1,2.3-2.8,2.3h-1.5v3.4h-0.6V92.2z M727.3,96.2
				c1.6,0,2.4-0.5,2.4-1.8c0-1.3-0.8-1.7-2.4-1.7h-1.3v3.6H727.3z"/>
			<path class="st30" d="M731.4,97.2c0-1.9,1.2-3,2.6-3s2.6,1.1,2.6,3c0,1.9-1.2,3-2.6,3S731.4,99.1,731.4,97.2z M736,97.2
				c0-1.5-0.9-2.6-2-2.6s-2,1.1-2,2.6c0,1.5,0.9,2.5,2,2.5S736,98.7,736,97.2z"/>
			<path class="st30" d="M737.5,94.3h0.6l1,3.7c0.1,0.5,0.3,1,0.4,1.5h0c0.1-0.5,0.3-1,0.4-1.5l1-3.7h0.6l1,3.7
				c0.1,0.5,0.3,1,0.4,1.5h0c0.1-0.5,0.3-1,0.4-1.5l1-3.7h0.5l-1.6,5.8h-0.7l-1-3.6c-0.2-0.6-0.3-1.1-0.4-1.6h0
				c-0.1,0.6-0.3,1.1-0.5,1.7l-1,3.6h-0.6L737.5,94.3z"/>
			<path class="st30" d="M746,97.2c0-1.9,1.2-3,2.5-3c1.4,0,2.2,1,2.2,2.7c0,0.1,0,0.3,0,0.4h-4.1c0,1.5,0.9,2.5,2.2,2.5
				c0.6,0,1.1-0.2,1.5-0.5l0.2,0.4c-0.5,0.3-1,0.6-1.8,0.6C747.2,100.2,746,99.1,746,97.2z M750.3,96.9c0-1.5-0.7-2.2-1.7-2.2
				c-1,0-1.9,0.8-2,2.2H750.3z"/>
			<path class="st30" d="M752.3,94.3h0.4l0.1,1.1h0c0.4-0.7,1-1.2,1.6-1.2c0.2,0,0.4,0,0.6,0.1l-0.1,0.5c-0.2-0.1-0.3-0.1-0.5-0.1
				c-0.5,0-1.1,0.4-1.6,1.5v3.9h-0.5V94.3z"/>
		</g>
	</g>
	<g>
		<g>
			<path class="st30" d="M736.7,252.7c0-1.9,1.2-3,2.5-3c1.4,0,2.2,1,2.2,2.7c0,0.1,0,0.3,0,0.4h-4.1c0,1.5,0.9,2.5,2.2,2.5
				c0.6,0,1.1-0.2,1.5-0.5l0.2,0.4c-0.5,0.3-1,0.6-1.8,0.6C737.9,255.7,736.7,254.6,736.7,252.7z M740.9,252.3
				c0-1.5-0.7-2.2-1.7-2.2c-1,0-1.9,0.8-2,2.2H740.9z"/>
			<path class="st30" d="M743,249.8h0.4l0.1,1.1h0c0.4-0.7,1-1.2,1.6-1.2c0.2,0,0.4,0,0.6,0.1l-0.1,0.5c-0.2-0.1-0.3-0.1-0.5-0.1
				c-0.5,0-1.1,0.4-1.6,1.5v3.9H743V249.8z"/>
			<path class="st30" d="M746.8,249.8h0.4l0.1,1.1h0c0.4-0.7,1-1.2,1.6-1.2c0.2,0,0.4,0,0.6,0.1l-0.1,0.5c-0.2-0.1-0.3-0.1-0.5-0.1
				c-0.5,0-1.1,0.4-1.6,1.5v3.9h-0.5V249.8z"/>
			<path class="st30" d="M750.1,252.7c0-1.9,1.2-3,2.6-3s2.6,1.1,2.6,3c0,1.9-1.2,3-2.6,3S750.1,254.6,750.1,252.7z M754.7,252.7
				c0-1.5-0.9-2.6-2-2.6c-1.2,0-2,1.1-2,2.6s0.9,2.5,2,2.5C753.9,255.2,754.7,254.2,754.7,252.7z"/>
			<path class="st30" d="M757,249.8h0.4l0.1,1.1h0c0.4-0.7,1-1.2,1.6-1.2c0.2,0,0.4,0,0.6,0.1l-0.1,0.5c-0.2-0.1-0.3-0.1-0.5-0.1
				c-0.5,0-1.1,0.4-1.6,1.5v3.9H757V249.8z"/>
			<path class="st30" d="M760.9,247.6h0.6v7.4h3.6v0.5h-4.2V247.6z"/>
			<path class="st30" d="M766.5,247.6h4.3v0.5h-3.8v3h3.2v0.5h-3.2v3.5h3.9v0.5h-4.4V247.6z"/>
			<path class="st30" d="M772.7,247.6h1.8c2.4,0,3.6,1.5,3.6,3.9s-1.2,4-3.6,4h-1.8V247.6z M774.5,255.1c2.1,0,3.1-1.4,3.1-3.5
				s-0.9-3.5-3.1-3.5h-1.2v7H774.5z"/>
		</g>
	</g>
	<g>
		<g>
			<path class="st30" d="M694.5,193.9c0-1.9,1.2-3,2.6-3c0.7,0,1.2,0.3,1.7,0.7l0-1.1v-2.4h0.5v8.6h-0.4l-0.1-0.7h0
				c-0.5,0.5-1.1,0.9-1.9,0.9C695.4,196.9,694.5,195.9,694.5,193.9z M698.7,195.5v-3.4c-0.6-0.5-1.1-0.7-1.7-0.7c-1.1,0-2,1.1-2,2.6
				c0,1.5,0.7,2.5,1.9,2.5C697.5,196.5,698.1,196.1,698.7,195.5z"/>
			<path class="st30" d="M701,193.9c0-1.9,1.2-3,2.6-3s2.6,1.1,2.6,3c0,1.9-1.2,3-2.6,3S701,195.8,701,193.9z M705.6,193.9
				c0-1.5-0.9-2.6-2-2.6c-1.2,0-2,1.1-2,2.6c0,1.5,0.9,2.5,2,2.5C704.7,196.5,705.6,195.5,705.6,193.9z"/>
			<path class="st30" d="M707.4,193.9c0-1.9,1.2-3,2.6-3c1.4,0,2.6,1.1,2.6,3c0,1.9-1.2,3-2.6,3
				C708.6,196.9,707.4,195.8,707.4,193.9z M712,193.9c0-1.5-0.9-2.6-2-2.6c-1.2,0-2,1.1-2,2.6c0,1.5,0.9,2.5,2,2.5
				C711.1,196.5,712,195.5,712,193.9z"/>
			<path class="st30" d="M714.3,191h0.4l0.1,1.1h0c0.4-0.7,1-1.2,1.6-1.2c0.2,0,0.4,0,0.6,0.1l-0.1,0.5c-0.2-0.1-0.3-0.1-0.5-0.1
				c-0.5,0-1.1,0.4-1.6,1.5v3.9h-0.5V191z"/>
			<path class="st30" d="M718.2,188.9h1.8c2.4,0,3.6,1.5,3.6,3.9s-1.2,4-3.6,4h-1.8V188.9z M719.9,196.3c2.1,0,3.1-1.4,3.1-3.5
				s-0.9-3.5-3.1-3.5h-1.2v7H719.9z"/>
			<path class="st30" d="M724.9,193.9c0-1.9,1.2-3,2.6-3s2.6,1.1,2.6,3c0,1.9-1.2,3-2.6,3S724.9,195.8,724.9,193.9z M729.5,193.9
				c0-1.5-0.9-2.6-2-2.6c-1.2,0-2,1.1-2,2.6c0,1.5,0.9,2.5,2,2.5C728.6,196.5,729.5,195.5,729.5,193.9z"/>
			<path class="st30" d="M731,191h0.6l1,3.7c0.1,0.5,0.3,1,0.4,1.5h0c0.1-0.5,0.3-1,0.4-1.5l1-3.7h0.6l1.1,3.7
				c0.1,0.5,0.3,1,0.4,1.5h0c0.1-0.5,0.3-1,0.4-1.5l1-3.7h0.5l-1.6,5.8h-0.7l-1-3.6c-0.2-0.6-0.3-1.1-0.4-1.6h0
				c-0.1,0.6-0.3,1.1-0.5,1.7l-1,3.6h-0.6L731,191z"/>
			<path class="st30" d="M740,191h0.4l0.1,0.9h0c0.6-0.6,1.2-1,2-1c1.2,0,1.7,0.7,1.7,2.2v3.7h-0.5v-3.6c0-1.2-0.4-1.8-1.3-1.8
				c-0.7,0-1.2,0.4-1.9,1.1v4.3H740V191z"/>
			<path class="st30" d="M745.8,195.8l0.4-0.4c0.6,0.6,1.4,1.1,2.3,1.1c1.2,0,2-0.6,2-1.6c0-1-0.6-1.3-1.4-1.7l-1.2-0.5
				c-0.7-0.3-1.6-0.8-1.6-2c0-1.1,1-1.9,2.3-1.9c1,0,1.7,0.4,2.2,0.9l-0.3,0.4c-0.5-0.5-1.1-0.8-1.9-0.8c-1,0-1.7,0.6-1.7,1.4
				c0,0.9,0.8,1.3,1.4,1.5l1.2,0.5c0.9,0.4,1.7,0.9,1.7,2.1c0,1.2-1,2.1-2.5,2.1C747.3,196.9,746.4,196.5,745.8,195.8z"/>
			<path class="st30" d="M752.1,193.9c0-1.9,1.2-3,2.5-3c1.4,0,2.2,1,2.2,2.7c0,0.1,0,0.3,0,0.4h-4.1c0,1.5,0.9,2.5,2.2,2.5
				c0.6,0,1.1-0.2,1.5-0.5l0.2,0.4c-0.5,0.3-1,0.6-1.8,0.6C753.3,196.9,752.1,195.8,752.1,193.9z M756.3,193.6
				c0-1.5-0.7-2.2-1.7-2.2c-1,0-1.9,0.8-2,2.2H756.3z"/>
			<path class="st30" d="M758.4,191h0.4l0.1,0.9h0c0.6-0.6,1.2-1,2-1c1.2,0,1.7,0.7,1.7,2.2v3.7h-0.5v-3.6c0-1.2-0.4-1.8-1.3-1.8
				c-0.7,0-1.2,0.4-1.9,1.1v4.3h-0.5V191z"/>
			<path class="st30" d="M764.1,196.2l0.3-0.4c0.5,0.4,1,0.7,1.8,0.7c0.9,0,1.4-0.5,1.4-1.1c0-0.7-0.7-1-1.4-1.3
				c-0.9-0.3-1.8-0.7-1.8-1.6c0-0.8,0.7-1.5,1.9-1.5c0.6,0,1.2,0.3,1.6,0.6l-0.3,0.4c-0.4-0.3-0.8-0.5-1.4-0.5c-0.9,0-1.3,0.5-1.3,1
				c0,0.7,0.7,0.9,1.4,1.2c0.9,0.3,1.9,0.6,1.9,1.8c0,0.9-0.7,1.6-1.9,1.6C765.3,196.9,764.6,196.6,764.1,196.2z"/>
			<path class="st30" d="M769.2,193.9c0-1.9,1.2-3,2.6-3s2.6,1.1,2.6,3c0,1.9-1.2,3-2.6,3S769.2,195.8,769.2,193.9z M773.8,193.9
				c0-1.5-0.9-2.6-2-2.6c-1.2,0-2,1.1-2,2.6c0,1.5,0.9,2.5,2,2.5C772.9,196.5,773.8,195.5,773.8,193.9z"/>
			<path class="st30" d="M776.1,191h0.4l0.1,1.1h0c0.4-0.7,1-1.2,1.6-1.2c0.2,0,0.4,0,0.6,0.1l-0.1,0.5c-0.2-0.1-0.3-0.1-0.5-0.1
				c-0.5,0-1.1,0.4-1.6,1.5v3.9h-0.5V191z"/>
		</g>
	</g>
	<g>
		<g>
			<path class="st30" d="M708.6,158.9c0-1.9,1.2-3,2.6-3c0.7,0,1.2,0.3,1.7,0.7l0-1.1v-2.4h0.5v8.6h-0.4l-0.1-0.7h0
				c-0.5,0.5-1.1,0.9-1.9,0.9C709.5,161.9,708.6,160.8,708.6,158.9z M712.8,160.5v-3.4c-0.6-0.5-1.1-0.7-1.7-0.7c-1.1,0-2,1.1-2,2.6
				c0,1.5,0.7,2.5,1.9,2.5C711.7,161.4,712.2,161.1,712.8,160.5z"/>
			<path class="st30" d="M715.1,158.9c0-1.9,1.2-3,2.6-3c1.4,0,2.6,1.1,2.6,3c0,1.9-1.2,3-2.6,3
				C716.3,161.9,715.1,160.8,715.1,158.9z M719.7,158.9c0-1.5-0.9-2.6-2-2.6c-1.2,0-2,1.1-2,2.6c0,1.5,0.9,2.5,2,2.5
				C718.8,161.4,719.7,160.4,719.7,158.9z"/>
			<path class="st30" d="M721.5,158.9c0-1.9,1.2-3,2.6-3s2.6,1.1,2.6,3c0,1.9-1.2,3-2.6,3S721.5,160.8,721.5,158.9z M726.1,158.9
				c0-1.5-0.9-2.6-2-2.6c-1.2,0-2,1.1-2,2.6c0,1.5,0.9,2.5,2,2.5C725.3,161.4,726.1,160.4,726.1,158.9z"/>
			<path class="st30" d="M728.4,156h0.4l0.1,1.1h0c0.4-0.7,1-1.2,1.6-1.2c0.2,0,0.4,0,0.6,0.1l-0.1,0.5c-0.2-0.1-0.3-0.1-0.5-0.1
				c-0.5,0-1.1,0.4-1.6,1.5v3.9h-0.5V156z"/>
			<path class="st30" d="M732.3,158.7v-4.9h0.6v4.8c0,2.1,1,2.7,2.1,2.7c1.1,0,2.1-0.6,2.1-2.7v-4.8h0.5v4.9c0,2.5-1.3,3.2-2.7,3.2
				C733.6,161.9,732.3,161.2,732.3,158.7z"/>
			<path class="st30" d="M739.8,156h0.4l0.1,0.7h0c0.6-0.5,1.2-0.9,2-0.9c1.5,0,2.3,1.2,2.3,2.9c0,2-1.2,3.1-2.5,3.1
				c-0.5,0-1.1-0.3-1.7-0.7l0,1.1v2.1h-0.5V156z M744.1,158.8c0-1.4-0.5-2.5-1.8-2.5c-0.6,0-1.2,0.3-1.9,0.9v3.4
				c0.7,0.5,1.3,0.7,1.7,0.7C743.2,161.4,744.1,160.4,744.1,158.8z"/>
			<path class="st30" d="M745.8,160.7l0.4-0.4c0.6,0.6,1.4,1.1,2.3,1.1c1.2,0,2-0.6,2-1.6c0-1-0.6-1.3-1.4-1.7l-1.2-0.5
				c-0.7-0.3-1.6-0.8-1.6-2c0-1.1,1-1.9,2.3-1.9c1,0,1.7,0.4,2.2,0.9l-0.3,0.4c-0.5-0.5-1.1-0.8-1.9-0.8c-1,0-1.7,0.6-1.7,1.4
				c0,0.9,0.8,1.3,1.4,1.5l1.2,0.5c0.9,0.4,1.7,0.9,1.7,2.1c0,1.2-1,2.1-2.5,2.1C747.3,161.9,746.4,161.4,745.8,160.7z"/>
			<path class="st30" d="M752.1,158.9c0-1.9,1.2-3,2.5-3c1.4,0,2.2,1,2.2,2.7c0,0.1,0,0.3,0,0.4h-4.1c0,1.5,0.9,2.5,2.2,2.5
				c0.6,0,1.1-0.2,1.5-0.5l0.2,0.4c-0.5,0.3-1,0.6-1.8,0.6C753.3,161.9,752.1,160.8,752.1,158.9z M756.3,158.5
				c0-1.5-0.7-2.2-1.7-2.2c-1,0-1.9,0.8-2,2.2H756.3z"/>
			<path class="st30" d="M758.4,156h0.4l0.1,0.9h0c0.6-0.6,1.2-1,2-1c1.2,0,1.7,0.7,1.7,2.2v3.7h-0.5v-3.6c0-1.2-0.4-1.8-1.3-1.8
				c-0.7,0-1.2,0.4-1.9,1.1v4.3h-0.5V156z"/>
			<path class="st30" d="M764.1,161.1l0.3-0.4c0.5,0.4,1,0.7,1.8,0.7c0.9,0,1.4-0.5,1.4-1.1c0-0.7-0.7-1-1.4-1.3
				c-0.9-0.3-1.8-0.7-1.8-1.6c0-0.8,0.7-1.5,1.9-1.5c0.6,0,1.2,0.3,1.6,0.6l-0.3,0.4c-0.4-0.3-0.8-0.5-1.4-0.5c-0.9,0-1.3,0.5-1.3,1
				c0,0.7,0.7,0.9,1.4,1.2c0.9,0.3,1.9,0.6,1.9,1.8c0,0.9-0.7,1.6-1.9,1.6C765.3,161.9,764.6,161.5,764.1,161.1z"/>
			<path class="st30" d="M769.2,158.9c0-1.9,1.2-3,2.6-3s2.6,1.1,2.6,3c0,1.9-1.2,3-2.6,3S769.2,160.8,769.2,158.9z M773.8,158.9
				c0-1.5-0.9-2.6-2-2.6c-1.2,0-2,1.1-2,2.6c0,1.5,0.9,2.5,2,2.5C772.9,161.4,773.8,160.4,773.8,158.9z"/>
			<path class="st30" d="M776.1,156h0.4l0.1,1.1h0c0.4-0.7,1-1.2,1.6-1.2c0.2,0,0.4,0,0.6,0.1l-0.1,0.5c-0.2-0.1-0.3-0.1-0.5-0.1
				c-0.5,0-1.1,0.4-1.6,1.5v3.9h-0.5V156z"/>
		</g>
	</g>
	<g>
		<g>
			<path class="st30" d="M676.7,293.5L676.7,293.5l-0.1,0.6h-0.4v-8.6h0.5v2.5l0,1.1c0.6-0.5,1.3-0.9,2-0.9c1.5,0,2.3,1.2,2.3,2.9
				c0,2-1.2,3.1-2.5,3.1C677.9,294.2,677.3,294,676.7,293.5z M680.4,291.1c0-1.4-0.5-2.5-1.8-2.5c-0.6,0-1.2,0.3-1.9,0.9v3.4
				c0.6,0.5,1.3,0.7,1.7,0.7C679.6,293.8,680.4,292.7,680.4,291.1z"/>
			<path class="st30" d="M682.3,292.7c0-1.3,1.2-1.9,3.7-2.2c0-0.9-0.2-1.8-1.4-1.8c-0.8,0-1.4,0.4-1.8,0.7l-0.2-0.4
				c0.4-0.3,1.2-0.7,2.1-0.7c1.4,0,1.8,1,1.8,2.2v3.7h-0.4l-0.1-0.7h0c-0.6,0.5-1.3,0.9-2,0.9C683.1,294.2,682.3,293.7,682.3,292.7z
				 M686,292.9v-2c-2.4,0.3-3.2,0.8-3.2,1.7c0,0.8,0.6,1.1,1.2,1.1C684.7,293.8,685.3,293.5,686,292.9z"/>
			<path class="st30" d="M688.1,291.2c0-1.9,1.2-3,2.6-3c0.8,0,1.3,0.3,1.7,0.7l-0.3,0.4c-0.4-0.3-0.8-0.6-1.4-0.6
				c-1.2,0-2.1,1.1-2.1,2.6c0,1.5,0.8,2.5,2.1,2.5c0.6,0,1.1-0.3,1.5-0.7l0.3,0.4c-0.5,0.4-1.1,0.8-1.8,0.8
				C689.2,294.2,688.1,293.1,688.1,291.2z"/>
			<path class="st30" d="M694,285.5h0.5v6.4h0l2.8-3.5h0.6l-1.9,2.3l2.2,3.5h-0.6l-1.9-3.1l-1.3,1.5v1.6H694V285.5z"/>
			<path class="st30" d="M698.7,288.3h0.6l1,3.7c0.1,0.5,0.3,1,0.4,1.5h0c0.1-0.5,0.3-1,0.4-1.5l1-3.7h0.6l1.1,3.7
				c0.1,0.5,0.3,1,0.4,1.5h0c0.1-0.5,0.3-1,0.4-1.5l1-3.7h0.5l-1.6,5.8H704l-1-3.6c-0.2-0.6-0.3-1.1-0.4-1.6h0
				c-0.1,0.6-0.3,1.1-0.5,1.7l-1,3.6h-0.6L698.7,288.3z"/>
			<path class="st30" d="M707.3,292.7c0-1.3,1.2-1.9,3.7-2.2c0-0.9-0.2-1.8-1.4-1.8c-0.8,0-1.4,0.4-1.8,0.7l-0.2-0.4
				c0.4-0.3,1.2-0.7,2.1-0.7c1.4,0,1.8,1,1.8,2.2v3.7h-0.4l-0.1-0.7h0c-0.6,0.5-1.3,0.9-2,0.9C708.1,294.2,707.3,293.7,707.3,292.7z
				 M711.1,292.9v-2c-2.4,0.3-3.2,0.8-3.2,1.7c0,0.8,0.6,1.1,1.2,1.1C709.8,293.8,710.3,293.5,711.1,292.9z"/>
			<path class="st30" d="M713.7,288.3h0.4l0.1,1.1h0c0.4-0.7,1-1.2,1.6-1.2c0.2,0,0.4,0,0.6,0.1l-0.1,0.5c-0.2-0.1-0.3-0.1-0.5-0.1
				c-0.5,0-1.1,0.4-1.6,1.5v3.9h-0.5V288.3z"/>
			<path class="st30" d="M717,291.2c0-1.9,1.2-3,2.6-3c0.7,0,1.2,0.3,1.7,0.7l0-1.1v-2.4h0.5v8.6h-0.4l-0.1-0.7h0
				c-0.5,0.5-1.1,0.9-1.9,0.9C717.9,294.2,717,293.2,717,291.2z M721.2,292.8v-3.4c-0.6-0.5-1.1-0.7-1.7-0.7c-1.1,0-2,1.1-2,2.6
				c0,1.5,0.7,2.5,1.9,2.5C720.1,293.8,720.6,293.4,721.2,292.8z"/>
		</g>
	</g>
	<g>
		<g>
			<path class="st30" d="M675.5,264.9l0.8-0.1h1.8v0.5h-2.7V264.9z M676.3,263.5c0-1.1,0.5-1.7,1.4-1.7c0.3,0,0.6,0.1,0.8,0.2
				l-0.1,0.4c-0.2-0.1-0.5-0.2-0.7-0.2c-0.6,0-0.9,0.5-0.9,1.3v7h-0.5V263.5z"/>
			<path class="st30" d="M678.9,267.7c0-1.9,1.2-3,2.6-3s2.6,1.1,2.6,3c0,1.9-1.2,3-2.6,3S678.9,269.6,678.9,267.7z M683.5,267.7
				c0-1.5-0.9-2.6-2-2.6c-1.2,0-2,1.1-2,2.6s0.9,2.5,2,2.5C682.6,270.3,683.5,269.2,683.5,267.7z"/>
			<path class="st30" d="M685.8,264.8h0.4l0.1,1.1h0c0.4-0.7,1-1.2,1.6-1.2c0.2,0,0.4,0,0.6,0.1l-0.1,0.5c-0.2-0.1-0.3-0.1-0.5-0.1
				c-0.5,0-1.1,0.4-1.6,1.5v3.9h-0.5V264.8z"/>
			<path class="st30" d="M688.8,264.8h0.6l1,3.7c0.1,0.5,0.3,1,0.4,1.5h0c0.1-0.5,0.3-1,0.4-1.5l1-3.7h0.6l1.1,3.7
				c0.1,0.5,0.3,1,0.4,1.5h0c0.1-0.5,0.3-1,0.4-1.5l1-3.7h0.5l-1.6,5.8h-0.7l-1-3.6c-0.2-0.6-0.3-1.1-0.4-1.6h0
				c-0.1,0.6-0.3,1.1-0.5,1.7l-1,3.6h-0.6L688.8,264.8z"/>
			<path class="st30" d="M697.4,269.1c0-1.3,1.2-1.9,3.7-2.2c0-0.9-0.2-1.8-1.4-1.8c-0.8,0-1.4,0.4-1.8,0.7l-0.2-0.4
				c0.4-0.3,1.2-0.7,2.1-0.7c1.4,0,1.8,1,1.8,2.2v3.7h-0.4l-0.1-0.7h0c-0.6,0.5-1.3,0.9-2,0.9C698.1,270.7,697.4,270.2,697.4,269.1z
				 M701.1,269.3v-2c-2.4,0.3-3.2,0.8-3.2,1.7c0,0.8,0.6,1.1,1.2,1.1C699.8,270.3,700.4,269.9,701.1,269.3z"/>
			<path class="st30" d="M703.7,264.8h0.4l0.1,1.1h0c0.4-0.7,1-1.2,1.6-1.2c0.2,0,0.4,0,0.6,0.1l-0.1,0.5c-0.2-0.1-0.3-0.1-0.5-0.1
				c-0.5,0-1.1,0.4-1.6,1.5v3.9h-0.5V264.8z"/>
			<path class="st30" d="M707,267.7c0-1.9,1.2-3,2.6-3c0.7,0,1.2,0.3,1.7,0.7l0-1.1v-2.4h0.5v8.6h-0.4l-0.1-0.7h0
				c-0.5,0.5-1.1,0.9-1.9,0.9C707.9,270.7,707,269.7,707,267.7z M711.3,269.3v-3.4c-0.6-0.5-1.1-0.7-1.7-0.7c-1.1,0-2,1.1-2,2.6
				c0,1.5,0.7,2.5,1.9,2.5C710.1,270.2,710.7,269.9,711.3,269.3z"/>
		</g>
	</g>
	<g>
		<g>
			<path class="st30" d="M676.2,121.7v-7.9h0.5v7.9c0,0.3,0.1,0.4,0.2,0.4c0,0,0.1,0,0.2,0l0.1,0.4c-0.1,0-0.2,0.1-0.4,0.1
				C676.4,122.6,676.2,122.3,676.2,121.7z"/>
			<path class="st30" d="M678.8,114.8c0-0.3,0.2-0.5,0.5-0.5c0.3,0,0.5,0.2,0.5,0.5c0,0.3-0.2,0.5-0.5,0.5
				C679.1,115.3,678.8,115.1,678.8,114.8z M679,116.7h0.5v5.8H679V116.7z"/>
			<path class="st30" d="M681.3,123.6c0-0.5,0.3-1,0.9-1.4v0c-0.3-0.2-0.5-0.5-0.5-0.9c0-0.5,0.4-0.9,0.6-1.1v0
				c-0.4-0.3-0.7-0.9-0.7-1.6c0-1.2,0.9-2,2-2c0.3,0,0.6,0.1,0.8,0.1h2v0.5H685c0.4,0.3,0.6,0.8,0.6,1.4c0,1.2-0.9,2-2,2
				c-0.3,0-0.7-0.1-1-0.2c-0.2,0.2-0.5,0.4-0.5,0.8c0,0.4,0.2,0.7,1.1,0.7h1.2c1.3,0,1.9,0.4,1.9,1.3c0,1-1.1,1.9-2.7,1.9
				C682.2,125.2,681.3,124.6,681.3,123.6z M685.8,123.3c0-0.6-0.5-0.9-1.3-0.9h-1.2c-0.1,0-0.4,0-0.7-0.1c-0.5,0.4-0.8,0.8-0.8,1.2
				c0,0.7,0.7,1.2,1.9,1.2C685,124.8,685.8,124.1,685.8,123.3z M685.1,118.6c0-1-0.7-1.6-1.5-1.6s-1.5,0.6-1.5,1.6
				c0,1,0.7,1.6,1.5,1.6S685.1,119.6,685.1,118.6z"/>
			<path class="st30" d="M687.6,113.8h0.5v2.5l0,1.3c0.6-0.6,1.2-1,2-1c1.2,0,1.7,0.7,1.7,2.2v3.7h-0.5v-3.6c0-1.2-0.4-1.8-1.3-1.8
				c-0.7,0-1.2,0.4-1.9,1.1v4.3h-0.5V113.8z"/>
			<path class="st30" d="M694.1,120.9v-3.7h-0.9v-0.4l0.9-0.1l0.1-1.7h0.5v1.7h1.7v0.5h-1.7v3.7c0,0.7,0.2,1.2,1,1.2
				c0.2,0,0.5-0.1,0.7-0.2l0.1,0.4c-0.3,0.1-0.7,0.2-0.9,0.2C694.4,122.6,694.1,121.9,694.1,120.9z"/>
			<path class="st30" d="M697.8,114.6h0.8l1.7,4.6c0.2,0.6,0.4,1.2,0.6,1.8h0c0.2-0.6,0.4-1.2,0.6-1.8l1.6-4.6h0.8v7.9h-0.5v-5.2
				c0-0.6,0-1.5,0.1-2.1h0l-0.6,1.8l-1.7,4.7h-0.5l-1.7-4.7l-0.6-1.8h0c0,0.7,0.1,1.5,0.1,2.1v5.2h-0.5V114.6z"/>
			<path class="st30" d="M705.7,119.6c0-1.9,1.2-3,2.5-3c1.4,0,2.2,1,2.2,2.7c0,0.1,0,0.3,0,0.4h-4.1c0,1.5,0.9,2.5,2.2,2.5
				c0.6,0,1.1-0.2,1.5-0.5l0.2,0.4c-0.5,0.3-1,0.6-1.8,0.6C706.9,122.6,705.7,121.5,705.7,119.6z M709.9,119.2
				c0-1.5-0.7-2.2-1.7-2.2c-1,0-1.9,0.8-2,2.2H709.9z"/>
			<path class="st30" d="M712.1,120.9v-3.7h-0.9v-0.4l0.9-0.1l0.1-1.7h0.5v1.7h1.7v0.5h-1.7v3.7c0,0.7,0.2,1.2,1,1.2
				c0.2,0,0.5-0.1,0.7-0.2l0.1,0.4c-0.3,0.1-0.7,0.2-0.9,0.2C712.4,122.6,712.1,121.9,712.1,120.9z"/>
			<path class="st30" d="M715.2,119.6c0-1.9,1.2-3,2.5-3c1.4,0,2.2,1,2.2,2.7c0,0.1,0,0.3,0,0.4h-4.1c0,1.5,0.9,2.5,2.2,2.5
				c0.6,0,1.1-0.2,1.5-0.5l0.2,0.4c-0.5,0.3-1,0.6-1.8,0.6C716.4,122.6,715.2,121.5,715.2,119.6z M719.4,119.2
				c0-1.5-0.7-2.2-1.7-2.2c-1,0-1.9,0.8-2,2.2H719.4z"/>
			<path class="st30" d="M721.5,116.7h0.4l0.1,1.1h0c0.4-0.7,1-1.2,1.6-1.2c0.2,0,0.4,0,0.6,0.1l-0.1,0.5c-0.2-0.1-0.3-0.1-0.5-0.1
				c-0.5,0-1.1,0.4-1.6,1.5v3.9h-0.5V116.7z"/>
		</g>
	</g>
	<g>
		<g>
			<path d="M503.3,110.6h1.8c2.4,0,3.6,1.5,3.6,3.9s-1.2,4-3.6,4h-1.8V110.6z M505.1,118c2.1,0,3.1-1.4,3.1-3.5s-0.9-3.5-3.1-3.5
				h-1.2v7H505.1z"/>
			<path d="M512.5,114.5c0-2.5,1.4-4.1,3.3-4.1c1.9,0,3.3,1.6,3.3,4.1c0,2.5-1.4,4.1-3.3,4.1C513.8,118.6,512.5,117,512.5,114.5z
				 M518.4,114.5c0-2.2-1.1-3.6-2.7-3.6c-1.6,0-2.7,1.4-2.7,3.6s1.1,3.6,2.7,3.6C517.3,118.1,518.4,116.7,518.4,114.5z"/>
			<path d="M520.7,116.4v-3.7h0.5v3.6c0,1.2,0.4,1.8,1.3,1.8c0.7,0,1.2-0.4,1.9-1.2v-4.3h0.5v5.8h-0.4l-0.1-1h0
				c-0.6,0.7-1.2,1.1-2,1.1C521.2,118.6,520.7,117.9,520.7,116.4z"/>
			<path d="M527.3,116.9v-3.7h-0.9v-0.4l0.9-0.1l0.1-1.7h0.5v1.7h1.7v0.5h-1.7v3.7c0,0.7,0.2,1.2,1,1.2c0.2,0,0.5-0.1,0.7-0.2
				l0.1,0.4c-0.3,0.1-0.7,0.2-0.9,0.2C527.6,118.6,527.3,117.9,527.3,116.9z"/>
		</g>
	</g>
	<g>
		<g>
			<path d="M573.9,415.2h1.8c2.4,0,3.6,1.5,3.6,3.9s-1.2,4-3.6,4h-1.8V415.2z M575.7,422.6c2.1,0,3.1-1.4,3.1-3.5s-0.9-3.5-3.1-3.5
				h-1.2v7H575.7z"/>
			<path d="M580.6,420.2c0-1.9,1.2-3,2.6-3s2.6,1.1,2.6,3c0,1.9-1.2,3-2.6,3S580.6,422.1,580.6,420.2z M585.2,420.2
				c0-1.5-0.9-2.6-2-2.6c-1.2,0-2,1.1-2,2.6s0.9,2.5,2,2.5C584.3,422.8,585.2,421.7,585.2,420.2z"/>
			<path d="M587,420.2c0-1.9,1.2-3,2.6-3s2.6,1.1,2.6,3c0,1.9-1.2,3-2.6,3S587,422.1,587,420.2z M591.6,420.2c0-1.5-0.9-2.6-2-2.6
				c-1.2,0-2,1.1-2,2.6s0.9,2.5,2,2.5C590.8,422.8,591.6,421.7,591.6,420.2z"/>
			<path d="M593.9,417.3h0.4l0.1,1.1h0c0.4-0.7,1-1.2,1.6-1.2c0.2,0,0.4,0,0.6,0.1l-0.1,0.5c-0.2-0.1-0.3-0.1-0.5-0.1
				c-0.5,0-1.1,0.4-1.6,1.5v3.9h-0.5V417.3z"/>
			<path d="M600.2,415.2h0.8l1.7,4.6c0.2,0.6,0.4,1.2,0.6,1.8h0c0.2-0.6,0.4-1.2,0.6-1.8l1.6-4.6h0.8v7.9h-0.5v-5.2
				c0-0.6,0-1.5,0.1-2.1h0l-0.6,1.8l-1.7,4.7H603l-1.7-4.7l-0.6-1.8h0c0,0.7,0.1,1.5,0.1,2.1v5.2h-0.5V415.2z"/>
			<path d="M608.1,420.2c0-1.9,1.2-3,2.6-3s2.6,1.1,2.6,3c0,1.9-1.2,3-2.6,3S608.1,422.1,608.1,420.2z M612.7,420.2
				c0-1.5-0.9-2.6-2-2.6c-1.2,0-2,1.1-2,2.6s0.9,2.5,2,2.5C611.8,422.8,612.7,421.7,612.7,420.2z"/>
			<path d="M615.1,421.5v-3.7h-0.9v-0.4l0.9-0.1l0.1-1.7h0.5v1.7h1.7v0.5h-1.7v3.7c0,0.7,0.2,1.2,1,1.2c0.2,0,0.5-0.1,0.7-0.2
				l0.1,0.4c-0.3,0.1-0.7,0.2-0.9,0.2C615.5,423.2,615.1,422.5,615.1,421.5z"/>
			<path d="M618.3,420.2c0-1.9,1.2-3,2.6-3s2.6,1.1,2.6,3c0,1.9-1.2,3-2.6,3S618.3,422.1,618.3,420.2z M622.9,420.2
				c0-1.5-0.9-2.6-2-2.6s-2,1.1-2,2.6s0.9,2.5,2,2.5S622.9,421.7,622.9,420.2z"/>
			<path d="M625.2,417.3h0.4l0.1,1.1h0c0.4-0.7,1-1.2,1.6-1.2c0.2,0,0.4,0,0.6,0.1l-0.1,0.5c-0.2-0.1-0.3-0.1-0.5-0.1
				c-0.5,0-1.1,0.4-1.6,1.5v3.9h-0.5V417.3z"/>
		</g>
	</g>
	<g>
		<g>
			<path d="M843.5,220.3h4.3v0.5h-3.8v3h3.2v0.5h-3.2v3.5h3.9v0.5h-4.4V220.3z"/>
			<path d="M849.6,222.4h0.4l0.1,1.1h0c0.4-0.7,1-1.2,1.6-1.2c0.2,0,0.4,0,0.6,0.1l-0.1,0.5c-0.2-0.1-0.3-0.1-0.5-0.1
				c-0.5,0-1.1,0.4-1.6,1.5v3.9h-0.5V222.4z"/>
			<path d="M853.4,222.4h0.4l0.1,1.1h0c0.4-0.7,1-1.2,1.6-1.2c0.2,0,0.4,0,0.6,0.1l-0.1,0.5c-0.2-0.1-0.3-0.1-0.5-0.1
				c-0.5,0-1.1,0.4-1.6,1.5v3.9h-0.5V222.4z"/>
			<path d="M856.8,225.3c0-1.9,1.2-3,2.6-3c1.4,0,2.6,1.1,2.6,3c0,1.9-1.2,3-2.6,3C858,228.3,856.8,227.2,856.8,225.3z M861.4,225.3
				c0-1.5-0.9-2.6-2-2.6c-1.2,0-2,1.1-2,2.6c0,1.5,0.9,2.5,2,2.5C860.5,227.9,861.4,226.8,861.4,225.3z"/>
			<path d="M863.7,222.4h0.4l0.1,1.1h0c0.4-0.7,1-1.2,1.6-1.2c0.2,0,0.4,0,0.6,0.1l-0.1,0.5c-0.2-0.1-0.3-0.1-0.5-0.1
				c-0.5,0-1.1,0.4-1.6,1.5v3.9h-0.5V222.4z"/>
			<path d="M869.9,220.3h0.6v7.4h3.6v0.5h-4.2V220.3z"/>
			<path d="M875.5,220.3h4.3v0.5h-3.8v3h3.2v0.5h-3.2v3.5h3.9v0.5h-4.4V220.3z"/>
			<path d="M881.7,220.3h1.8c2.4,0,3.6,1.5,3.6,3.9s-1.2,4-3.6,4h-1.8V220.3z M883.5,227.7c2.1,0,3.1-1.4,3.1-3.5s-0.9-3.5-3.1-3.5
				h-1.2v7H883.5z"/>
		</g>
	</g>
	<g>
		<g>
			<path d="M843.5,170.6h1.8c2.4,0,3.6,1.5,3.6,3.9s-1.2,4-3.6,4h-1.8V170.6z M845.3,178.1c2.1,0,3.1-1.4,3.1-3.5s-0.9-3.5-3.1-3.5
				h-1.2v7H845.3z"/>
			<path d="M850.2,175.7c0-1.9,1.2-3,2.6-3s2.6,1.1,2.6,3c0,1.9-1.2,3-2.6,3S850.2,177.6,850.2,175.7z M854.8,175.7
				c0-1.5-0.9-2.6-2-2.6s-2,1.1-2,2.6c0,1.5,0.9,2.5,2,2.5S854.8,177.2,854.8,175.7z"/>
			<path d="M856.6,175.7c0-1.9,1.2-3,2.6-3s2.6,1.1,2.6,3c0,1.9-1.2,3-2.6,3S856.6,177.6,856.6,175.7z M861.3,175.7
				c0-1.5-0.9-2.6-2-2.6s-2,1.1-2,2.6c0,1.5,0.9,2.5,2,2.5S861.3,177.2,861.3,175.7z"/>
			<path d="M863.5,172.8h0.4l0.1,1.1h0c0.4-0.7,1-1.2,1.6-1.2c0.2,0,0.4,0,0.6,0.1l-0.1,0.5c-0.2-0.1-0.3-0.1-0.5-0.1
				c-0.5,0-1.1,0.4-1.6,1.5v3.9h-0.5V172.8z"/>
			<path d="M869.8,170.6h1.8c2.4,0,3.6,1.5,3.6,3.9s-1.2,4-3.6,4h-1.8V170.6z M871.6,178.1c2.1,0,3.1-1.4,3.1-3.5s-0.9-3.5-3.1-3.5
				h-1.2v7H871.6z"/>
			<path d="M876.5,175.7c0-1.9,1.2-3,2.6-3c1.4,0,2.6,1.1,2.6,3c0,1.9-1.2,3-2.6,3C877.7,178.7,876.5,177.6,876.5,175.7z
				 M881.1,175.7c0-1.5-0.9-2.6-2-2.6c-1.2,0-2,1.1-2,2.6c0,1.5,0.9,2.5,2,2.5C880.3,178.2,881.1,177.2,881.1,175.7z"/>
			<path d="M882.6,172.8h0.6l1,3.7c0.1,0.5,0.3,1,0.4,1.5h0c0.1-0.5,0.3-1,0.4-1.5l1-3.7h0.6l1,3.7c0.1,0.5,0.3,1,0.4,1.5h0
				c0.1-0.5,0.3-1,0.4-1.5l1-3.7h0.5l-1.6,5.8h-0.7l-1-3.6c-0.2-0.6-0.3-1.1-0.4-1.6h0c-0.1,0.6-0.3,1.1-0.5,1.7l-1,3.6h-0.6
				L882.6,172.8z"/>
			<path d="M891.6,172.8h0.4l0.1,0.9h0c0.6-0.6,1.2-1,2-1c1.2,0,1.7,0.7,1.7,2.2v3.7h-0.5v-3.6c0-1.2-0.4-1.8-1.3-1.8
				c-0.7,0-1.2,0.4-1.9,1.1v4.3h-0.5V172.8z"/>
		</g>
	</g>
	<g>
		<g>
			<path d="M843.5,136.6h1.8c2.4,0,3.6,1.5,3.6,3.9s-1.2,4-3.6,4h-1.8V136.6z M845.3,144c2.1,0,3.1-1.4,3.1-3.5s-0.9-3.5-3.1-3.5
				h-1.2v7H845.3z"/>
			<path d="M850.2,141.6c0-1.9,1.2-3,2.6-3s2.6,1.1,2.6,3c0,1.9-1.2,3-2.6,3S850.2,143.5,850.2,141.6z M854.8,141.6
				c0-1.5-0.9-2.6-2-2.6c-1.2,0-2,1.1-2,2.6c0,1.5,0.9,2.5,2,2.5C854,144.1,854.8,143.1,854.8,141.6z"/>
			<path d="M856.6,141.6c0-1.9,1.2-3,2.6-3s2.6,1.1,2.6,3c0,1.9-1.2,3-2.6,3S856.6,143.5,856.6,141.6z M861.3,141.6
				c0-1.5-0.9-2.6-2-2.6c-1.2,0-2,1.1-2,2.6c0,1.5,0.9,2.5,2,2.5C860.4,144.1,861.3,143.1,861.3,141.6z"/>
			<path d="M863.5,138.7h0.4l0.1,1.1h0c0.4-0.7,1-1.2,1.6-1.2c0.2,0,0.4,0,0.6,0.1l-0.1,0.5c-0.2-0.1-0.3-0.1-0.5-0.1
				c-0.5,0-1.1,0.4-1.6,1.5v3.9h-0.5V138.7z"/>
			<path d="M869.8,141.4v-4.9h0.6v4.8c0,2.1,1,2.7,2.1,2.7c1.1,0,2.1-0.6,2.1-2.7v-4.8h0.5v4.9c0,2.5-1.3,3.2-2.7,3.2
				S869.8,143.9,869.8,141.4z"/>
			<path d="M877.4,138.7h0.4l0.1,0.7h0c0.6-0.5,1.2-0.9,2-0.9c1.5,0,2.3,1.2,2.3,2.9c0,2-1.2,3.1-2.5,3.1c-0.5,0-1.1-0.3-1.7-0.7
				l0,1.1v2.1h-0.5V138.7z M881.6,141.5c0-1.4-0.5-2.5-1.8-2.5c-0.6,0-1.2,0.3-1.9,0.9v3.4c0.7,0.5,1.3,0.7,1.7,0.7
				C880.8,144.1,881.6,143.1,881.6,141.5z"/>
		</g>
	</g>
	<g>
		<g>
			<path d="M510.4,88.8h0.6l1.5,4.6c0.3,1,0.5,1.7,0.8,2.7h0c0.3-1,0.5-1.7,0.8-2.7l1.5-4.6h0.6l-2.6,7.9H513L510.4,88.8z"/>
			<path d="M516.9,92.7c0-2.5,1.4-4.1,3.4-4.1c0.9,0,1.6,0.5,2.1,0.9L522,90c-0.4-0.5-1-0.8-1.7-0.8c-1.7,0-2.8,1.4-2.8,3.6
				c0,2.2,1.1,3.6,2.8,3.6c0.8,0,1.4-0.3,2-1l0.3,0.3c-0.6,0.7-1.3,1.1-2.4,1.1C518.2,96.8,516.9,95.2,516.9,92.7z"/>
			<path d="M523.6,92.7c0-2.5,1.4-4.1,3.4-4.1c0.9,0,1.6,0.5,2.1,0.9l-0.3,0.4c-0.4-0.5-1-0.8-1.7-0.8c-1.7,0-2.8,1.4-2.8,3.6
				c0,2.2,1.1,3.6,2.8,3.6c0.8,0,1.4-0.3,2-1l0.3,0.3c-0.6,0.7-1.3,1.1-2.4,1.1C525,96.8,523.6,95.2,523.6,92.7z"/>
		</g>
	</g>
	<g>
		<g>
			<path d="M510.2,309.7c0-2.5,1.4-4.1,3.5-4.1c1.1,0,1.7,0.5,2.2,0.9l-0.3,0.4c-0.4-0.4-1-0.8-1.8-0.8c-1.8,0-2.9,1.4-2.9,3.6
				c0,2.2,1.1,3.6,2.9,3.6c0.7,0,1.4-0.2,1.8-0.6v-2.5h-1.9v-0.5h2.4v3.1c-0.5,0.5-1.3,0.9-2.3,0.9
				C511.6,313.8,510.2,312.2,510.2,309.7z"/>
			<path d="M518,307.9h0.4l0.1,0.9h0c0.6-0.6,1.2-1,2-1c1.2,0,1.7,0.7,1.7,2.2v3.7h-0.5V310c0-1.2-0.4-1.8-1.3-1.8
				c-0.7,0-1.2,0.4-1.9,1.1v4.3H518V307.9z"/>
			<path d="M523.9,310.8c0-1.9,1.2-3,2.6-3c0.7,0,1.2,0.3,1.7,0.7l0-1.1V305h0.5v8.6h-0.4l-0.1-0.7h0c-0.5,0.5-1.1,0.9-1.9,0.9
				C524.8,313.8,523.9,312.7,523.9,310.8z M528.1,312.4V309c-0.6-0.5-1.1-0.7-1.7-0.7c-1.1,0-2,1.1-2,2.6c0,1.5,0.7,2.5,1.9,2.5
				C526.9,313.3,527.5,313,528.1,312.4z"/>
		</g>
	</g>
	<g>
		<g>
			<path d="M515.9,284h0.6v7.9h-0.6V284z"/>
			<path d="M518.7,286.1h0.4l0.1,0.9h0c0.6-0.6,1.2-1,2-1c1.2,0,1.7,0.7,1.7,2.2v3.7h-0.5v-3.6c0-1.2-0.4-1.8-1.3-1.8
				c-0.7,0-1.2,0.4-1.9,1.1v4.3h-0.5V286.1z"/>
			<path d="M524.5,291.5c2.5-2.6,3.8-4,3.8-5.3c0-1-0.5-1.7-1.7-1.7c-0.7,0-1.3,0.4-1.8,1l-0.3-0.3c0.6-0.6,1.3-1.1,2.2-1.1
				c1.4,0,2.2,0.9,2.2,2.1c0,1.5-1.4,3-3.5,5.2c0.4,0,0.9-0.1,1.3-0.1h2.6v0.5h-4.7V291.5z"/>
		</g>
	</g>
	<g>
		<g>
			<path d="M515.9,261.1h0.6v7.9h-0.6V261.1z"/>
			<path d="M518.7,263.2h0.4l0.1,0.9h0c0.6-0.6,1.2-1,2-1c1.2,0,1.7,0.7,1.7,2.2v3.7h-0.5v-3.6c0-1.2-0.4-1.8-1.3-1.8
				c-0.7,0-1.2,0.4-1.9,1.1v4.3h-0.5V263.2z"/>
			<path d="M525,268.5h1.8v-6.4h-1.4v-0.4c0.6-0.1,1.1-0.3,1.5-0.5h0.4v7.2h1.7v0.5h-4V268.5z"/>
		</g>
	</g>
	<g>
		<g>
			<path d="M510.4,239.3h0.6l1.5,4.6c0.3,1,0.5,1.7,0.8,2.7h0c0.3-1,0.5-1.7,0.8-2.7l1.5-4.6h0.6l-2.6,7.9H513L510.4,239.3z"/>
			<path d="M516.9,243.2c0-2.5,1.4-4.1,3.4-4.1c0.9,0,1.6,0.5,2.1,0.9l-0.3,0.4c-0.4-0.5-1-0.8-1.7-0.8c-1.7,0-2.8,1.4-2.8,3.6
				c0,2.2,1.1,3.6,2.8,3.6c0.8,0,1.4-0.3,2-1l0.3,0.3c-0.6,0.7-1.3,1.1-2.4,1.1C518.2,247.4,516.9,245.8,516.9,243.2z"/>
			<path d="M523.6,243.2c0-2.5,1.4-4.1,3.4-4.1c0.9,0,1.6,0.5,2.1,0.9l-0.3,0.4c-0.4-0.5-1-0.8-1.7-0.8c-1.7,0-2.8,1.4-2.8,3.6
				c0,2.2,1.1,3.6,2.8,3.6c0.8,0,1.4-0.3,2-1l0.3,0.3c-0.6,0.7-1.3,1.1-2.4,1.1C525,247.4,523.6,245.8,523.6,243.2z"/>
		</g>
	</g>
	<g>
		<g>
			<path d="M765.1,344.2v-0.6l9.2-3.3v0.7l-5.4,1.8c-1.1,0.4-2.1,0.7-3.2,1v0.1c1.1,0.3,2.1,0.6,3.2,1l5.4,1.9v0.6L765.1,344.2z
				 M770.6,346v-4.1h0.5v4.1H770.6z"/>
			<path d="M765.1,338.5v-2.6c0-1.8,0.7-3,2.4-3c1.7,0,2.6,1.2,2.6,3v2h4.2v0.6H765.1z M769.6,336.1c0-1.6-0.6-2.5-2-2.5
				c-1.4,0-1.9,0.9-1.9,2.5v1.8h3.9V336.1z M769.9,336.1l-0.2-0.6l4.6-2.7v0.7L769.9,336.1z"/>
			<path d="M765.1,330.7v-2.1c0-2.8,1.8-4.2,4.6-4.2s4.6,1.3,4.6,4.2v2.1H765.1z M773.8,328.6c0-2.5-1.7-3.6-4.1-3.6s-4,1.1-4,3.6
				v1.4h8.1V328.6z"/>
			<path d="M770.8,322h-5.7v-0.6h5.6c2.5,0,3.2-1.2,3.2-2.5c0-1.3-0.7-2.5-3.2-2.5h-5.6v-0.6h5.7c2.9,0,3.7,1.5,3.7,3.1
				C774.5,320.4,773.7,322,770.8,322z"/>
			<path d="M765.1,312.8v-0.6h9.2v0.6H765.1z"/>
			<path d="M765.1,309.1v-0.7l6.5-3.9l1.8-1v-0.1c-0.9,0-1.8,0.1-2.7,0.1h-5.7v-0.6h9.2v0.7l-6.5,3.9l-1.8,1v0.1
				c0.9,0,1.7-0.1,2.6-0.1h5.7v0.6H765.1z"/>
			<path d="M769.7,300.5c-2.9,0-4.8-1.6-4.8-3.8s1.8-3.8,4.8-3.8c2.9,0,4.8,1.6,4.8,3.8S772.6,300.5,769.7,300.5z M769.7,293.6
				c-2.6,0-4.2,1.3-4.2,3.1s1.6,3.1,4.2,3.1s4.2-1.3,4.2-3.1S772.3,293.6,769.7,293.6z"/>
		</g>
	</g>
</g>
</svg>
